<?xml version="1.0" encoding="UTF-8"?>
<svg width="200" height="62" version="1.1" viewBox="0 0 52.916666 16.404167" xmlns="http://www.w3.org/2000/svg" xmlns:cc="http://creativecommons.org/ns#" xmlns:dc="http://purl.org/dc/elements/1.1/" xmlns:rdf="http://www.w3.org/1999/02/22-rdf-syntax-ns#">
<metadata>
<rdf:RDF>
<cc:Work rdf:about="">
<dc:format>image/svg+xml</dc:format>
<dc:type rdf:resource="http://purl.org/dc/dcmitype/StillImage"/>
<dc:title/>
</cc:Work>
</rdf:RDF>
</metadata>
<g transform="translate(0 -11.25)">
<g transform="matrix(.15625 0 0 .15625 97.694 9.2079)" fill="#fff" stroke-width="6.4">
<path d="m-585.76 13.173a4.4595 4.4595 0 0 0 -1.3131 0.14927l-5.0516 1.3636c-19.467 5.2241-33.09 22.955-33.115 43.113a4.4595 4.4595 0 0 0 0 0.01445v0.0289c0 22.14 16.403 40.837 37.937 44.136l0.053 0.43289 0.67654 6.7782a4.4595 4.4595 0 0 0 4.8899 3.9986l15.51-1.5801 3.3191 4.5238a4.4595 4.4595 0 0 0 4.7483 1.6722l5.0512-1.3537c12.743-3.4169 22.654-12.354 28.206-23.652 6.7654 4.1644 14.64 6.7875 23.296 5.5192 3.9384-0.57764 7.6355-1.9086 11.182-3.4215l20.897 0.92072a4.4595 4.4595 0 0 0 0.0915 0c9.0252 0.2345 18.312-1.5739 24.47-7.3083 6.9787 5.361 15.628 8.7545 25.167 7.572 0.48923-0.06115 0.46227-0.13868 0.84604-0.22632l3.844 4.8821a4.4595 4.4595 0 0 0 6.1447 0.82605l10.144-7.4774c2.9464 1.1759 5.9126 2.4531 9.3791 2.3042 1.4946-0.065 1.5048-0.3154 2.1991-0.59227a4.4595 4.4595 0 0 0 1.3439 0.15168l23.137-0.99781a4.4595 4.4595 0 0 0 3.3567 -1.7667c0.85374 0.2451 0.96449 0.59791 2.0908 0.65689 3.7241 0.1955 7.1323-0.69768 10.465-1.6747 6.9488 4.104 14.799 4.8303 21.94 3.6505 2.6065-0.43048 5.1903-1.4756 7.7308-2.6153 2.2015 0.97128 4.4247 1.9778 6.9228 2.1723 5.1359 0.39774 10.103-0.71092 14.448-2.8292l5.4417-2.6526a4.4595 4.4595 0 0 0 2.399 -4.9941l-3.0182-13.27a4.4595 4.4595 0 0 0 2.6156 -3.7051l1.7287-20.738a4.4595 4.4595 0 0 0 -4.1011 -4.8149l-4.6924-0.36836 0.33706-4.0435a4.4595 4.4595 0 0 0 -4.1002 -4.8149l-22.958-1.7766a4.4595 4.4595 0 0 0 -4.7878 4.0808l-0.33707 4.0809-0.22631-0.01926a4.4595 4.4595 0 0 0 -3.4742 1.279c-0.99241-0.15746-1.2712-0.46178-2.9224-0.18924-2.3811 0.3934-4.6072 1.4338-6.8366 2.4162-3.9239-2.5914-8.4315-4.6316-13.72-4.9096-3.492-0.18298-6.5078 0.81705-9.4812 1.7693a4.4595 4.4595 0 0 0 -1.329 -0.15168l-22.785 0.98033a4.4595 4.4595 0 0 0 -0.053 0.01444l-0.31299 0.01926-10.994 0.4507c-7.3779-7.2692-17.712-11.393-28.741-10.026-6.6681 0.82673-12.375 3.7773-17.238 7.5919-6.4442-4.9154-14.09-7.5823-20.627-7.7611l-26.314-1.1646a4.4595 4.4595 0 0 0 -4.6385 4.0337c-4.3905-0.96945-8.926-1.5416-13.653-0.84864-8.8456 1.2965-15.86 6.0712-21.282 12.056-6.6354-7.8405-15.31-14.052-25.958-15.856l-0.053-0.46804-0.68665-6.7906a4.4595 4.4595 0 0 0 -4.8899 -3.9964l-15.52 1.5901-3.3673-4.5536a4.4595 4.4595 0 0 0 -3.4284 -1.804zm-0.14927 4.4565 4.8769 6.5941 18.048-1.8438 1.083 10.807h0.053c12.743 0.85957 23.266 8.04 30.019 17.953 4.7902-7.0474 12.468-12.346 21.915-13.731 5.8606-0.8587 11.687 0.13194 17.2 2.0031l0.24558-5.1433 26.389 1.1646c6.5343 0.17864 15.15 2.8026 20.917 8.5598 4.6568-4.4283 10.678-7.5678 17.615-8.4279 10.611-1.3153 20.783 2.6632 27.125 10.12l12.289-0.51749 0.33707-0.01926 22.789-0.97792v0.34814c3.2498-1.3008 6.7014-2.1659 10.373-1.9732 5.2043 0.2735 9.7133 2.3668 13.477 5.2927 2.5376-1.4027 5.3059-2.3961 8.0506-2.8491 1.7657-0.2918 3.4535 0.42856 5.2197 0.443l0.10112-1.4855 4.6467 0.35585 0.70688-8.5002 22.957 1.7768-0.70688 8.51 9.16 0.71665-1.7301 20.738-3.7342-0.29373 4.2326 18.623-5.4441 2.6525c-3.6894 1.7989-7.8734 2.7202-12.15 2.3888-2.4553-0.19116-4.9905-1.0805-7.3259-2.334-2.6142 1.4468-5.5 2.3427-8.4006 2.8217-6.3575 1.0504-13.096 0.3934-18.979-3.0929l-1.2409-0.73413c-3.4934 1.3053-7.2686 2.0047-11.228 1.7967-2.2208-0.11701-3.9586-1.4067-6.0094-2.0405l0.13964 3.1503-23.137 0.99781-0.053-0.60224c-1.1985 0.26098-2.2892 0.99068-3.4983 1.0427-3.6499 0.15698-7.1241-0.91388-10.281-2.5755l-11.688 8.6146-5.6526-7.1664c-1.0574 0.23932-1.9901 0.70938-3.0933 0.84608-9.7556 1.2093-18.878-2.3683-25.252-8.6893-4.2846 6.3181-13.939 8.6523-23.721 8.3981l-21.564-0.95053c-3.635 1.6545-7.4593 2.9266-11.362 3.4986-9.3276 1.3669-18.06-1.6457-24.585-7.1491-4.3597 12.183-14.412 21.895-27.424 25.384l-5.0488 1.3561-4.8249-6.584-18.048 1.8338-1.083-10.797h-0.053c-21.035-1.4218-37.524-19.029-37.524-40.112v-0.0289c0.0482-18.157 12.284-34.111 29.822-38.813z" color="#000000" color-rendering="auto" dominant-baseline="auto" image-rendering="auto" shape-rendering="auto" solid-color="#000000" style="font-feature-settings:normal;font-variant-alternates:normal;font-variant-caps:normal;font-variant-ligatures:normal;font-variant-numeric:normal;font-variant-position:normal;isolation:auto;mix-blend-mode:normal;shape-padding:0;text-decoration-color:#000000;text-decoration-line:none;text-decoration-style:solid;text-indent:0;text-orientation:mixed;text-transform:none;white-space:normal"/>
<path d="m-589.1 26.512-4.2721 1.5693 0.52968 7.0693c-1.5332 0.84127-2.9667 1.8259-4.2856 2.9347l-6.6079-2.7395-2.8983 3.4516 3.9798 5.7314c-0.91489 1.5084-1.6728 3.1108-2.2608 4.7876l-6.9811 0.84623-0.74491 4.4051 6.2935 2.98c0 0.88224 0.0482 1.7733 0.1252 2.6704 0.0915 0.8966 0.22632 1.7787 0.40448 2.6427l-5.5818 4.1235 1.6068 4.1772 7.0143-0.49977c0.91056 1.5327 1.9728 2.9623 3.1699 4.2674l-2.7615 6.3787 3.5248 2.8325 5.9362-3.9439c1.5139 0.83693 3.1179 1.5287 4.7892 2.0624l0.88648 7.0353 4.5013 0.72874 3.2108-6.4968c0.8364-0.01445 1.6796-0.06404 2.527-0.15746l1e-3 0.0031 12.281-1.1795-1.7498-17.447-12.282 1.178 0.54605 5.4298-2e-3 -0.0017c-7.7275 0.74203-14.606-4.7863-15.365-12.348-0.7584-7.5612 4.8913-14.291 12.618-15.034v-0.0016l12.281-1.1796-1.2057-12.021-12.281 1.1795c-0.84988 0.06934-1.6858 0.17961-2.5097 0.32647zm26.677 14.591-3.2118 6.4967c-0.83544 0.01445-1.6781 0.06452-2.5265 0.15746l-12.282 1.1795 1.2052 12.019 12.283-1.1795a14.058 13.758 0 0 1 15.365 12.348 14.058 13.758 0 0 1 -12.619 15.034l-12.282 1.1843 1.2057 12.019 12.283-1.1796c0.84988-0.07223 1.6863-0.18394 2.5078-0.3284l4.4454 5.7604 4.2682-1.5695-0.52583-7.0691c1.5322-0.84127 2.9652-1.8259 4.2832-2.9348l6.6103 2.7396 2.8959-3.4516-3.9778-5.7313c0.91489-1.5084 1.6752-3.1122 2.2641-4.7892l6.9763-0.84474 0.74733-4.4051-6.2954-2.98c0.0481-0.882-0.0482-1.7734-0.12519-2.6704-0.0915-0.8966-0.22632-1.7788-0.40448-2.6429l5.5823-4.1233-1.6068-4.1788-7.0119 0.50136c-0.91104-1.5327-1.9747-2.9623-3.1718-4.2673l2.761-6.3787-3.5243-2.8327-5.9376 3.944c-1.5144-0.83713-3.1169-1.5286-4.7883-2.0623l-0.88937-7.0354z" color="#000000" color-rendering="auto" dominant-baseline="auto" image-rendering="auto" shape-rendering="auto" solid-color="#000000" style="font-feature-settings:normal;font-variant-alternates:normal;font-variant-caps:normal;font-variant-ligatures:normal;font-variant-numeric:normal;font-variant-position:normal;isolation:auto;mix-blend-mode:normal;shape-padding:0;text-decoration-color:#000000;text-decoration-line:none;text-decoration-style:solid;text-indent:0;text-orientation:mixed;text-transform:none;white-space:normal"/>
<path d="m-498.84 72.99c-1.8924 1.0996-3.8297 1.9122-5.2544 2.121-5.4019 0.79167-10.009-2.6447-10.881-8.2142-0.85448-5.4547 2.4338-10.048 7.7764-10.831 3.443-0.50458 7.7405 0.56895 10.935 2.7439l6.3464-10.269c-5.0458-3.1371-12.488-4.5134-18.958-3.5651-13.594 1.9923-22.09 12.107-20.228 23.992 1.8708 11.943 12.736 19.278 25.796 17.365 5.9362-0.87001 13.252-4.1741 17.415-7.8385l-2.5994-16.594-11.813 1.7313z" style="font-feature-settings:normal;font-variant-caps:normal;font-variant-ligatures:normal;font-variant-numeric:normal"/>
<path d="m-466.48 43.068-18.773-0.82592-1.9125 40.667 18.233 0.80219c14.215 0.62539 23.768-6.9767 24.349-19.334 0.5811-12.357-8.0418-20.7-21.897-21.31zm-1.0613 30.241-5.2181-0.22956 0.93028-19.783 4.5583 0.20041c5.398 0.23765 8.7511 4.3381 8.4674 10.371-0.28086 5.9754-3.6998 9.6618-8.738 9.4401z" style="font-feature-settings:normal;font-variant-caps:normal;font-variant-ligatures:normal;font-variant-numeric:normal"/>
<path d="m-426.67 43.148c-12.566 1.5576-21.052 11.511-19.51 23.146 1.534 11.578 12.363 19.309 24.929 17.752 2.4994-0.30972 4.8289-0.97042 6.9573-1.9023l4.1475 5.2653 6.2207-4.5826-3.9011-4.9521c4.5523-4.3394 6.9495-10.471 6.0729-17.087-1.534-11.578-12.351-19.197-24.916-17.639zm1.0359 6.8976c7.6226-0.94487 14.714 4.1498 15.721 11.753 0.49375 3.7265-0.58579 7.2485-2.7066 9.9876l-3.1696-4.0239-6.2226 4.5849 3.1432 3.9892c-1.008 0.37004-2.0672 0.64442-3.1783 0.78215-7.6824 0.95232-14.967-4.2322-15.974-11.836-1.0075-7.6034 4.645-14.278 12.387-15.237z" style="font-feature-settings:normal;font-variant-caps:normal;font-variant-ligatures:normal;font-variant-numeric:normal"/>
<path d="m-380.21 52.471 0.70342 15.316c0.22895 4.9894-2.5941 8.9473-7.6297 9.2218-4.3186 0.18543-7.0177-2.3144-7.2175-6.6655l-0.79136-17.231-7.8574 0.33766 0.89261 19.435c0.33569 7.31 4.9847 11.703 12.182 11.393 5.0983-0.21903 8.8492-2.2985 10.879-6.5129l0.2637 5.7435 7.8575-0.33766-1.4254-31.039z" style="font-feature-settings:normal;font-variant-caps:normal;font-variant-ligatures:normal;font-variant-numeric:normal"/>
<path d="m-355.08 50.18c-9.5922-0.50389-16.665 5.522-17.196 14.974-0.52422 9.336 5.6523 16.058 15.604 16.581 5.6354 0.29596 10.422-1.4299 13.789-4.6262l-3.9588-4.4535c-2.4052 2.1418-5.5311 3.1989-8.8284 3.0257-4.6762-0.24575-8.0036-3.0958-8.7753-7.5564l23.681 1.244c1.411-11.209-3.0446-18.596-14.315-19.188zm-9.262 12.89c0.97661-4.5432 4.3768-7.2726 8.9931-7.0301 4.8561 0.25506 7.8707 3.3214 7.7933 7.9119z" style="font-feature-settings:normal;font-variant-caps:normal;font-variant-ligatures:normal;font-variant-numeric:normal"/>
<path d="m-321.56 59.714 1.8314-5.8405c-3.5006-1.5426-8.0332-2.031-12.176-1.3465-6.3917 1.056-11.439 4.8945-10.327 11.191 1.8612 10.886 17.828 5.0671 18.828 10.734 0.3537 2.0035-1.5067 3.1946-4.17 3.6347-3.4326 0.56709-8.0547-0.0834-11.379-2.0084l-1.7433 5.6492c3.8095 2.2574 9.0437 2.9244 13.838 2.1325 6.7468-1.1146 11.952-5.097 10.85-11.337-1.9409-10.991-18.214-5.5333-19.124-10.685-0.3336-1.8891 1.3004-2.9838 3.786-3.3944 2.7224-0.44976 6.3961 0.0038 9.787 1.2699z" style="font-feature-settings:normal;font-variant-caps:normal;font-variant-ligatures:normal;font-variant-numeric:normal"/>
<path d="m-302.42 75.845c-1.803 0.67535-3.3377 1.022-4.6543 0.91956-2.0947-0.16316-3.2696-1.2449-3.024-4.1971l1.1605-13.951 9.1565 0.7126 0.45746-5.4992-9.1565-0.7126 0.70789-8.5093-7.7202-0.60082-0.70789 8.5093-4.5482-0.35385-0.39765 5.5038 4.4885 0.3494-1.2712 15.282c-0.52971 6.3675 3.4188 9.5878 8.6254 9.9931 2.8128 0.21903 5.6332-0.37733 8.2072-1.6335z" style="font-feature-settings:normal;font-variant-caps:normal;font-variant-ligatures:normal;font-variant-numeric:normal"/>
</g>
</g>
</svg>
