<?xml version="1.0" encoding="UTF-8" standalone="no"?>
<svg
   xmlns:dc="http://purl.org/dc/elements/1.1/"
   xmlns:cc="http://creativecommons.org/ns#"
   xmlns:rdf="http://www.w3.org/1999/02/22-rdf-syntax-ns#"
   xmlns:svg="http://www.w3.org/2000/svg"
   xmlns="http://www.w3.org/2000/svg"
   id="svg923"
   viewBox="0 0 53.0966 18.248993"
   version="1.1"
   height="68.972572"
   width="200.68007">
  <defs
     id="defs927" />
  <metadata
     id="metadata899">
    <rdf:RDF>
      <cc:Work
         rdf:about="">
        <dc:format>image/svg+xml</dc:format>
        <dc:type
           rdf:resource="http://purl.org/dc/dcmitype/StillImage" />
        <dc:title></dc:title>
      </cc:Work>
    </rdf:RDF>
  </metadata>
  <path
     id="path903"
     style="color:#000000;font-variant-ligatures:normal;font-variant-position:normal;font-variant-caps:normal;font-variant-numeric:normal;font-variant-alternates:normal;font-feature-settings:normal;text-indent:0;text-decoration:none;text-decoration-line:none;text-decoration-style:solid;text-decoration-color:#000000;text-transform:none;text-orientation:mixed;dominant-baseline:auto;white-space:normal;shape-padding:0;isolation:auto;mix-blend-mode:normal;solid-color:#000000;fill:#ffffff;stroke-width:1;color-rendering:auto;image-rendering:auto;shape-rendering:auto"
     dominant-baseline="auto"
     d="M 5.6468298,2.0846589 4.9793142,2.329862 5.0620767,3.4344401 C 4.8225142,3.5658886 4.5985298,3.719737 4.3924517,3.892987 L 3.3599673,3.4649401 2.9071079,4.0042526 3.5289517,4.8997839 C 3.3860001,5.1354714 3.2675767,5.3858464 3.1757017,5.6478464 L 2.0849048,5.7800698 1.9685126,6.4683667 2.951872,6.9339917 c 0,0.13785 0.00753,0.2770781 0.019563,0.41725 0.014297,0.1400938 0.035363,0.2779219 0.0632,0.4129219 L 2.1624782,8.4084605 2.4135407,9.061148 3.5095251,8.9830589 c 0.142275,0.2394844 0.30825,0.4628594 0.4952969,0.6667812 l -0.4314844,0.9966709 0.55075,0.442578 0.9275313,-0.616234 c 0.2365468,0.13077 0.4871718,0.238859 0.7483125,0.32225 l 0.1385125,1.099265 0.7033281,0.113866 0.5016875,-1.015125 c 0.1306875,-0.0023 0.2624375,-0.01001 0.3948437,-0.0246 l 1.563e-4,4.84e-4 1.9189062,-0.1843 L 9.1839595,8.0586026 7.264897,8.2426651 7.3502173,9.0910714 7.3499048,9.0908058 C 6.1424829,9.206748 5.0677173,8.3429464 4.9491235,7.1614308 4.8306235,5.9799933 5.7133892,4.928462 6.920686,4.8123683 v -2.5e-4 L 8.8395923,4.6278058 8.6512017,2.7495245 6.7322954,2.9338214 C 6.5995017,2.9446558 6.4688892,2.9618855 6.3401548,2.9848323 Z M 9.8151111,4.3645026 9.3132673,5.379612 c -0.1305375,0.00226 -0.2622031,0.010081 -0.3947656,0.024603 L 6.9994392,5.588512 7.1877517,7.4664808 9.1069704,7.2821839 a 2.1965625,2.1496875 0 0 1 2.4007816,1.929375 2.1965625,2.1496875 0 0 1 -1.9717191,2.3490621 l -1.9190625,0.185046 0.1883906,1.877969 1.9192188,-0.184312 c 0.1327937,-0.01129 0.2634844,-0.02874 0.3918442,-0.05131 l 0.694593,0.900063 0.666907,-0.245235 -0.08216,-1.104547 c 0.239406,-0.131448 0.463312,-0.285296 0.66925,-0.458562 l 1.032859,0.428062 0.452485,-0.539312 -0.621532,-0.895516 c 0.142952,-0.235687 0.26175,-0.486281 0.353766,-0.748312 l 1.090047,-0.131991 0.11677,-0.6882958 -0.983656,-0.465625 c 0.0075,-0.1378125 -0.0075,-0.2770938 -0.01956,-0.41725 -0.0143,-0.1400938 -0.03536,-0.2779375 -0.0632,-0.4129532 l 0.872232,-0.6442686 -0.251062,-0.6529375 -1.09561,0.078337 C 12.806203,7.150187 12.640007,6.926812 12.45296,6.7229058 l 0.431406,-0.9966719 -0.550672,-0.4426094 -0.92775,0.61625 C 11.169319,5.769073 10.918928,5.6610308 10.657772,5.5776401 L 10.518808,4.4783589 Z" />
  <path
     id="path905"
     style="font-variant-ligatures:normal;font-variant-caps:normal;font-variant-numeric:normal;font-feature-settings:normal;fill:#ffffff;stroke-width:1"
     d="m 19.749955,9.3468464 c -0.295687,0.1718125 -0.598391,0.2987812 -0.821,0.3314062 -0.844047,0.1236985 -1.563906,-0.4132343 -1.700156,-1.2834687 -0.133513,-0.8522969 0.380281,-1.57 1.215062,-1.6923438 0.537969,-0.078841 1.209453,0.088898 1.708594,0.4287344 L 21.14408,5.5266433 C 20.355674,5.0364714 19.19283,4.8214245 18.181893,4.9695964 c -2.124063,0.3112969 -3.451563,1.8917187 -3.160625,3.74875 0.292312,1.8660926 1.99,3.0121866 4.030625,2.7132806 0.927531,-0.135939 2.070625,-0.652203 2.721093,-1.224766 L 21.36683,7.6140495 19.521049,7.8845651 Z" />
  <path
     id="path907"
     style="font-variant-ligatures:normal;font-variant-caps:normal;font-variant-numeric:normal;font-feature-settings:normal;fill:#ffffff;stroke-width:1"
     d="m 24.806205,4.6715339 -2.933281,-0.12905 -0.298828,6.3542181 2.848906,0.125342 c 2.221094,0.09772 3.71375,-1.0901085 3.804531,-3.0209367 0.0908,-1.9307812 -1.256531,-3.234375 -3.421406,-3.3296875 z m -0.165828,4.7251562 -0.815328,-0.035869 0.145356,-3.0910938 0.712234,0.031314 c 0.843438,0.037133 1.36736,0.6778281 1.323032,1.6204688 -0.04388,0.9336562 -0.578094,1.5096562 -1.365313,1.4750156 z" />
  <path
     id="path909"
     style="font-variant-ligatures:normal;font-variant-caps:normal;font-variant-numeric:normal;font-feature-settings:normal;fill:#ffffff;stroke-width:1"
     d="m 31.026518,4.6840339 c -1.963438,0.243375 -3.289376,1.7985938 -3.048438,3.6165625 0.239688,1.8090616 1.931719,3.0170306 3.895156,2.7737496 0.390531,-0.04839 0.754516,-0.151629 1.087078,-0.297235 l 0.648047,0.822703 0.971985,-0.716031 -0.609547,-0.773766 C 34.682096,9.431987 35.056658,8.4739245 34.919689,7.4401745 34.680002,5.631112 32.989846,4.4406433 31.026564,4.6840808 Z m 0.161859,1.07775 c 1.191031,-0.1476359 2.299062,0.6484062 2.456406,1.8364062 0.07715,0.5822657 -0.09153,1.1325782 -0.422906,1.5605626 l -0.49525,-0.6287344 -0.972281,0.7163906 0.491125,0.6233125 c -0.1575,0.057819 -0.323,0.1006906 -0.49661,0.1222105 C 30.548486,10.140731 29.410268,9.3306511 29.252924,8.1425573 29.095502,6.9545261 29.978705,5.9116198 31.188393,5.7617761 Z" />
  <path
     id="path911"
     style="font-variant-ligatures:normal;font-variant-caps:normal;font-variant-numeric:normal;font-feature-settings:normal;fill:#ffffff;stroke-width:1"
     d="m 38.285893,6.1407526 0.109909,2.393125 c 0.03577,0.7795938 -0.405328,1.3980157 -1.192141,1.4409063 -0.674781,0.028974 -1.096515,-0.361625 -1.127734,-1.0414844 l -0.12365,-2.6923437 -1.227719,0.052759 0.13947,3.0367188 c 0.05245,1.1421864 0.77886,1.8285934 1.903438,1.7801554 0.796609,-0.03422 1.382687,-0.35914 1.699844,-1.01764 l 0.0412,0.897421 1.227734,-0.05276 -0.222719,-4.849843 z" />
  <path
     id="path913"
     style="font-variant-ligatures:normal;font-variant-caps:normal;font-variant-numeric:normal;font-feature-settings:normal;fill:#ffffff;stroke-width:1"
     d="m 42.212455,5.7827839 c -1.498781,-0.078733 -2.603906,0.8628125 -2.686875,2.3396875 -0.08191,1.45875 0.883172,2.5090616 2.438125,2.5907806 0.880531,0.04624 1.628438,-0.223422 2.154531,-0.7228431 L 43.499674,9.2945495 C 43.123861,9.6292058 42.635439,9.7943776 42.120236,9.7673152 41.38958,9.7289167 40.869674,9.2835964 40.749096,8.5866277 l 3.700156,0.194375 C 44.669721,7.0295964 43.973533,5.8753777 42.212533,5.7828776 Z m -1.447187,2.0140625 c 0.152595,-0.709875 0.683875,-1.1363437 1.405171,-1.0984531 0.758766,0.039853 1.229797,0.5189687 1.217704,1.2362344 z" />
  <path
     id="path915"
     style="font-variant-ligatures:normal;font-variant-caps:normal;font-variant-numeric:normal;font-feature-settings:normal;fill:#ffffff;stroke-width:1"
     d="m 47.449955,7.2724714 0.286156,-0.9125781 c -0.546969,-0.2410313 -1.255187,-0.3173438 -1.9025,-0.2103907 -0.998703,0.165 -1.787344,0.7647657 -1.613594,1.7485938 0.290813,1.7009375 2.785625,0.7917344 2.941875,1.6771875 0.05527,0.3130469 -0.235421,0.4991551 -0.651562,0.5679211 -0.536344,0.08861 -1.258547,-0.01303 -1.777969,-0.3138117 l -0.27239,0.8826867 c 0.595234,0.352719 1.413078,0.456937 2.162187,0.333203 1.054188,-0.174156 1.8675,-0.796406 1.695313,-1.7714054 -0.303266,-1.7173437 -2.845938,-0.8645781 -2.988125,-1.6695312 -0.05213,-0.2951719 0.203187,-0.4662188 0.591562,-0.530375 0.425375,-0.070275 0.999391,5.937e-4 1.529219,0.1984219 z" />
  <path
     id="path917"
     style="font-variant-ligatures:normal;font-variant-caps:normal;font-variant-numeric:normal;font-feature-settings:normal;fill:#ffffff;stroke-width:1"
     d="m 50.44058,9.7929402 c -0.281719,0.1055234 -0.521516,0.1596875 -0.727234,0.1436812 -0.327297,-0.025494 -0.510875,-0.1945156 -0.4725,-0.6557969 l 0.181328,-2.1798437 1.430703,0.1113437 0.07148,-0.85925 -1.430703,-0.1113437 0.110608,-1.3295782 -1.206282,-0.093878 -0.110607,1.3295781 -0.710657,-0.055289 -0.06213,0.8599687 0.701328,0.054594 -0.198625,2.3878125 c -0.08277,0.9949211 0.534187,1.4980921 1.347718,1.5614211 0.4395,0.03422 0.880188,-0.05896 1.282375,-0.255235 z" />
  <path
     d="m 11.883667,15.195318 c -0.252622,0.105282 -0.514394,0.194797 -0.784318,0.267173 L 10.310474,15.674381 9.5565836,14.645631 6.7365838,14.932163 6.567365,13.245131 H 6.559085 C 3.2723829,13.022975 0.69597667,10.27185 0.69597667,6.9776321 v -0.00452 C 0.70350767,4.1360845 2.6153517,1.6432721 5.3556641,0.90858454 L 6.1453819,0.69676825 v 0 l 0.7620153,1.03032815 2.82,-0.2880938 0.1692188,1.6885938 h 0.00828 c 1.991094,0.1343078 3.635313,1.2562499 4.690469,2.8051561 0.748469,-1.1011561 1.948125,-1.9290625 3.424219,-2.1454686 0.915718,-0.1341721 1.826093,0.020616 2.6875,0.3129843 l 0.03837,-0.8036406 4.123281,0.1819688 c 1.020984,0.027913 2.367186,0.437906 3.26828,1.3374687 0.727625,-0.6919219 1.668439,-1.1824687 2.752344,-1.3168593 1.657969,-0.2055159 3.247345,0.4161251 4.238281,1.58125 l 1.920155,-0.080858 0.05267,-0.00301 3.560781,-0.1528001 v 0.054397 c 0.50778,-0.20325 1.047094,-0.3384219 1.620782,-0.3083123 0.81317,0.042734 1.517703,0.3698124 2.105781,0.8269843 0.3965,-0.2191718 0.829046,-0.3743907 1.257906,-0.4451718 0.275889,-0.045594 0.53961,0.066962 0.815578,0.069219 l 0.0158,-0.2321094 0.726046,0.055602 0.11045,-1.3281562 3.58703,0.2776249 -0.11045,1.3296876 1.43125,0.1119764 -0.270327,3.2403127 -0.58347,-0.045895 0.661345,2.9098431 -0.850641,0.414452 c -0.576469,0.281079 -1.23022,0.425032 -1.898438,0.373251 -0.19276,-0.01501 -0.388673,-0.05756 -0.582192,-0.121025"
     style="font-variant-ligatures:normal;font-variant-position:normal;font-variant-caps:normal;font-variant-numeric:normal;font-variant-alternates:normal;font-feature-settings:normal;text-indent:0;text-decoration:none;text-decoration-line:none;text-decoration-style:solid;text-decoration-color:#000000;text-transform:none;text-orientation:mixed;white-space:normal;shape-padding:0;isolation:auto;mix-blend-mode:normal;fill:none;stroke-width:1"
     id="path1276" />
  <path
     d="m 51.555616,12.366456 0.776915,-0.378715 a 0.69679687,0.69679687 0 0 0 0.374843,-0.780328 L 52.235778,9.1339635 A 0.69679687,0.69679687 0 0 0 52.644467,8.5550416 L 52.914577,5.314729 A 0.69679687,0.69679687 0 0 0 52.27378,4.5624011 l -0.733187,-0.057556 0.05266,-0.6317967 A 0.69679687,0.69679687 0 0 0 50.952602,3.1207196 L 47.365413,2.843126 a 0.69679687,0.69679687 0 0 0 -0.748094,0.6376251 l -0.05267,0.6376406 -0.03536,-0.00301 a 0.69679687,0.69679687 0 0 0 -0.54284,0.1998436 C 45.831385,4.2906217 45.787824,4.2430721 45.529824,4.2856565 45.157777,4.3471253 44.809948,4.5096877 44.461605,4.6631878 43.848494,4.2582814 43.144182,3.9395003 42.317853,3.8960628 41.77223,3.8674722 41.301009,4.0237267 40.836417,4.1725159 a 0.69679687,0.69679687 0 0 0 -0.207656,-0.023699 l -3.560156,0.1531765 a 0.69679687,0.69679687 0 0 0 -0.0083,0.00225 l -0.04889,0.00301 -1.717813,0.070422 C 34.140802,3.2418575 32.526098,2.5975139 30.802816,2.8111077 29.760927,2.9402841 28.869223,3.4013108 28.109379,3.9973419 27.102473,3.2293107 25.907817,2.8126076 24.886411,2.7846702 L 20.774857,2.6027119 A 0.69679687,0.69679687 0 0 0 20.050091,3.2329776 C 19.364075,3.081501 18.655403,2.9921025 17.91681,3.1003774 16.534685,3.3029556 15.438685,4.0490026 14.591497,4.9841274 13.554716,3.7590494 12.19931,2.7885025 10.53556,2.5066276 L 10.52726,2.4334966 10.419971,1.3724653 A 0.69679687,0.69679687 0 0 0 9.6559423,0.74802762 L 7.2309421,0.99648079 6.7048015,0.28498076 A 0.69679687,0.69679687 0 0 0 6.1691142,0.00310576 L 6.1687173,4.4013543e-4 A 0.69679687,0.69679687 0 0 0 5.963533,0.02376358 L 5.1742203,0.23682608 C 2.1325017,1.0530917 0.00390794,3.8235448 1.6834595e-6,6.973232 a 0.69679687,0.69679687 0 0 0 0,0.00225 v 0.00452 c 0,3.459373 2.5629687165405,6.380779 5.9276561165405,6.896248 l 0.00828,0.06764 0.1057092,1.059094 a 0.69679687,0.69679687 0 0 0 0.7640468,0.624781 l 2.4234376,-0.246891 0.5186092,0.706844 a 0.69679687,0.69679687 0 0 0 0.7419224,0.261281 l 0.78925,-0.211515 c 0.205346,-0.05506 0.405986,-0.119297 0.601658,-0.192166"
     style="font-variant-ligatures:normal;font-variant-position:normal;font-variant-caps:normal;font-variant-numeric:normal;font-variant-alternates:normal;font-feature-settings:normal;text-indent:0;text-decoration:none;text-decoration-line:none;text-decoration-style:solid;text-decoration-color:#000000;text-transform:none;text-orientation:mixed;white-space:normal;shape-padding:0;isolation:auto;mix-blend-mode:normal;fill:none;stroke-width:1"
     id="path1304" />
  <g
     id="g1096">
    <path
       id="path949"
       style="font-style:normal;font-variant:normal;font-weight:600;font-stretch:normal;font-size:7.76110983px;line-height:1.25;font-family:Montserrat;-inkscape-font-specification:'Montserrat Semi-Bold';letter-spacing:-1.05833328px;word-spacing:0px;fill:#ffffff;fill-opacity:1;stroke:none;stroke-width:0.26458299"
       d="m 14.369692,11.191437 h 2.3749 q 0.869244,0 1.544461,0.341489 0.675217,0.333728 1.04775,0.954617 0.372533,0.613127 0.372533,1.420283 0,0.807155 -0.372533,1.428044 -0.372533,0.613128 -1.04775,0.954616 -0.675217,0.333728 -1.544461,0.333728 h -2.3749 z m 2.328333,4.579055 q 0.597606,0 1.04775,-0.225072 0.457906,-0.232833 0.6985,-0.651933 0.248356,-0.426861 0.248356,-0.985661 0,-0.5588 -0.248356,-0.9779 -0.240594,-0.426861 -0.6985,-0.651933 -0.450144,-0.232834 -1.04775,-0.232834 h -1.319388 v 3.725333 z" />
    <path
       id="path951"
       style="font-style:normal;font-variant:normal;font-weight:600;font-stretch:normal;font-size:7.76110983px;line-height:1.25;font-family:Montserrat;-inkscape-font-specification:'Montserrat Semi-Bold';letter-spacing:-1.05833328px;word-spacing:0px;fill:#ffffff;fill-opacity:1;stroke:none;stroke-width:0.26458299"
       d="m 21.492903,16.678542 q -0.62865,0 -1.133122,-0.271639 -0.504472,-0.271639 -0.791633,-0.752828 -0.2794,-0.488949 -0.2794,-1.102077 0,-0.613128 0.2794,-1.094317 0.287161,-0.481188 0.791633,-0.752827 0.504472,-0.271639 1.133122,-0.271639 0.636411,0 1.140883,0.271639 0.504472,0.271639 0.783872,0.752827 0.287161,0.481189 0.287161,1.094317 0,0.613128 -0.287161,1.102077 -0.2794,0.481189 -0.783872,0.752828 -0.504472,0.271639 -1.140883,0.271639 z m 0,-0.830439 q 0.535516,0 0.884766,-0.357011 0.34925,-0.357011 0.34925,-0.939094 0,-0.582083 -0.34925,-0.939094 -0.34925,-0.357011 -0.884766,-0.357011 -0.535517,0 -0.884767,0.357011 -0.341489,0.357011 -0.341489,0.939094 0,0.582083 0.341489,0.939094 0.34925,0.357011 0.884767,0.357011 z" />
    <path
       id="path953"
       style="font-style:normal;font-variant:normal;font-weight:600;font-stretch:normal;font-size:7.76110983px;line-height:1.25;font-family:Montserrat;-inkscape-font-specification:'Montserrat Semi-Bold';letter-spacing:-1.05833328px;word-spacing:0px;fill:#ffffff;fill-opacity:1;stroke:none;stroke-width:0.26458299"
       d="m 25.475653,16.678542 q -0.644172,0 -1.156406,-0.271639 -0.512233,-0.271639 -0.799394,-0.752828 -0.287161,-0.488949 -0.287161,-1.102077 0,-0.613128 0.287161,-1.094317 0.287161,-0.481188 0.791633,-0.752827 0.512234,-0.271639 1.164167,-0.271639 0.613127,0 1.071033,0.248355 0.465667,0.248356 0.6985,0.714022 l -0.745067,0.434623 q -0.178505,-0.287161 -0.450144,-0.426861 -0.263878,-0.147461 -0.582083,-0.147461 -0.543278,0 -0.900289,0.357011 -0.357011,0.34925 -0.357011,0.939094 0,0.589844 0.34925,0.946855 0.357011,0.34925 0.90805,0.34925 0.318205,0 0.582083,-0.1397 0.271639,-0.147461 0.450144,-0.434622 l 0.745067,0.434622 q -0.240595,0.465667 -0.706261,0.721783 -0.457906,0.248356 -1.063272,0.248356 z" />
    <path
       id="path955"
       style="font-style:normal;font-variant:normal;font-weight:600;font-stretch:normal;font-size:7.76110983px;line-height:1.25;font-family:Montserrat;-inkscape-font-specification:'Montserrat Semi-Bold';letter-spacing:-1.05833328px;word-spacing:0px;fill:#ffffff;fill-opacity:1;stroke:none;stroke-width:0.26458299"
       d="m 31.030392,12.479782 v 4.144432 H 30.10682 v -0.527755 q -0.232834,0.2794 -0.582084,0.434622 -0.34925,0.147461 -0.752827,0.147461 -0.830439,0 -1.311628,-0.457906 -0.473428,-0.465666 -0.473428,-1.373716 v -2.367138 h 0.970139 v 2.235199 q 0,0.5588 0.248356,0.8382 0.256116,0.271639 0.721783,0.271639 0.519994,0 0.822678,-0.318206 0.310444,-0.325966 0.310444,-0.931333 v -2.095499 z" />
    <path
       id="path957"
       style="font-style:normal;font-variant:normal;font-weight:600;font-stretch:normal;font-size:7.76110983px;line-height:1.25;font-family:Montserrat;-inkscape-font-specification:'Montserrat Semi-Bold';letter-spacing:-1.05833328px;word-spacing:0px;fill:#ffffff;fill-opacity:1;stroke:none;stroke-width:0.26458299"
       d="m 36.185533,12.433215 q 0.783873,0 1.241778,0.457905 0.457906,0.450145 0.457906,1.358195 v 2.374899 h -0.970139 v -2.250722 q 0,-0.543277 -0.240595,-0.814916 -0.240594,-0.2794 -0.690738,-0.2794 -0.48895,0 -0.783872,0.325966 -0.294923,0.318206 -0.294923,0.915811 v 2.103261 h -0.970138 v -2.250722 q 0,-0.543277 -0.240595,-0.814916 -0.240594,-0.2794 -0.690739,-0.2794 -0.496711,0 -0.791633,0.318205 -0.287161,0.318206 -0.287161,0.923572 v 2.103261 h -0.970139 v -4.144432 h 0.923573 v 0.527755 q 0.232833,-0.2794 0.582083,-0.426861 0.34925,-0.147461 0.776111,-0.147461 0.465666,0 0.822677,0.178505 0.364773,0.170745 0.574323,0.512234 0.256116,-0.325967 0.659694,-0.504472 0.403578,-0.186267 0.892527,-0.186267 z" />
    <path
       id="path959"
       style="font-style:normal;font-variant:normal;font-weight:600;font-stretch:normal;font-size:7.76110983px;line-height:1.25;font-family:Montserrat;-inkscape-font-specification:'Montserrat Semi-Bold';letter-spacing:-1.05833328px;word-spacing:0px;fill:#ffffff;fill-opacity:1;stroke:none;stroke-width:0.26458299"
       d="m 42.008152,14.575281 q 0,0.100895 -0.01552,0.287161 h -3.251905 q 0.08537,0.457906 0.442383,0.729545 0.364773,0.263877 0.900289,0.263877 0.682978,0 1.125361,-0.450144 l 0.519994,0.597605 q -0.279399,0.333728 -0.706261,0.504473 -0.426861,0.170744 -0.962377,0.170744 -0.682978,0 -1.202972,-0.271639 -0.519995,-0.271639 -0.807156,-0.752828 -0.2794,-0.488949 -0.2794,-1.102077 0,-0.605367 0.271639,-1.086556 0.2794,-0.488949 0.76835,-0.760588 0.48895,-0.271639 1.102078,-0.271639 0.605366,0 1.078794,0.271639 0.481189,0.263877 0.745067,0.752827 0.271638,0.481189 0.271638,1.1176 z m -2.095499,-1.365955 q -0.465667,0 -0.791633,0.2794 -0.318206,0.271639 -0.388056,0.729544 h 2.351616 q -0.06209,-0.450144 -0.380294,-0.729544 -0.318206,-0.2794 -0.791633,-0.2794 z" />
    <path
       id="path961"
       style="font-style:normal;font-variant:normal;font-weight:600;font-stretch:normal;font-size:7.76110983px;line-height:1.25;font-family:Montserrat;-inkscape-font-specification:'Montserrat Semi-Bold';letter-spacing:-1.05833328px;word-spacing:0px;fill:#ffffff;fill-opacity:1;stroke:none;stroke-width:0.26458299"
       d="m 44.225735,12.433215 q 0.783872,0 1.257299,0.457905 0.473428,0.457906 0.473428,1.358195 v 2.374899 h -0.970139 v -2.250722 q 0,-0.543277 -0.256116,-0.814916 -0.256117,-0.2794 -0.729545,-0.2794 -0.535516,0 -0.845961,0.325966 -0.310444,0.318206 -0.310444,0.923573 v 2.095499 h -0.970139 v -4.144432 h 0.923572 v 0.535516 q 0.240595,-0.287161 0.605367,-0.434622 0.364772,-0.147461 0.822678,-0.147461 z" />
    <path
       id="path963"
       style="font-style:normal;font-variant:normal;font-weight:600;font-stretch:normal;font-size:7.76110983px;line-height:1.25;font-family:Montserrat;-inkscape-font-specification:'Montserrat Semi-Bold';letter-spacing:-1.05833328px;word-spacing:0px;fill:#ffffff;fill-opacity:1;stroke:none;stroke-width:0.26458299"
       d="m 48.627705,16.399142 q -0.170745,0.1397 -0.4191,0.20955 -0.240595,0.06985 -0.512234,0.06985 -0.682977,0 -1.055511,-0.357011 -0.372533,-0.357011 -0.372533,-1.039989 v -1.994605 h -0.682978 v -0.776111 h 0.682978 v -0.946855 h 0.970139 v 0.946855 h 1.109839 v 0.776111 h -1.109839 v 1.971322 q 0,0.302683 0.147461,0.465666 0.147461,0.155223 0.426861,0.155223 0.325967,0 0.543278,-0.170745 z" />
    <path
       id="path965"
       style="font-style:normal;font-variant:normal;font-weight:600;font-stretch:normal;font-size:7.76110983px;line-height:1.25;font-family:Montserrat;-inkscape-font-specification:'Montserrat Semi-Bold';letter-spacing:-1.05833328px;word-spacing:0px;fill:#ffffff;fill-opacity:1;stroke:none;stroke-width:0.26458299"
       d="m 49.648016,16.678542 q -0.504472,0 -0.985661,-0.131939 -0.481189,-0.131939 -0.76835,-0.333728 l 0.372534,-0.737305 q 0.2794,0.186267 0.667455,0.302683 0.395817,0.108656 0.776111,0.108656 0.869244,0 0.869244,-0.457906 0,-0.217311 -0.225072,-0.302683 -0.217311,-0.08537 -0.706261,-0.162983 -0.512233,-0.07761 -0.8382,-0.178506 -0.318205,-0.100894 -0.5588,-0.34925 -0.232833,-0.256116 -0.232833,-0.706261 0,-0.589844 0.48895,-0.939094 0.496711,-0.357011 1.334911,-0.357011 0.426861,0 0.853722,0.100894 0.426861,0.09313 0.6985,0.256117 l -0.372533,0.737305 q -0.527756,-0.310444 -1.18745,-0.310444 -0.426861,0 -0.651933,0.131939 -0.217311,0.124178 -0.217311,0.333728 0,0.232833 0.232833,0.333727 0.240594,0.09313 0.737305,0.178506 0.496711,0.07761 0.814917,0.178505 0.318205,0.100895 0.543277,0.341489 0.232834,0.240595 0.232834,0.682978 0,0.582083 -0.504472,0.931333 -0.504473,0.34925 -1.373717,0.34925 z" />
  </g>
  <path
     id="path4985"
     d="m 52.23247,13.806909 0.0155,0.0155 c -0.0036,-0.0038 -0.0098,-0.004 -0.01344,-0.0078 -0.0021,-0.0021 2.6e-5,-0.0057 -0.0021,-0.0078 l 5.3e-5,2e-6 v 0"
     style="font-style:normal;font-variant:normal;font-weight:600;font-stretch:normal;font-size:7.76110983px;line-height:1.25;font-family:Montserrat;-inkscape-font-specification:'Montserrat Semi-Bold';letter-spacing:-1.05833328px;word-spacing:0px;fill:none;fill-opacity:1;stroke:#ffffff;stroke-width:0.52916664;stroke-miterlimit:4;stroke-dasharray:none" />
  <path
     id="path4892"
     d="M 6.1686164,5.1716175e-4 C 6.0994559,-0.00196228 6.0303118,0.00587521 5.9634608,0.02377155 L 5.174362,0.23667845 C 2.1326431,1.052944 0.00390701,3.8235306 7.6639645e-7,6.9732181 c -1.02186193e-6,6.88e-4 -1.02186193e-6,0.00138 0,0.00206 v 0.00465 C 7.6639645e-7,10.439308 2.5631167,13.360685 5.9278043,13.876153 l 0.00827,0.0677 0.1054198,1.059367 c 0.03788,0.383928 0.3805031,0.664003 0.7642944,0.624768 l 2.4231079,-0.247013 0.5188315,0.706934 c 0.1699112,0.231644 0.4645701,0.335267 0.7420741,0.260966 l 0.789099,-0.211357 c 0.638138,-0.17111 1.227461,-0.435331 1.766817,-0.767395 v 1.254703 c -2.91e-4,0.727946 0.595488,1.323717 1.323433,1.323434 H 16.7442 c 0.743984,0 1.466125,-0.146148 2.115117,-0.463538 l 0.0016,-5.29e-4 c 0.0036,-0.0015 0.0072,-0.0031 0.01085,-0.0047 l 0.0036,-0.0021 0.0041,-0.0016 0.0078,-0.0036 c 0.106036,-0.05363 0.204959,-0.11889 0.305408,-0.181384 0.1595,0.127203 0.319415,0.255073 0.500228,0.352433 0.552665,0.29759 1.175918,0.439767 1.799373,0.439767 0.626053,0 1.251867,-0.14078 1.807125,-0.439767 0.06582,-0.03544 0.125377,-0.07745 0.187585,-0.116788 0.0596,0.03695 0.116676,0.07606 0.179834,0.109553 0.558353,0.296095 1.183623,0.433049 1.809709,0.433049 0.558017,0 1.114795,-0.125057 1.621607,-0.377238 0.516786,0.279209 1.097356,0.424264 1.673283,0.424264 0.316079,0 0.59201,-0.09115 0.847492,-0.163298 0.157517,0.05832 0.318693,0.109855 0.487309,0.110587 h 5.3e-4 0.644406 c 0.06767,0.0096 0.135741,0.01759 0.20412,0.01757 h 0.968418 5.29e-4 c 0.393221,-5.29e-4 0.735536,-0.194404 1.005623,-0.468705 0.269954,0.274209 0.612066,0.468007 1.005107,0.468705 h 5.29e-4 0.968933 5.3e-4 c 0.393043,-6.87e-4 0.735158,-0.194496 1.005107,-0.468705 0.270089,0.274301 0.612402,0.468176 1.005623,0.468705 h 5.29e-4 0.968417 c 0.230645,9.2e-5 0.443439,-0.09291 0.647504,-0.196887 0.486929,0.190607 1.005703,0.286804 1.528591,0.286804 0.418552,0 0.833699,-0.07138 1.235583,-0.195853 0.184772,0.07892 0.376981,0.14452 0.578776,0.144694 h 0.968933 5.29e-4 c 0.425321,-6.09e-4 0.790287,-0.220043 1.069703,-0.527617 0.279984,0.308168 0.646099,0.527729 1.072285,0.527617 h 0.970483 c 0.240012,-2.09e-4 0.463701,-0.09265 0.675413,-0.202572 0.349102,0.118938 0.711676,0.189136 1.065051,0.189136 0.1754,0 0.353549,-0.0213 0.531233,-0.05013 0.0075,0.0023 0.0083,0.003 0.0181,0.0057 0.459703,0.126047 0.931601,0.187069 1.401982,0.187069 0.786461,0 1.583751,-0.153944 2.267562,-0.627352 0.696679,-0.482317 1.18029,-1.355087 1.18029,-2.22312 0,-0.493497 -0.192675,-1.014527 -0.516766,-1.469161 l 0.217043,-0.428914 c 0.292005,-0.577077 0.191323,-1.257011 -0.20774,-1.727027 0.11952,-0.162586 0.162687,-0.369001 0.118338,-0.565857 L 52.235672,9.1337868 C 52.467169,9.0297087 52.62376,8.807985 52.644432,8.5550108 L 52.914701,5.3148987 C 52.946686,4.9298025 52.659187,4.592224 52.273912,4.5624899 l -0.733288,-0.057878 0.05271,-0.6314861 C 51.62532,3.48803 51.337821,3.1504515 50.952546,3.1207174 L 47.365685,2.843215 C 46.983259,2.813591 46.648804,3.0986173 46.617411,3.4809021 l -0.05271,0.6376871 -0.03514,-0.0031 c -0.201393,-0.01537 -0.399548,0.057406 -0.543121,0.1994709 -0.155064,-0.024604 -0.198303,-0.07204 -0.456303,-0.029456 -0.372047,0.061469 -0.720326,0.2242547 -1.068668,0.3777546 -0.613108,-0.4049064 -1.31721,-0.7239574 -2.143538,-0.7673951 -0.545626,-0.028591 -1.016971,0.12768 -1.481563,0.2764689 -0.06766,-0.018328 -0.137692,-0.026342 -0.207741,-0.02377 l -3.559989,0.1534789 c -0.0028,6.615e-4 -0.0055,0.00135 -0.0083,0.00206 l -0.04909,0.0031 -1.717725,0.07028 C 34.140646,3.2416978 32.526052,2.5976045 30.802771,2.8111983 29.760881,2.9403747 28.869241,3.4011413 28.109395,3.9971724 27.102491,3.2291412 25.907743,2.8127808 24.886337,2.7848434 L 20.77496,2.6029423 C 20.404055,2.5862267 20.085189,2.8632741 20.04994,3.232878 19.363923,3.0814014 18.65533,2.9923114 17.916736,3.1005863 16.534611,3.3031645 15.438546,4.0490673 14.591358,4.9841923 13.554577,3.7591141 12.199542,2.7886992 10.535792,2.5068241 l -0.0088,-0.073381 -0.106971,-1.0609172 C 10.381892,0.98880717 10.03935,0.70903051 9.6557421,0.74827513 L 7.2310838,0.996322 6.7050178,0.28473754 C 6.5786319,0.11411198 6.3813424,0.01042571 6.1691331,0.00310098 Z M 6.1453621,0.69659869 6.9075897,1.7270268 9.7275725,1.439189 9.8965545,3.1274579 h 0.00827 c 1.9910935,0.1343081 3.6355145,1.2566073 4.6906695,2.8055136 0.748469,-1.1011562 1.947987,-1.9291993 3.424081,-2.1456055 0.915718,-0.1341718 1.826284,0.020791 2.687691,0.3131593 l 0.03824,-0.8040854 4.123263,0.181901 c 1.020984,0.027912 2.366923,0.4383405 3.268017,1.3379029 0.727626,-0.6919219 1.668897,-1.1828417 2.752805,-1.3172323 1.657969,-0.2055156 3.247048,0.416174 4.237982,1.5812989 l 1.920298,-0.080615 0.05271,-0.0031 3.560506,-0.1529622 v 0.054777 c 0.50778,-0.20325 1.047401,-0.3386178 1.621089,-0.3085084 0.813173,0.042734 1.51774,0.3696512 2.105813,0.8268229 0.396502,-0.2191719 0.828948,-0.3741529 1.257806,-0.4449339 0.275891,-0.045594 0.539485,0.066989 0.815453,0.069246 l 0.01603,-0.2320272 0.726054,0.055294 0.110072,-1.3280845 3.587377,0.2775024 -0.110588,1.3296347 1.431438,0.1121378 -0.270269,3.2401123 -0.583944,-0.045475 0.657842,2.8949137 -0.09457,0.551904 c 0.471014,0.282449 0.641742,0.874729 0.393774,1.364775 l -0.3576,0.706933 0.110069,0.133325 c 0.321461,0.388999 0.490411,0.884829 0.490411,1.296562 0,0.660611 -0.415184,1.416446 -0.951881,1.788004 -0.569714,0.394419 -1.249018,0.533301 -1.966804,0.533301 -0.424521,0 -0.849781,-0.05531 -1.262457,-0.168465 -0.0063,-0.0017 -0.02392,-0.0077 -0.05478,-0.01654 l -0.05943,-0.01705 -0.0615,0.01137 c -0.172945,0.0322 -0.34531,0.04806 -0.513146,0.04806 -0.326173,0 -0.662609,-0.05459 -0.97255,-0.171566 l -0.126093,-0.04754 -0.112654,0.0739 c -0.157236,0.103317 -0.341021,0.158482 -0.529166,0.158647 h -0.970484 c -0.349271,9.2e-5 -0.670531,-0.187566 -0.841809,-0.49196 l -0.230476,-0.409794 -0.230476,0.409794 c -0.170992,0.303885 -0.491572,0.491466 -0.840261,0.49196 h -0.968415 c -0.158186,-1.36e-4 -0.313624,-0.03925 -0.453202,-0.113688 l -0.100253,-0.05323 -0.108003,0.03566 c -0.369051,0.123335 -0.758291,0.182418 -1.152901,0.182418 -0.489947,0 -0.970994,-0.0874 -1.409734,-0.271301 l -0.131257,-0.05529 -0.11834,0.07958 c -0.15275,0.102531 -0.332793,0.15717 -0.516763,0.157096 h -0.967902 -5.29e-4 c -0.318008,-6.08e-4 -0.613013,-0.163866 -0.782381,-0.433048 l -0.223758,-0.355534 -0.223761,0.355534 c -0.169291,0.269061 -0.463999,0.432307 -0.781862,0.433048 h -0.968417 -5.29e-4 c -0.317851,-7.5e-4 -0.612559,-0.163995 -0.78185,-0.433057 l -0.223761,-0.355534 -0.223758,0.355534 c -0.169461,0.269328 -0.464693,0.432621 -0.782897,0.433048 h -0.967901 c -0.05321,1.5e-5 -0.106215,-0.0043 -0.158647,-0.01344 l -0.02273,-0.0041 h -0.665594 -0.0011 c -0.133003,-7.14e-4 -0.264295,-0.03085 -0.384474,-0.08785 l -0.08888,-0.04186 -0.09457,0.02584 c -0.284539,0.0784 -0.54065,0.156579 -0.767911,0.156579 -0.540245,1e-6 -1.087522,-0.132204 -1.538409,-0.40566 l -0.131258,-0.07958 -0.134358,0.07493 c -0.01815,0.01012 -0.02238,0.01273 -0.01241,0.0072 l -0.01085,0.0057 c -0.442147,0.238386 -0.950748,0.350366 -1.467611,0.350366 -0.54893,0 -1.088345,-0.120037 -1.561661,-0.371037 -0.09432,-0.05002 -0.18725,-0.108027 -0.27957,-0.171049 l -0.150861,-0.102835 -0.149862,0.104386 c -0.09405,0.06566 -0.189315,0.125551 -0.286287,0.177767 -0.469991,0.253073 -1.009481,0.376721 -1.555977,0.376721 -0.542751,0 -1.080029,-0.124615 -1.548226,-0.376721 -0.201296,-0.10839 -0.390638,-0.242944 -0.56379,-0.397391 l -0.155029,-0.138493 -0.171566,0.118339 c -0.12785,0.08819 -0.262147,0.16729 -0.402043,0.238228 l -0.0031,0.0016 -0.0078,0.0036 c -0.570613,0.282029 -1.216044,0.415994 -1.896525,0.415995 h -2.375049 c -0.441817,1.71e-4 -0.794438,-0.352449 -0.794266,-0.794267 v -2.070674 h -0.529167 c -0.580064,0.404986 -1.233743,0.717453 -1.946135,0.908472 L 10.310482,15.674496 9.5565234,14.645618 6.7365405,14.932422 6.5675586,13.245187 h -0.00827 C 3.2725873,13.023031 0.69608231,10.272088 0.69608231,6.977869 V 6.973219 C 0.70361354,4.1361919 2.6154335,1.6431596 5.3557463,0.90847208 Z"
     style="color:#000000;font-style:normal;font-variant:normal;font-weight:600;font-stretch:normal;font-size:7.76110983px;line-height:1.25;font-family:Montserrat;-inkscape-font-specification:'Montserrat Semi-Bold';font-variant-ligatures:normal;font-variant-position:normal;font-variant-caps:normal;font-variant-numeric:normal;font-variant-alternates:normal;font-feature-settings:normal;text-indent:0;text-align:start;text-decoration:none;text-decoration-line:none;text-decoration-style:solid;text-decoration-color:#000000;letter-spacing:-1.05833328px;word-spacing:0px;text-transform:none;writing-mode:lr-tb;direction:ltr;text-orientation:mixed;dominant-baseline:auto;baseline-shift:baseline;text-anchor:start;white-space:normal;shape-padding:0;clip-rule:nonzero;display:inline;overflow:visible;visibility:visible;opacity:1;isolation:auto;mix-blend-mode:normal;color-interpolation:sRGB;color-interpolation-filters:linearRGB;solid-color:#000000;solid-opacity:1;vector-effect:none;fill:#ffffff;fill-opacity:1;fill-rule:nonzero;stroke:none;stroke-width:0.52916664;stroke-linecap:butt;stroke-linejoin:miter;stroke-miterlimit:4;stroke-dasharray:none;stroke-dashoffset:0;stroke-opacity:1;color-rendering:auto;image-rendering:auto;shape-rendering:auto;text-rendering:auto;enable-background:accumulate" />
</svg>
