<?xml version="1.0" encoding="UTF-8" standalone="no"?>
<!-- Created with Inkscape (http://www.inkscape.org/) -->

<svg
   xmlns:dc="http://purl.org/dc/elements/1.1/"
   xmlns:cc="http://creativecommons.org/ns#"
   xmlns:rdf="http://www.w3.org/1999/02/22-rdf-syntax-ns#"
   xmlns:svg="http://www.w3.org/2000/svg"
   xmlns="http://www.w3.org/2000/svg"
   xmlns:sodipodi="http://sodipodi.sourceforge.net/DTD/sodipodi-0.dtd"
   xmlns:inkscape="http://www.inkscape.org/namespaces/inkscape"
   width="64"
   height="56"
   viewBox="0 0 64 56"
   version="1.1"
   id="svg8"
   inkscape:version="0.92.4 5da689c313, 2019-01-14"
   sodipodi:docname="heart.svg">
  <defs
     id="defs2" />
  <sodipodi:namedview
     id="base"
     pagecolor="#282828"
     bordercolor="#666666"
     borderopacity="1.0"
     inkscape:pageopacity="0"
     inkscape:pageshadow="2"
     inkscape:zoom="0.35"
     inkscape:cx="692.85714"
     inkscape:cy="722.85714"
     inkscape:document-units="px"
     inkscape:current-layer="layer1"
     showgrid="false"
     units="px"
     inkscape:window-width="1920"
     inkscape:window-height="1022"
     inkscape:window-x="0"
     inkscape:window-y="30"
     inkscape:window-maximized="1" />
  <metadata
     id="metadata5">
    <rdf:RDF>
      <cc:Work
         rdf:about="">
        <dc:format>image/svg+xml</dc:format>
        <dc:type
           rdf:resource="http://purl.org/dc/dcmitype/StillImage" />
        <dc:title></dc:title>
      </cc:Work>
    </rdf:RDF>
  </metadata>
  <g
     inkscape:label="Layer 1"
     inkscape:groupmode="layer"
     id="layer1"
     transform="translate(0,-1035.25)">
    <path
       style="opacity:1;fill:#ff6b97;fill-opacity:1;stroke:none;stroke-width:5.36361217;stroke-linecap:round;stroke-linejoin:miter;stroke-miterlimit:4;stroke-dasharray:none;stroke-dashoffset:0;stroke-opacity:1;paint-order:normal"
       d="m 16.862762,1035.2584 c -4.3067,0 -8.6126995,1.6543 -11.9126995,4.9643 -6.6001,6.62 -6.6001,17.2794 0,23.8994 l 12.0822995,12.1208 3.053,3.0622 c 0.001,9e-4 0,0 0,0 0.001,10e-4 0,0 0,0 l 11.9108,11.9449 11.9127,-11.9488 3.056701,-3.0659 12.0843,-12.1208 c 6.6002,-6.6201 6.6002,-17.2794 0,-23.8994 -6.600101,-6.6201 -17.2273,-6.6201 -23.8274,0 l -3.2263,3.236 -3.2264,-3.236 c -3.3,-3.31 -7.6079,-4.9643 -11.9147,-4.9643 z"
       id="path2704"
       inkscape:connector-curvature="0" />
  </g>
</svg>
