<?xml version="1.0" encoding="UTF-8" standalone="no"?>
<svg
   width="695.37823"
   height="249.31456"
   viewBox="0 0 695.37823 249.31456"
   fill="none"
   version="1.1"
   id="svg150"
   xmlns="http://www.w3.org/2000/svg"
   xmlns:svg="http://www.w3.org/2000/svg">
  <g
     opacity="0.24"
     id="g132"
     transform="translate(-1227.8909,-194.786)">
    <path
       d="m 1356.33,415.531 -123.1,-9.674 m 123.1,9.674 -29.71,-84.539 m 29.71,84.539 59.48,-144.311 m -59.48,144.311 164.82,-67.721 m -287.92,58.047 38.27,-132.219 m -38.27,132.219 93.39,-74.865 m -55.12,-57.354 55.12,57.354 m -55.12,-57.354 144.31,-2.418 m -89.19,59.772 89.19,-59.772 m -89.19,59.772 178.47,91.795 m -89.28,-151.567 105.34,76.59 m -105.34,-76.59 89.28,151.567 m -89.28,-151.567 161.08,-20.155 m -55.74,96.745 -16.06,74.977 m 16.06,-74.977 104.22,89.489 m -104.22,-89.489 55.74,-96.745 m -55.74,96.745 155.22,-25.396 m -171.28,100.373 171.28,-100.373 m -51,114.885 -48.48,-186.234 m 48.48,186.234 124.92,-2.822 m -124.92,2.822 74.3,-42.459 m -74.3,42.459 51,-114.885 m 0,0 46.15,-119.119 m -46.15,119.119 89.57,28.621 m -89.57,-28.621 -99.48,-71.349 m 99.48,71.349 23.3,72.426 m -23.3,-72.426 73.92,112.063 m -27.77,-231.182 125.12,123.15 m -125.12,-123.15 177.67,88.932 m -177.67,-88.932 43.42,147.74 m 81.7,-24.59 -97.35,108.032 m 97.35,-108.032 70.29,79.009 m -70.29,-79.009 52.55,-34.218 m 0,0 -44.57,141.041 -89.68,-82.233 m 134.25,-58.808 17.74,113.227 m -151.99,-54.419 -15.65,83.442 m 15.65,-83.442 -66.27,43.805 m 66.27,-43.805 151.99,54.419 m -218.26,-10.614 50.62,39.637"
       stroke="#ffffff"
       stroke-opacity="0.6"
       stroke-width="0.500378"
       id="path66" />
    <path
       d="m 1849.56,433.268 c 0,3.321 2.74,6.051 6.06,6.051 3.33,0 6.07,-2.73 6.07,-6.051 0,-3.318 -2.74,-6.051 -6.07,-6.051 -3.32,0 -6.06,2.733 -6.06,6.051 z"
       stroke="#ffffff"
       stroke-width="1.50113"
       stroke-linecap="round"
       stroke-linejoin="round"
       id="path68" />
    <path
       d="m 1851.38,433.268 c 0,2.322 1.91,4.232 4.24,4.232 2.33,0 4.24,-1.91 4.24,-4.232 0,-2.322 -1.91,-4.233 -4.24,-4.233 -2.33,0 -4.24,1.911 -4.24,4.233 z"
       fill="#ffffff"
       id="path70" />
    <path
       d="m 1759.88,351.034 c 0,3.322 2.73,6.051 6.06,6.051 3.33,0 6.07,-2.729 6.07,-6.051 0,-3.317 -2.74,-6.05 -6.07,-6.05 -3.33,0 -6.06,2.733 -6.06,6.05 z"
       stroke="#ffffff"
       stroke-opacity="0.5"
       stroke-width="1.50113"
       stroke-linecap="round"
       stroke-linejoin="round"
       id="path72" />
    <path
       d="m 1761.7,351.034 c 0,2.322 1.92,4.233 4.24,4.233 2.33,0 4.25,-1.911 4.25,-4.233 0,-2.322 -1.92,-4.232 -4.25,-4.232 -2.32,0 -4.24,1.91 -4.24,4.232 z"
       fill="#ffffff"
       fill-opacity="0.5"
       id="path74" />
    <path
       d="m 1619.3,437.299 c 0,3.322 2.74,6.051 6.07,6.051 3.32,0 6.06,-2.729 6.06,-6.051 0,-3.317 -2.74,-6.05 -6.06,-6.05 -3.33,0 -6.07,2.733 -6.07,6.05 z"
       stroke="#ffffff"
       stroke-opacity="0.5"
       stroke-width="1.50113"
       stroke-linecap="round"
       stroke-linejoin="round"
       id="path76" />
    <path
       d="m 1621.12,437.299 c 0,2.322 1.92,4.233 4.25,4.233 2.32,0 4.24,-1.911 4.24,-4.233 0,-2.322 -1.92,-4.233 -4.24,-4.233 -2.33,0 -4.25,1.911 -4.25,4.233 z"
       fill="#ffffff"
       fill-opacity="0.5"
       id="path78" />
    <path
       d="m 1570.83,251.064 c 0,3.32 2.73,6.051 6.06,6.051 3.33,0 6.07,-2.731 6.07,-6.051 0,-3.319 -2.74,-6.05 -6.07,-6.05 -3.33,0 -6.06,2.731 -6.06,6.05 z"
       stroke="#ffffff"
       stroke-width="1.50113"
       stroke-linecap="round"
       stroke-linejoin="round"
       id="path80" />
    <path
       d="m 1572.65,251.064 c 0,2.323 1.91,4.234 4.24,4.234 2.33,0 4.24,-1.911 4.24,-4.234 0,-2.322 -1.91,-4.233 -4.24,-4.233 -2.33,0 -4.24,1.911 -4.24,4.233 z"
       fill="#ffffff"
       id="path82" />
    <path
       d="m 1350.27,415.531 c 0,3.322 2.73,6.051 6.06,6.051 3.33,0 6.06,-2.729 6.06,-6.051 0,-3.317 -2.73,-6.051 -6.06,-6.051 -3.33,0 -6.06,2.734 -6.06,6.051 z"
       stroke="#ffffff"
       stroke-opacity="0.6"
       stroke-width="1.50113"
       stroke-linecap="round"
       stroke-linejoin="round"
       id="path84" />
    <path
       d="m 1352.09,415.531 c 0,2.322 1.92,4.233 4.24,4.233 2.33,0 4.24,-1.911 4.24,-4.233 0,-2.321 -1.91,-4.232 -4.24,-4.232 -2.32,0 -4.24,1.911 -4.24,4.232 z"
       fill="#ffffff"
       fill-opacity="0.5"
       id="path86" />
    <path
       d="m 1265.44,273.639 c 0,3.319 2.73,6.051 6.06,6.051 3.33,-10e-4 6.06,-2.732 6.06,-6.051 0,-3.32 -2.73,-6.051 -6.06,-6.051 -3.33,0 -6.06,2.731 -6.06,6.051 z"
       stroke="#ffffff"
       stroke-width="1.50113"
       stroke-linecap="round"
       stroke-linejoin="round"
       id="path88" />
    <path
       d="m 1267.26,273.638 c 0,2.322 1.91,4.234 4.24,4.234 2.33,0 4.24,-1.912 4.24,-4.234 0,-2.322 -1.91,-4.233 -4.24,-4.233 -2.33,0 -4.24,1.911 -4.24,4.233 z"
       fill="#ffffff"
       id="path90" />
    <path
       d="m 1515.08,347.809 c 0,3.322 2.74,6.051 6.07,6.051 3.32,0 6.06,-2.729 6.06,-6.051 0,-3.317 -2.74,-6.05 -6.06,-6.05 -3.33,0 -6.07,2.733 -6.07,6.05 z"
       stroke="#ffffff"
       stroke-width="1.50113"
       stroke-linecap="round"
       stroke-linejoin="round"
       id="path92" />
    <path
       d="m 1516.9,347.81 c 0,2.322 1.92,4.232 4.25,4.232 2.32,0 4.24,-1.91 4.24,-4.232 0,-2.322 -1.92,-4.233 -4.24,-4.233 -2.33,0 -4.25,1.911 -4.25,4.233 z"
       fill="#ffffff"
       id="path94" />
    <path
       d="m 1746.45,434.477 c 0,2.104 1.73,3.834 3.84,3.834 2.11,0 3.84,-1.73 3.84,-3.834 0,-2.104 -1.73,-3.833 -3.84,-3.833 -2.11,0 -3.84,1.729 -3.84,3.833 z"
       stroke="#ffffff"
       stroke-opacity="0.5"
       stroke-width="2.99823"
       stroke-linecap="round"
       stroke-linejoin="round"
       id="path96" />
    <path
       d="m 1748.38,434.477 c 0,1.048 0.86,1.907 1.91,1.907 1.05,0 1.91,-0.859 1.91,-1.907 0,-1.048 -0.86,-1.907 -1.91,-1.907 -1.05,0 -1.91,0.859 -1.91,1.907 z"
       fill="#ffffff"
       fill-opacity="0.5"
       id="path98" />
    <path
       d="m 1843.8,326.445 c 0,2.104 1.73,3.833 3.84,3.833 2.11,0 3.84,-1.729 3.84,-3.833 0,-2.103 -1.73,-3.834 -3.84,-3.834 -2.11,0 -3.84,1.731 -3.84,3.834 z"
       stroke="#ffffff"
       stroke-opacity="0.5"
       stroke-width="2.99823"
       stroke-linecap="round"
       stroke-linejoin="round"
       id="path100" />
    <path
       d="m 1845.73,326.445 c 0,1.048 0.86,1.907 1.91,1.907 1.05,0 1.91,-0.859 1.91,-1.907 0,-1.046 -0.86,-1.906 -1.91,-1.906 -1.05,0 -1.91,0.86 -1.91,1.906 z"
       fill="#ffffff"
       fill-opacity="0.5"
       id="path102" />
    <path
       d="m 1914.09,405.454 c 0,2.104 1.73,3.833 3.84,3.833 2.11,0 3.84,-1.729 3.84,-3.833 0,-2.105 -1.73,-3.834 -3.84,-3.834 -2.11,0 -3.84,1.729 -3.84,3.834 z"
       stroke="#ffffff"
       stroke-width="2.99823"
       stroke-linecap="round"
       stroke-linejoin="round"
       id="path104" />
    <path
       d="m 1916.02,405.454 c 0,1.048 0.86,1.906 1.91,1.906 1.05,0 1.91,-0.858 1.91,-1.906 0,-1.049 -0.86,-1.907 -1.91,-1.907 -1.05,0 -1.91,0.858 -1.91,1.907 z"
       fill="#ffffff"
       id="path106" />
    <path
       d="m 1672.52,322.414 c 0,2.103 1.74,3.834 3.85,3.834 2.1,0 3.84,-1.731 3.84,-3.834 0,-2.103 -1.74,-3.833 -3.84,-3.833 -2.11,0 -3.85,1.73 -3.85,3.833 z"
       stroke="#ffffff"
       stroke-width="2.99823"
       stroke-linecap="round"
       stroke-linejoin="round"
       id="path108" />
    <path
       d="m 1674.46,322.414 c 0,1.046 0.86,1.907 1.91,1.907 1.05,0 1.91,-0.861 1.91,-1.907 0,-1.046 -0.86,-1.907 -1.91,-1.907 -1.05,0 -1.91,0.861 -1.91,1.907 z"
       fill="#ffffff"
       id="path110" />
    <path
       d="m 1501.25,422.787 c 0,2.104 1.73,3.834 3.84,3.834 2.11,0 3.84,-1.73 3.84,-3.834 0,-2.104 -1.73,-3.833 -3.84,-3.833 -2.11,0 -3.84,1.729 -3.84,3.833 z"
       stroke="#ffffff"
       stroke-opacity="0.5"
       stroke-width="2.99823"
       stroke-linecap="round"
       stroke-linejoin="round"
       id="path112" />
    <path
       d="m 1503.18,422.787 c 0,1.048 0.86,1.907 1.91,1.907 1.05,0 1.91,-0.859 1.91,-1.907 0,-1.048 -0.86,-1.907 -1.91,-1.907 -1.05,0 -1.91,0.859 -1.91,1.907 z"
       fill="#ffffff"
       fill-opacity="0.5"
       id="path114" />
    <path
       d="m 1411.97,271.22 c 0,2.103 1.74,3.834 3.84,3.834 2.11,0 3.85,-1.731 3.85,-3.834 0,-2.103 -1.74,-3.834 -3.85,-3.834 -2.1,0 -3.84,1.731 -3.84,3.834 z"
       stroke="#ffffff"
       stroke-opacity="0.5"
       stroke-width="2.99823"
       stroke-linecap="round"
       stroke-linejoin="round"
       id="path116" />
    <path
       d="m 1413.9,271.22 c 0,1.046 0.87,1.906 1.91,1.906 1.05,0 1.91,-0.86 1.91,-1.906 0,-1.046 -0.86,-1.907 -1.91,-1.907 -1.04,0 -1.91,0.861 -1.91,1.907 z"
       fill="#ffffff"
       fill-opacity="0.5"
       id="path118" />
    <path
       d="m 1229.39,405.857 c 0,2.104 1.73,3.834 3.84,3.834 2.11,0 3.84,-1.73 3.84,-3.834 0,-2.104 -1.73,-3.834 -3.84,-3.834 -2.11,0 -3.84,1.73 -3.84,3.834 z"
       stroke="#ffffff"
       stroke-opacity="0.52"
       stroke-width="2.99823"
       stroke-linecap="round"
       stroke-linejoin="round"
       id="path120" />
    <path
       d="m 1231.32,405.857 c 0,1.048 0.86,1.907 1.91,1.907 1.05,0 1.91,-0.859 1.91,-1.907 0,-1.048 -0.86,-1.907 -1.91,-1.907 -1.05,0 -1.91,0.859 -1.91,1.907 z"
       fill="#ffffff"
       fill-opacity="0.52"
       id="path122" />
    <path
       d="m 1691.14,394.84 c 0,4.668 3.85,8.51 8.53,8.51 4.68,0 8.53,-3.842 8.53,-8.51 0,-4.668 -3.85,-8.509 -8.53,-8.509 -4.68,0 -8.53,3.841 -8.53,8.509 z"
       fill="#ffffff"
       fill-opacity="0.38"
       id="path124" />
    <path
       d="m 1318.1,330.992 c 0,4.668 3.85,8.51 8.52,8.51 4.68,0 8.53,-3.842 8.53,-8.51 0,-4.667 -3.85,-8.509 -8.53,-8.509 -4.67,0 -8.52,3.842 -8.52,8.509 z"
       fill="#ffffff"
       fill-opacity="0.58"
       id="path126" />
    <path
       d="m 1713.99,203.295 c 0,4.668 3.85,8.509 8.53,8.509 4.68,0 8.53,-3.841 8.53,-8.509 0,-4.668 -3.85,-8.509 -8.53,-8.509 -4.68,0 -8.53,3.841 -8.53,8.509 z"
       fill="#ffffff"
       fill-opacity="0.38"
       id="path128" />
    <path
       d="m 1891.66,292.227 c 0,4.668 3.85,8.509 8.53,8.509 4.68,0 8.53,-3.841 8.53,-8.509 0,-4.668 -3.85,-8.509 -8.53,-8.509 -4.68,0 -8.53,3.841 -8.53,8.509 z"
       fill="#ffffff"
       id="path130" />
  </g>
  <defs
     id="defs148" />
</svg>
