<?xml version="1.0" encoding="UTF-8" standalone="no"?>
<svg
   width="1920"
   height="439"
   viewBox="0 0 1920 439"
   fill="none"
   version="1.1"
   id="svg150"
   sodipodi:docname="Layer-1.svg"
   inkscape:version="1.2.2 (b0a8486541, 2022-12-01)"
   xmlns:inkscape="http://www.inkscape.org/namespaces/inkscape"
   xmlns:sodipodi="http://sodipodi.sourceforge.net/DTD/sodipodi-0.dtd"
   xmlns="http://www.w3.org/2000/svg"
   xmlns:svg="http://www.w3.org/2000/svg">
  <sodipodi:namedview
     id="namedview152"
     pagecolor="#ffffff"
     bordercolor="#000000"
     borderopacity="0.25"
     inkscape:showpageshadow="2"
     inkscape:pageopacity="0.0"
     inkscape:pagecheckerboard="0"
     inkscape:deskcolor="#d1d1d1"
     showgrid="false"
     inkscape:zoom="1.6290326"
     inkscape:cx="430.93061"
     inkscape:cy="170.96036"
     inkscape:window-width="2560"
     inkscape:window-height="1515"
     inkscape:window-x="0"
     inkscape:window-y="48"
     inkscape:window-maximized="1"
     inkscape:current-layer="svg150" />
  <path
     d="M 1920,0 H 0 v 439 h 1920 z"
     fill="url(#paint0_radial_522_4524)"
     id="path2"
     style="display:inline"
     inkscape:label="gradientRadial" />
  <g
     opacity="0.24"
     id="g64"
     inkscape:label="dotsTop"
     transform="translate(8,10)">
    <path
       d="M 702.19,27.8797 855.979,39.9748 M 702.19,27.8797 739.301,133.571 M 702.19,27.8797 627.882,208.299 M 702.19,27.8797 496.298,112.546 M 855.979,39.9748 808.164,205.275 M 855.979,39.9748 739.301,133.571 m 68.863,71.704 -68.863,-71.704 m 68.863,71.704 -180.282,3.024 M 739.301,133.571 627.882,208.299 M 739.301,133.571 516.357,18.8083 M 627.882,208.299 496.298,112.546 M 627.882,208.299 516.357,18.8083 M 627.882,208.299 426.658,233.497 m 69.64,-120.951 20.059,-93.7377 M 496.298,112.546 366.101,0.665549 M 496.298,112.546 426.658,233.497 m 69.64,-120.951 -193.907,31.75 M 516.357,18.8083 302.391,144.296 M 366.101,0.665549 426.658,233.497 M 366.101,0.665549 210.042,4.1933 M 366.101,0.665549 273.278,53.7482 M 366.101,0.665549 302.391,144.296 m 0,0 -57.66,148.923 m 57.66,-148.923 -111.904,-35.782 m 111.904,35.782 124.267,89.201 M 302.391,144.296 273.278,53.7482 M 302.391,144.296 210.042,4.1933 M 244.731,293.219 88.4242,139.256 M 244.731,293.219 22.7808,182.035 M 244.731,293.219 190.487,108.514 M 88.4242,139.256 210.042,4.1933 M 88.4242,139.256 0.617188,40.4788 M 88.4242,139.256 22.7808,182.035 m 0,0 L 78.4576,5.7052 190.487,108.514 M 22.7808,182.035 0.617188,40.4788 M 190.487,108.514 210.042,4.1933 M 190.487,108.514 273.278,53.7482 M 190.487,108.514 0.617188,40.4788 M 273.278,53.7482 210.042,4.1933"
       stroke="#ffffff"
       stroke-opacity="0.6"
       stroke-width="0.499258"
       id="path4" />
    <path
       d="m 86.0318,5.70501 c 0,-4.15267 -3.4213,-7.56452 -7.5745,-7.56452 -4.1532,0 -7.5745,3.41185 -7.5745,7.56452 0,4.14763 3.4213,7.56449 7.5745,7.56449 4.1532,0 7.5745,-3.41686 7.5745,-7.56449 z"
       stroke="#ffffff"
       stroke-width="1.49778"
       stroke-linecap="round"
       stroke-linejoin="round"
       id="path6" />
    <path
       d="m 83.7556,5.70544 c 0,-2.90284 -2.392,-5.291635 -5.2987,-5.291635 -2.9067,0 -5.2987,2.388795 -5.2987,5.291635 0,2.90284 2.392,5.29166 5.2987,5.29166 2.9067,0 5.2987,-2.38882 5.2987,-5.29166 z"
       fill="#ffffff"
       id="path8" />
    <path
       d="m 198.061,108.514 c 0,-4.153 -3.416,-7.564 -7.574,-7.564 -4.154,0 -7.575,3.411 -7.575,7.564 0,4.148 3.421,7.565 7.575,7.565 4.158,0 7.574,-3.417 7.574,-7.565 z"
       stroke="#ffffff"
       stroke-opacity="0.5"
       stroke-width="1.49778"
       stroke-linecap="round"
       stroke-linejoin="round"
       id="path10" />
    <path
       d="m 195.787,108.514 c 0,-2.903 -2.392,-5.292 -5.299,-5.292 -2.907,0 -5.299,2.389 -5.299,5.292 0,2.903 2.392,5.292 5.299,5.292 2.907,0 5.299,-2.389 5.299,-5.292 z"
       fill="#ffffff"
       fill-opacity="0.5"
       id="path12" />
    <path
       d="m 373.677,0.665461 c 0,-4.152671 -3.417,-7.564521 -7.575,-7.564521 -4.158,0 -7.575,3.41185 -7.575,7.564521 0,4.147629 3.417,7.564519 7.575,7.564519 4.158,0 7.575,-3.41689 7.575,-7.564519 z"
       stroke="#ffffff"
       stroke-opacity="0.5"
       stroke-width="1.49778"
       stroke-linecap="round"
       stroke-linejoin="round"
       id="path14" />
    <path
       d="m 371.4,0.665399 c 0,-2.902839 -2.392,-5.291629 -5.299,-5.291629 -2.906,0 -5.298,2.38879 -5.298,5.291629 0,2.902841 2.392,5.291631 5.298,5.291631 2.907,0 5.299,-2.38879 5.299,-5.291631 z"
       fill="#ffffff"
       fill-opacity="0.5"
       id="path16" />
    <path
       d="m 434.233,233.497 c 0,-4.15 -3.416,-7.565 -7.574,-7.565 -4.159,0.001 -7.575,3.415 -7.575,7.565 0,4.15 3.416,7.565 7.575,7.565 4.158,0 7.574,-3.415 7.574,-7.565 z"
       stroke="#ffffff"
       stroke-width="1.49778"
       stroke-linecap="round"
       stroke-linejoin="round"
       id="path18" />
    <path
       d="m 431.957,233.497 c 0,-2.903 -2.392,-5.292 -5.299,-5.292 -2.907,0 -5.299,2.389 -5.299,5.292 0,2.904 2.392,5.293 5.299,5.293 2.907,0 5.299,-2.389 5.299,-5.293 z"
       fill="#ffffff"
       id="path20" />
    <path
       d="m 709.764,27.8798 c 0,-4.1527 -3.416,-7.5645 -7.574,-7.5645 -4.158,0 -7.575,3.4118 -7.575,7.5645 0,4.1476 3.417,7.5645 7.575,7.5645 4.158,0 7.574,-3.4169 7.574,-7.5645 z"
       stroke="#ffffff"
       stroke-opacity="0.6"
       stroke-width="1.49778"
       stroke-linecap="round"
       stroke-linejoin="round"
       id="path22" />
    <path
       d="m 707.488,27.8798 c 0,-2.9029 -2.392,-5.2917 -5.299,-5.2917 -2.906,0 -5.298,2.3888 -5.298,5.2917 0,2.9028 2.392,5.2916 5.298,5.2916 2.907,0 5.299,-2.3888 5.299,-5.2916 z"
       fill="#ffffff"
       fill-opacity="0.5"
       id="path24" />
    <path
       d="m 503.872,112.546 c 0,-4.153 -3.417,-7.565 -7.575,-7.565 -4.158,0 -7.574,3.412 -7.574,7.565 0,4.147 3.416,7.564 7.574,7.564 4.158,0 7.575,-3.417 7.575,-7.564 z"
       stroke="#ffffff"
       stroke-width="1.49778"
       stroke-linecap="round"
       stroke-linejoin="round"
       id="path26" />
    <path
       d="m 501.597,112.546 c 0,-2.903 -2.392,-5.292 -5.298,-5.292 -2.907,0 -5.299,2.389 -5.299,5.292 0,2.903 2.392,5.291 5.299,5.291 2.906,0 5.298,-2.388 5.298,-5.291 z"
       fill="#ffffff"
       id="path28" />
    <path
       d="m 214.84,4.19313 c 0,-2.6307 -2.164,-4.792715 -4.799,-4.792715 -2.634,0 -4.799,2.162015 -4.799,4.792715 0,2.63069 2.165,4.79271 4.799,4.79271 2.635,0 4.799,-2.16202 4.799,-4.79271 z"
       stroke="#ffffff"
       stroke-opacity="0.5"
       stroke-width="3.00059"
       stroke-linecap="round"
       stroke-linejoin="round"
       id="path30" />
    <path
       d="m 212.43,4.1934 c 0,-1.31031 -1.08,-2.38374 -2.387,-2.38374 -1.312,0 -2.387,1.07343 -2.387,2.38374 0,1.31031 1.075,2.38375 2.387,2.38375 1.307,0 2.387,-1.07344 2.387,-2.38375 z"
       fill="#ffffff"
       fill-opacity="0.5"
       id="path32" />
    <path
       d="m 93.223,139.256 c 0,-2.631 -2.1648,-4.793 -4.799,-4.793 -2.6342,0 -4.799,2.162 -4.799,4.793 0,2.629 2.1648,4.793 4.799,4.793 2.6342,0 4.799,-2.164 4.799,-4.793 z"
       stroke="#ffffff"
       stroke-opacity="0.5"
       stroke-width="3.00059"
       stroke-linecap="round"
       stroke-linejoin="round"
       id="path34" />
    <path
       d="m 90.811,139.256 c 0,-1.31 -1.0749,-2.384 -2.387,-2.384 -1.312,0 -2.3869,1.074 -2.3869,2.384 0,1.308 1.0749,2.384 2.3869,2.384 1.3121,0 2.387,-1.076 2.387,-2.384 z"
       fill="#ffffff"
       fill-opacity="0.5"
       id="path36" />
    <path
       d="m 5.41634,40.4788 c 0,-2.6307 -2.16478,-4.7927 -4.798991,-4.7927 -2.634209,0 -4.798989,2.162 -4.798989,4.7927 0,2.6307 2.16478,4.7927 4.798989,4.7927 2.634211,0 4.798991,-2.162 4.798991,-4.7927 z"
       stroke="#ffffff"
       stroke-width="3.00059"
       stroke-linecap="round"
       stroke-linejoin="round"
       id="path38" />
    <path
       d="m 3.00432,40.4788 c 0,-1.3103 -1.07486,-2.3837 -2.386923,-2.3837 -1.312059,0 -2.386927,1.0734 -2.386927,2.3837 0,1.3103 1.074868,2.3837 2.386927,2.3837 1.312063,0 2.386923,-1.0734 2.386923,-2.3837 z"
       fill="#ffffff"
       id="path40" />
    <path
       d="m 307.19,144.296 c 0,-2.63 -2.165,-4.794 -4.799,-4.794 -2.634,0 -4.799,2.164 -4.799,4.794 0,2.629 2.165,4.792 4.799,4.792 2.634,0 4.799,-2.163 4.799,-4.792 z"
       stroke="#ffffff"
       stroke-width="3.00059"
       stroke-linecap="round"
       stroke-linejoin="round"
       id="path42" />
    <path
       d="m 304.778,144.295 c 0,-1.307 -1.08,-2.383 -2.387,-2.383 -1.312,0 -2.387,1.076 -2.387,2.383 0,1.308 1.075,2.384 2.387,2.384 1.307,0 2.387,-1.076 2.387,-2.384 z"
       fill="#ffffff"
       id="path44" />
    <path
       d="m 521.157,18.8084 c 0,-2.6307 -2.165,-4.7928 -4.799,-4.7928 -2.635,0 -4.799,2.1621 -4.799,4.7928 0,2.6307 2.164,4.7927 4.799,4.7927 2.634,0 4.799,-2.162 4.799,-4.7927 z"
       stroke="#ffffff"
       stroke-opacity="0.5"
       stroke-width="3.00059"
       stroke-linecap="round"
       stroke-linejoin="round"
       id="path46" />
    <path
       d="m 518.745,18.8081 c 0,-1.3103 -1.08,-2.3837 -2.387,-2.3837 -1.312,0 -2.387,1.0734 -2.387,2.3837 0,1.3104 1.075,2.3838 2.387,2.3838 1.307,0 2.387,-1.0734 2.387,-2.3838 z"
       fill="#ffffff"
       fill-opacity="0.5"
       id="path48" />
    <path
       d="m 632.682,208.299 c 0,-2.629 -2.165,-4.793 -4.799,-4.793 -2.634,0 -4.799,2.164 -4.799,4.793 0,2.629 2.165,4.793 4.799,4.793 2.634,0 4.799,-2.164 4.799,-4.793 z"
       stroke="#ffffff"
       stroke-opacity="0.5"
       stroke-width="3.00059"
       stroke-linecap="round"
       stroke-linejoin="round"
       id="path50" />
    <path
       d="m 630.27,208.299 c 0,-1.308 -1.08,-2.384 -2.387,-2.384 -1.312,0 -2.387,1.076 -2.387,2.384 0,1.308 1.075,2.384 2.387,2.384 1.307,0 2.387,-1.076 2.387,-2.384 z"
       fill="#ffffff"
       fill-opacity="0.5"
       id="path52" />
    <path
       d="m 860.778,39.9749 c 0,-2.6307 -2.165,-4.7927 -4.799,-4.7927 -2.635,0 -4.799,2.162 -4.799,4.7927 0,2.6307 2.164,4.7927 4.799,4.7927 2.634,0 4.799,-2.162 4.799,-4.7927 z"
       stroke="#ffffff"
       stroke-opacity="0.52"
       stroke-width="3.00059"
       stroke-linecap="round"
       stroke-linejoin="round"
       id="path54" />
    <path
       d="m 858.366,39.9747 c 0,-1.3104 -1.08,-2.3838 -2.387,-2.3838 -1.312,0 -2.387,1.0734 -2.387,2.3838 0,1.3103 1.075,2.3837 2.387,2.3837 1.307,0 2.387,-1.0734 2.387,-2.3837 z"
       fill="#ffffff"
       fill-opacity="0.52"
       id="path56" />
    <path
       d="m 283.931,53.748 c 0,-5.8359 -4.809,-10.6387 -10.653,-10.6387 -5.844,0 -10.653,4.8028 -10.653,10.6387 0,5.8359 4.809,10.6387 10.653,10.6387 5.844,0 10.653,-4.8028 10.653,-10.6387 z"
       fill="#ffffff"
       fill-opacity="0.38"
       id="path58" />
    <path
       d="m 255.384,293.219 c 0,-5.836 -4.809,-10.638 -10.653,-10.638 -5.844,0 -10.653,4.802 -10.653,10.638 0,5.836 4.809,10.638 10.653,10.638 5.844,0 10.653,-4.802 10.653,-10.638 z"
       fill="#ffffff"
       fill-opacity="0.38"
       id="path60" />
    <path
       d="m 33.4346,182.036 c 0,-5.836 -4.8091,-10.639 -10.6529,-10.639 -5.8437,0 -10.6528,4.803 -10.6528,10.639 0,5.836 4.8091,10.637 10.6528,10.637 5.8438,0 10.6529,-4.801 10.6529,-10.637 z"
       fill="#ffffff"
       id="path62" />
  </g>
  <g
     opacity="0.24"
     id="g132"
     inkscape:label="dotsBottom">
    <path
       d="M1356.33 415.531L1233.23 405.857M1356.33 415.531L1326.62 330.992M1356.33 415.531L1415.81 271.22M1356.33 415.531L1521.15 347.81M1233.23 405.857L1271.5 273.638M1233.23 405.857L1326.62 330.992M1271.5 273.638L1326.62 330.992M1271.5 273.638L1415.81 271.22M1326.62 330.992L1415.81 271.22M1326.62 330.992L1505.09 422.787M1415.81 271.22L1521.15 347.81M1415.81 271.22L1505.09 422.787M1415.81 271.22L1576.89 251.065M1521.15 347.81L1505.09 422.787M1521.15 347.81L1625.37 437.299M1521.15 347.81L1576.89 251.065M1521.15 347.81L1676.37 322.414M1505.09 422.787L1676.37 322.414M1625.37 437.299L1576.89 251.065M1625.37 437.299L1750.29 434.477M1625.37 437.299L1699.67 394.84M1625.37 437.299L1676.37 322.414M1676.37 322.414L1722.52 203.295M1676.37 322.414L1765.94 351.035M1676.37 322.414L1576.89 251.065M1676.37 322.414L1699.67 394.84M1676.37 322.414L1750.29 434.477M1722.52 203.295L1847.64 326.445M1722.52 203.295L1900.19 292.227M1722.52 203.295L1765.94 351.035M1847.64 326.445L1750.29 434.477M1847.64 326.445L1917.93 405.454M1847.64 326.445L1900.19 292.227M1900.19 292.227L1855.62 433.268L1765.94 351.035M1900.19 292.227L1917.93 405.454M1765.94 351.035L1750.29 434.477M1765.94 351.035L1699.67 394.84M1765.94 351.035L1917.93 405.454M1699.67 394.84L1750.29 434.477"
       stroke="white"
       stroke-opacity="0.6"
       stroke-width="0.500378"
       id="path66" />
    <path
       d="M1849.56 433.268C1849.56 436.589 1852.3 439.319 1855.62 439.319C1858.95 439.319 1861.69 436.589 1861.69 433.268C1861.69 429.95 1858.95 427.217 1855.62 427.217C1852.3 427.217 1849.56 429.95 1849.56 433.268Z"
       stroke="white"
       stroke-width="1.50113"
       stroke-linecap="round"
       stroke-linejoin="round"
       id="path68" />
    <path
       d="M1851.38 433.268C1851.38 435.59 1853.29 437.5 1855.62 437.5C1857.95 437.5 1859.86 435.59 1859.86 433.268C1859.86 430.946 1857.95 429.035 1855.62 429.035C1853.29 429.035 1851.38 430.946 1851.38 433.268Z"
       fill="white"
       id="path70" />
    <path
       d="M1759.88 351.034C1759.88 354.356 1762.61 357.085 1765.94 357.085C1769.27 357.085 1772.01 354.356 1772.01 351.034C1772.01 347.717 1769.27 344.984 1765.94 344.984C1762.61 344.984 1759.88 347.717 1759.88 351.034Z"
       stroke="white"
       stroke-opacity="0.5"
       stroke-width="1.50113"
       stroke-linecap="round"
       stroke-linejoin="round"
       id="path72" />
    <path
       d="M1761.7 351.034C1761.7 353.356 1763.62 355.267 1765.94 355.267C1768.27 355.267 1770.19 353.356 1770.19 351.034C1770.19 348.712 1768.27 346.802 1765.94 346.802C1763.62 346.802 1761.7 348.712 1761.7 351.034Z"
       fill="white"
       fill-opacity="0.5"
       id="path74" />
    <path
       d="M1619.3 437.299C1619.3 440.621 1622.04 443.35 1625.37 443.35C1628.69 443.35 1631.43 440.621 1631.43 437.299C1631.43 433.982 1628.69 431.249 1625.37 431.249C1622.04 431.249 1619.3 433.982 1619.3 437.299Z"
       stroke="white"
       stroke-opacity="0.5"
       stroke-width="1.50113"
       stroke-linecap="round"
       stroke-linejoin="round"
       id="path76" />
    <path
       d="M1621.12 437.299C1621.12 439.621 1623.04 441.532 1625.37 441.532C1627.69 441.532 1629.61 439.621 1629.61 437.299C1629.61 434.977 1627.69 433.066 1625.37 433.066C1623.04 433.066 1621.12 434.977 1621.12 437.299Z"
       fill="white"
       fill-opacity="0.5"
       id="path78" />
    <path
       d="M1570.83 251.064C1570.83 254.384 1573.56 257.115 1576.89 257.115C1580.22 257.115 1582.96 254.384 1582.96 251.064C1582.96 247.745 1580.22 245.014 1576.89 245.014C1573.56 245.014 1570.83 247.745 1570.83 251.064Z"
       stroke="white"
       stroke-width="1.50113"
       stroke-linecap="round"
       stroke-linejoin="round"
       id="path80" />
    <path
       d="M1572.65 251.064C1572.65 253.387 1574.56 255.298 1576.89 255.298C1579.22 255.298 1581.13 253.387 1581.13 251.064C1581.13 248.742 1579.22 246.831 1576.89 246.831C1574.56 246.831 1572.65 248.742 1572.65 251.064Z"
       fill="white"
       id="path82" />
    <path
       d="M1350.27 415.531C1350.27 418.853 1353 421.582 1356.33 421.582C1359.66 421.582 1362.39 418.853 1362.39 415.531C1362.39 412.214 1359.66 409.48 1356.33 409.48C1353 409.48 1350.27 412.214 1350.27 415.531Z"
       stroke="white"
       stroke-opacity="0.6"
       stroke-width="1.50113"
       stroke-linecap="round"
       stroke-linejoin="round"
       id="path84" />
    <path
       d="M1352.09 415.531C1352.09 417.853 1354.01 419.764 1356.33 419.764C1358.66 419.764 1360.57 417.853 1360.57 415.531C1360.57 413.21 1358.66 411.299 1356.33 411.299C1354.01 411.299 1352.09 413.21 1352.09 415.531Z"
       fill="white"
       fill-opacity="0.5"
       id="path86" />
    <path
       d="M1265.44 273.639C1265.44 276.958 1268.17 279.69 1271.5 279.69C1274.83 279.689 1277.56 276.958 1277.56 273.639C1277.56 270.319 1274.83 267.588 1271.5 267.588C1268.17 267.588 1265.44 270.319 1265.44 273.639Z"
       stroke="white"
       stroke-width="1.50113"
       stroke-linecap="round"
       stroke-linejoin="round"
       id="path88" />
    <path
       d="M1267.26 273.638C1267.26 275.96 1269.17 277.872 1271.5 277.872C1273.83 277.872 1275.74 275.96 1275.74 273.638C1275.74 271.316 1273.83 269.405 1271.5 269.405C1269.17 269.405 1267.26 271.316 1267.26 273.638Z"
       fill="white"
       id="path90" />
    <path
       d="M1515.08 347.809C1515.08 351.131 1517.82 353.86 1521.15 353.86C1524.47 353.86 1527.21 351.131 1527.21 347.809C1527.21 344.492 1524.47 341.759 1521.15 341.759C1517.82 341.759 1515.08 344.492 1515.08 347.809Z"
       stroke="white"
       stroke-width="1.50113"
       stroke-linecap="round"
       stroke-linejoin="round"
       id="path92" />
    <path
       d="M1516.9 347.81C1516.9 350.132 1518.82 352.042 1521.15 352.042C1523.47 352.042 1525.39 350.132 1525.39 347.81C1525.39 345.488 1523.47 343.577 1521.15 343.577C1518.82 343.577 1516.9 345.488 1516.9 347.81Z"
       fill="white"
       id="path94" />
    <path
       d="M1746.45 434.477C1746.45 436.581 1748.18 438.311 1750.29 438.311C1752.4 438.311 1754.13 436.581 1754.13 434.477C1754.13 432.373 1752.4 430.644 1750.29 430.644C1748.18 430.644 1746.45 432.373 1746.45 434.477Z"
       stroke="white"
       stroke-opacity="0.5"
       stroke-width="2.99823"
       stroke-linecap="round"
       stroke-linejoin="round"
       id="path96" />
    <path
       d="M1748.38 434.477C1748.38 435.525 1749.24 436.384 1750.29 436.384C1751.34 436.384 1752.2 435.525 1752.2 434.477C1752.2 433.429 1751.34 432.57 1750.29 432.57C1749.24 432.57 1748.38 433.429 1748.38 434.477Z"
       fill="white"
       fill-opacity="0.5"
       id="path98" />
    <path
       d="M1843.8 326.445C1843.8 328.549 1845.53 330.278 1847.64 330.278C1849.75 330.278 1851.48 328.549 1851.48 326.445C1851.48 324.342 1849.75 322.611 1847.64 322.611C1845.53 322.611 1843.8 324.342 1843.8 326.445Z"
       stroke="white"
       stroke-opacity="0.5"
       stroke-width="2.99823"
       stroke-linecap="round"
       stroke-linejoin="round"
       id="path100" />
    <path
       d="M1845.73 326.445C1845.73 327.493 1846.59 328.352 1847.64 328.352C1848.69 328.352 1849.55 327.493 1849.55 326.445C1849.55 325.399 1848.69 324.539 1847.64 324.539C1846.59 324.539 1845.73 325.399 1845.73 326.445Z"
       fill="white"
       fill-opacity="0.5"
       id="path102" />
    <path
       d="M1914.09 405.454C1914.09 407.558 1915.82 409.287 1917.93 409.287C1920.04 409.287 1921.77 407.558 1921.77 405.454C1921.77 403.349 1920.04 401.62 1917.93 401.62C1915.82 401.62 1914.09 403.349 1914.09 405.454Z"
       stroke="white"
       stroke-width="2.99823"
       stroke-linecap="round"
       stroke-linejoin="round"
       id="path104" />
    <path
       d="M1916.02 405.454C1916.02 406.502 1916.88 407.36 1917.93 407.36C1918.98 407.36 1919.84 406.502 1919.84 405.454C1919.84 404.405 1918.98 403.547 1917.93 403.547C1916.88 403.547 1916.02 404.405 1916.02 405.454Z"
       fill="white"
       id="path106" />
    <path
       d="M1672.52 322.414C1672.52 324.517 1674.26 326.248 1676.37 326.248C1678.47 326.248 1680.21 324.517 1680.21 322.414C1680.21 320.311 1678.47 318.581 1676.37 318.581C1674.26 318.581 1672.52 320.311 1672.52 322.414Z"
       stroke="white"
       stroke-width="2.99823"
       stroke-linecap="round"
       stroke-linejoin="round"
       id="path108" />
    <path
       d="M1674.46 322.414C1674.46 323.46 1675.32 324.321 1676.37 324.321C1677.42 324.321 1678.28 323.46 1678.28 322.414C1678.28 321.368 1677.42 320.507 1676.37 320.507C1675.32 320.507 1674.46 321.368 1674.46 322.414Z"
       fill="white"
       id="path110" />
    <path
       d="M1501.25 422.787C1501.25 424.891 1502.98 426.621 1505.09 426.621C1507.2 426.621 1508.93 424.891 1508.93 422.787C1508.93 420.683 1507.2 418.954 1505.09 418.954C1502.98 418.954 1501.25 420.683 1501.25 422.787Z"
       stroke="white"
       stroke-opacity="0.5"
       stroke-width="2.99823"
       stroke-linecap="round"
       stroke-linejoin="round"
       id="path112" />
    <path
       d="M1503.18 422.787C1503.18 423.835 1504.04 424.694 1505.09 424.694C1506.14 424.694 1507 423.835 1507 422.787C1507 421.739 1506.14 420.88 1505.09 420.88C1504.04 420.88 1503.18 421.739 1503.18 422.787Z"
       fill="white"
       fill-opacity="0.5"
       id="path114" />
    <path
       d="M1411.97 271.22C1411.97 273.323 1413.71 275.054 1415.81 275.054C1417.92 275.054 1419.66 273.323 1419.66 271.22C1419.66 269.117 1417.92 267.386 1415.81 267.386C1413.71 267.386 1411.97 269.117 1411.97 271.22Z"
       stroke="white"
       stroke-opacity="0.5"
       stroke-width="2.99823"
       stroke-linecap="round"
       stroke-linejoin="round"
       id="path116" />
    <path
       d="M1413.9 271.22C1413.9 272.266 1414.77 273.126 1415.81 273.126C1416.86 273.126 1417.72 272.266 1417.72 271.22C1417.72 270.174 1416.86 269.313 1415.81 269.313C1414.77 269.313 1413.9 270.174 1413.9 271.22Z"
       fill="white"
       fill-opacity="0.5"
       id="path118" />
    <path
       d="M1229.39 405.857C1229.39 407.961 1231.12 409.691 1233.23 409.691C1235.34 409.691 1237.07 407.961 1237.07 405.857C1237.07 403.753 1235.34 402.023 1233.23 402.023C1231.12 402.023 1229.39 403.753 1229.39 405.857Z"
       stroke="white"
       stroke-opacity="0.52"
       stroke-width="2.99823"
       stroke-linecap="round"
       stroke-linejoin="round"
       id="path120" />
    <path
       d="M1231.32 405.857C1231.32 406.905 1232.18 407.764 1233.23 407.764C1234.28 407.764 1235.14 406.905 1235.14 405.857C1235.14 404.809 1234.28 403.95 1233.23 403.95C1232.18 403.95 1231.32 404.809 1231.32 405.857Z"
       fill="white"
       fill-opacity="0.52"
       id="path122" />
    <path
       d="M1691.14 394.84C1691.14 399.508 1694.99 403.35 1699.67 403.35C1704.35 403.35 1708.2 399.508 1708.2 394.84C1708.2 390.172 1704.35 386.331 1699.67 386.331C1694.99 386.331 1691.14 390.172 1691.14 394.84Z"
       fill="white"
       fill-opacity="0.38"
       id="path124" />
    <path
       d="M1318.1 330.992C1318.1 335.66 1321.95 339.502 1326.62 339.502C1331.3 339.502 1335.15 335.66 1335.15 330.992C1335.15 326.325 1331.3 322.483 1326.62 322.483C1321.95 322.483 1318.1 326.325 1318.1 330.992Z"
       fill="white"
       fill-opacity="0.58"
       id="path126" />
    <path
       d="M1713.99 203.295C1713.99 207.963 1717.84 211.804 1722.52 211.804C1727.2 211.804 1731.05 207.963 1731.05 203.295C1731.05 198.627 1727.2 194.786 1722.52 194.786C1717.84 194.786 1713.99 198.627 1713.99 203.295Z"
       fill="white"
       fill-opacity="0.38"
       id="path128" />
    <path
       d="M1891.66 292.227C1891.66 296.895 1895.51 300.736 1900.19 300.736C1904.87 300.736 1908.72 296.895 1908.72 292.227C1908.72 287.559 1904.87 283.718 1900.19 283.718C1895.51 283.718 1891.66 287.559 1891.66 292.227Z"
       fill="white"
       id="path130" />
  </g>
  <path
     d="M 1920,0 H 0 v 439 h 1920 z"
     fill="url(#paint1_linear_522_4524)"
     fill-opacity="0.5"
     id="path134"
     style="display:none"
     inkscape:label="gradientTransversal" />
  <defs
     id="defs148">
    <radialGradient
       id="paint0_radial_522_4524"
       cx="0"
       cy="0"
       r="1"
       gradientUnits="userSpaceOnUse"
       gradientTransform="translate(960 219.5) scale(960 353.601)">
      <stop
         stop-color="#521671"
         id="stop136" />
      <stop
         offset="0.67"
         stop-color="#33185C"
         id="stop138" />
      <stop
         offset="1"
         stop-color="#200B43"
         id="stop140" />
    </radialGradient>
    <linearGradient
       id="paint1_linear_522_4524"
       x1="520.371"
       y1="756.079"
       x2="1013.83"
       y2="-245.144"
       gradientUnits="userSpaceOnUse">
      <stop
         stop-color="#0A0A0A"
         stop-opacity="0.24"
         id="stop143" />
      <stop
         offset="1"
         stop-color="white"
         stop-opacity="0.24"
         id="stop145" />
    </linearGradient>
  </defs>
</svg>
