<?xml version="1.0" encoding="UTF-8" standalone="no"?>
<svg
   width="148"
   class="svg-logo"
   height="46"
   fill="#ffffff"
   version="1.1"
   viewBox="0 0 148 46"
   id="svg36"
   sodipodi:docname="gdquest_logo.svg"
   inkscape:version="1.2.2 (b0a8486541, 2022-12-01)"
   xmlns:inkscape="http://www.inkscape.org/namespaces/inkscape"
   xmlns:sodipodi="http://sodipodi.sourceforge.net/DTD/sodipodi-0.dtd"
   xmlns="http://www.w3.org/2000/svg"
   xmlns:svg="http://www.w3.org/2000/svg">
  <sodipodi:namedview
     id="namedview38"
     pagecolor="#ff00ff"
     bordercolor="#000000"
     borderopacity="0.25"
     inkscape:showpageshadow="2"
     inkscape:pageopacity="0"
     inkscape:pagecheckerboard="0"
     inkscape:deskcolor="#d1d1d1"
     showgrid="false"
     inkscape:zoom="4.5384615"
     inkscape:cx="72.050847"
     inkscape:cy="26.110169"
     inkscape:window-width="1443"
     inkscape:window-height="971"
     inkscape:window-x="867"
     inkscape:window-y="1652"
     inkscape:window-maximized="0"
     inkscape:current-layer="svg36" />
  <g
     id="g6736"
     transform="matrix(1.0633788,0,0,1.0633788,-4.2537279,-2.6091518)"
     style="stroke-width:0.940399">
    <path
       id="outline"
       d="M 20.195,2.4548 C 20.0134,2.44833 19.8319,2.46902 19.6564,2.51619 l -2.0722,0.56078 c -7.9854,2.1484 -13.574,9.4403 -13.584,17.73 v 0.0059 0.0119 c 0,9.1051 6.7286,16.794 15.562,18.151 l 0.0217,0.1781 0.2775,2.7875 c 0.0237,0.2402 0.0944,0.4733 0.2081,0.686 0.1136,0.2127 0.2681,0.4009 0.4544,0.5536 0.1864,0.1528 0.401,0.2672 0.6315,0.3366 0.2305,0.0695 0.4724,0.0927 0.7119,0.0682 l 6.3623,-0.6498 1.3615,1.8604 c 0.2178,0.298 0.5203,0.523 0.8678,0.6457 0.3476,0.1228 0.724,0.1374 1.08,0.042 l 2.072,-0.5567 c 5.2272,-1.4052 9.2927,-5.0806 11.57,-9.7269 2.7752,1.7126 6.0054,2.7914 9.5561,2.2698 1.6155,-0.2376 3.1321,-0.7849 4.5869,-1.4071 l 8.572,0.3786 c 0.0125,2e-4 0.025,2e-4 0.0375,0 3.7022,0.0965 7.5117,-0.6472 10.038,-3.0055 2.8627,2.2047 6.4107,3.6003 10.324,3.114 0.2007,-0.0252 0.1897,-0.057 0.3471,-0.0931 l 1.5768,2.0078 c 0.2941,0.3733 0.7215,0.6174 1.1918,0.6808 0.4703,0.0634 0.9467,-0.0589 1.3288,-0.3411 l 4.1611,-3.0751 c 1.2086,0.4836 2.4254,1.0088 3.8478,0.9476 0.613,-0.0267 0.617,-0.1297 0.902,-0.2436 0.179,0.0488 0.365,0.0698 0.551,0.0624 l 9.491,-0.4103 c 0.268,-0.0122 0.531,-0.0836 0.769,-0.2092 0.238,-0.1256 0.446,-0.3023 0.608,-0.5174 0.35,0.1008 0.395,0.2459 0.857,0.2702 1.528,0.0804 2.926,-0.287 4.293,-0.6888 2.851,1.6878 6.071,1.9865 9,1.5013 1.069,-0.177 2.129,-0.6068 3.171,-1.0755 0.903,0.3994 1.815,0.8133 2.84,0.8933 2.107,0.1636 4.144,-0.2923 5.927,-1.1635 l 2.232,-1.0909 c 0.371,-0.1809 0.67,-0.4822 0.849,-0.8551 0.178,-0.3728 0.226,-0.7953 0.135,-1.1987 l -1.238,-5.4573 c 0.298,-0.1345 0.555,-0.3469 0.744,-0.6149 0.189,-0.268 0.302,-0.5818 0.329,-0.9088 l 0.709,-8.5285 c 0.02,-0.2409 -0.008,-0.4834 -0.082,-0.7135 -0.074,-0.2301 -0.192,-0.4433 -0.349,-0.6273 -0.156,-0.184 -0.347,-0.3352 -0.562,-0.445 -0.215,-0.1097 -0.449,-0.1757 -0.689,-0.1943 l -1.925,-0.1515 0.138,-1.6629 c 0.02,-0.2409 -0.008,-0.4833 -0.082,-0.7134 -0.074,-0.2301 -0.192,-0.4433 -0.348,-0.6273 -0.157,-0.184 -0.348,-0.3352 -0.562,-0.445 -0.215,-0.1097 -0.45,-0.1758 -0.69,-0.1944 l -9.417,-0.73068 c -0.483,-0.03732 -0.96,0.11828 -1.328,0.43278 -0.368,0.3145 -0.597,0.7623 -0.636,1.2455 l -0.139,1.6782 -0.092,-0.0079 c -0.262,-0.0198 -0.524,0.017 -0.77,0.1077 -0.246,0.0908 -0.469,0.2334 -0.656,0.4183 -0.407,-0.0648 -0.521,-0.1899 -1.198,-0.0778 -0.977,0.1618 -1.89,0.5896 -2.805,0.9936 -1.609,-1.0657 -3.458,-1.9047 -5.628,-2.019 -1.432,-0.0753 -2.669,0.336 -3.889,0.7276 -0.178,-0.0482 -0.361,-0.0692 -0.545,-0.0624 l -9.347,0.4032 c -0.007,0.0019 -0.014,0.0039 -0.021,0.0059 l -0.129,0.0079 -4.5096,0.1854 c -3.0264,-2.9895 -7.2655,-4.6854 -11.79,-4.1232 -2.7353,0.34002 -5.0763,1.5534 -7.0711,3.1221 -2.6435,-2.0214 -5.7798,-3.1182 -8.4613,-3.1917 L 58.5408,9.30382 c -0.4689,-0.02099 -0.9278,0.13949 -1.282,0.44826 -0.3542,0.30879 -0.5764,0.74219 -0.6207,1.2106 -1.801,-0.3987 -3.6615,-0.634 -5.6005,-0.349 -3.6285,0.5332 -6.5059,2.4968 -8.73,4.958 -2.7219,-3.2244 -6.2802,-5.7788 -10.648,-6.5207 L 31.6379,8.8585 31.3562,6.0659 C 31.3325,5.82582 31.2617,5.5928 31.148,5.38018 31.0343,5.16756 30.8798,4.97953 30.6935,4.82686 30.5071,4.67418 30.2926,4.55987 30.0621,4.49046 29.8316,4.42105 29.5898,4.39792 29.3504,4.42238 L 22.984,5.07631 21.6027,3.20361 C 21.4391,2.98188 21.2276,2.80002 20.9841,2.67156 20.7406,2.54311 20.4714,2.47138 20.1964,2.46172 Z m -0.0612,1.8327 2.0005,2.7118 7.4034,-0.75826 0.4442,4.4443 h 0.0218 c 5.2272,0.3535 9.5438,3.3065 12.314,7.3832 1.9649,-2.8982 5.1144,-5.0773 8.9896,-5.6469 2.404,-0.3531 4.794,0.0543 7.0555,0.8238 l 0.1007,-2.1152 10.825,0.479 c 2.6804,0.0734 6.2146,1.1526 8.5802,3.5202 1.9103,-1.8211 4.3802,-3.1123 7.2258,-3.466 4.3526,-0.5409 8.5252,1.0953 11.127,4.1619 l 5.0413,-0.2128 0.138,-0.008 9.348,-0.4021 v 0.1431 c 1.333,-0.5349 2.749,-0.8907 4.255,-0.8114 2.135,0.1124 3.985,0.9733 5.528,2.1766 1.041,-0.5769 2.177,-0.9854 3.303,-1.1717 0.724,-0.12 1.417,0.1762 2.141,0.1822 l 0.042,-0.6109 1.906,0.1463 0.29,-3.4957 9.417,0.7307 -0.29,3.4997 3.757,0.2948 -0.71,8.5285 -1.531,-0.1208 1.736,7.6587 -2.233,1.0908 c -1.514,0.7398 -3.23,1.1187 -4.984,0.9824 -1.007,-0.0786 -2.047,-0.4443 -3.005,-0.9598 -1.073,0.595 -2.257,0.9634 -3.446,1.1604 -2.608,0.432 -5.372,0.1618 -7.786,-1.272 l -0.509,-0.3019 c -1.433,0.5368 -2.981,0.8245 -4.605,0.7389 -0.911,-0.0481 -1.624,-0.5785 -2.466,-0.8391 l 0.058,1.2955 -9.491,0.4104 -0.022,-0.2477 c -0.491,0.1073 -0.939,0.4074 -1.435,0.4288 -1.4971,0.0646 -2.9222,-0.3758 -4.2172,-1.0592 l -4.7944,3.5428 -2.3187,-2.9472 c -0.4338,0.0984 -0.8164,0.2917 -1.2689,0.348 -4.0018,0.4973 -7.7439,-0.974 -10.358,-3.5735 -1.7576,2.5983 -5.7178,3.5582 -9.7304,3.4537 l -8.8457,-0.3909 c -1.4911,0.6804 -3.0598,1.2036 -4.6607,1.4388 -3.8262,0.5621 -7.4083,-0.6768 -10.085,-2.9401 -1.7883,5.0103 -5.9118,9.0044 -11.249,10.439 l -2.071,0.5577 -1.9792,-2.7077 -7.4034,0.7542 -0.4442,-4.4403 h -0.0218 c -8.6286,-0.5847 -15.392,-7.8257 -15.392,-16.496 v -0.0118 c 0.01977,-7.4671 5.039,-14.028 12.233,-15.962 z"
       style="stroke-width:0.940399" />
    <path
       id="wheels"
       d="m 18.824,7.9399 -1.7524,0.64538 0.2172,2.9073 c -0.6289,0.3459 -1.2169,0.7509 -1.7579,1.2069 l -2.7106,-1.1267 -1.1889,1.4195 1.6325,2.3571 c -0.3753,0.6203 -0.6862,1.2793 -0.9274,1.9689 l -2.8636,0.348 -0.30558,1.8116 2.5816,1.2255 c 0,0.3628 0.0198,0.7293 0.0514,1.0982 0.0375,0.3687 0.0928,0.7315 0.1659,1.0868 l -2.2897,1.6958 0.65908,1.7179 2.8773,-0.2056 c 0.3735,0.6304 0.8093,1.2183 1.3003,1.755 l -1.1328,2.6232 1.4459,1.1649 2.4351,-1.6219 c 0.621,0.3442 1.2789,0.6287 1.9645,0.8481 l 0.3637,2.8933 1.8464,0.2997 1.3171,-2.6718 c 0.3431,-0.0059 0.689,-0.0263 1.0366,-0.0648 l 4e-4,0.0013 5.0377,-0.4851 -0.7178,-7.175 -5.0381,0.4844 0.224,2.233 -8e-4,-7e-4 c -3.1699,0.3052 -5.9914,-1.9683 -6.3028,-5.0781 -0.3111,-3.1095 2.0064,-5.8772 5.176,-6.1827 v -7e-4 l 5.0377,-0.4851 -0.4946,-4.9436 -5.0377,0.48503 c -0.3486,0.0286 -0.6915,0.0739 -1.0295,0.1343 z m 10.943,6.0006 -1.3175,2.6718 c -0.3427,0.0059 -0.6884,0.0265 -1.0364,0.0647 l -5.0381,0.4851 0.4944,4.9428 5.0385,-0.4851 c 0.7537,-0.0726 1.5146,0.0011 2.2392,0.217 0.7247,0.2159 1.3989,0.5697 1.9842,1.0413 0.5852,0.4715 1.0701,1.0516 1.4269,1.707 0.3568,0.6554 0.5785,1.3734 0.6525,2.1128 0.1491,1.4934 -0.3124,2.9837 -1.2832,4.1432 -0.9707,1.1595 -2.3711,1.8931 -3.8932,2.0396 l -5.0381,0.487 0.4946,4.9428 5.0385,-0.4851 c 0.3487,-0.0297 0.6917,-0.0756 1.0287,-0.135 l 1.8236,2.3689 1.7508,-0.6454 -0.2157,-2.9072 c 0.6285,-0.346 1.2163,-0.7509 1.757,-1.2069 l 2.7115,1.1266 1.1879,-1.4194 -1.6317,-2.357 c 0.3753,-0.6204 0.6872,-1.2799 0.9288,-1.9696 l 2.8617,-0.3474 0.3066,-1.8116 -2.5825,-1.2255 c 0.0198,-0.3627 -0.0197,-0.7293 -0.0513,-1.0982 -0.0375,-0.3687 -0.0928,-0.7315 -0.1659,-1.0869 l 2.2899,-1.6957 -0.6591,-1.7185 -2.8764,0.2061 c -0.3737,-0.6303 -0.81,-1.2182 -1.301,-1.7549 l 1.1325,-2.6232 -1.4457,-1.165 -2.4356,1.622 C 33.3222,17.6373 32.6649,17.353 31.9792,17.1335 l -0.3648,-2.8933 z"
       style="stroke-width:0.940399" />
    <path
       id="g"
       d="m 55.849,27.055 c -0.7763,0.4522 -1.5709,0.7864 -2.1554,0.8722 -2.2158,0.3256 -4.1057,-1.0876 -4.4634,-3.378 -0.3505,-2.2433 0.9984,-4.1323 3.1899,-4.4543 1.4123,-0.2075 3.1752,0.234 4.4856,1.1284 l 2.6033,-4.2231 c -2.0698,-1.2901 -5.1226,-1.8561 -7.7766,-1.4661 -5.5763,0.8193 -9.0614,4.979 -8.2976,9.8667 0.7674,4.9115 5.2243,7.9281 10.582,7.1413 2.435,-0.3578 5.436,-1.7166 7.1437,-3.2236 l -1.0663,-6.8242 -4.8457,0.712 z"
       style="stroke-width:0.940399" />
    <path
       d="m 69.124,14.749 -7.7007,-0.3396 -0.7845,16.724 7.4792,0.3299 c 5.8311,0.2572 9.7497,-2.8692 9.9881,-7.9511 0.2383,-5.0818 -3.2986,-8.5126 -8.9821,-8.7635 z m -0.4353,12.437 -2.1405,-0.0945 0.3816,-8.1357 1.8698,0.0824 c 2.2143,0.0977 3.5898,1.7841 3.4734,4.2651 -0.1152,2.4574 -1.5177,3.9734 -3.5844,3.8822 z"
       id="path5"
       style="stroke-width:0.940399" />
    <path
       d="m 85.454,14.782 c -5.1546,0.6405 -8.6356,4.7339 -8.003,9.5188 0.6292,4.7614 5.0713,7.9408 10.226,7.3005 1.0253,-0.1274 1.9808,-0.3991 2.8539,-0.7824 l 1.7013,2.1654 2.5518,-1.8846 -1.6002,-2.0366 c 1.8673,-1.7845 2.8507,-4.3061 2.4911,-7.027 -0.6293,-4.7614 -5.0666,-7.8949 -10.221,-7.2541 z m 0.425,2.8366 c 3.1268,-0.3886 6.0357,1.7066 6.4488,4.8334 0.2025,1.5325 -0.2403,2.981 -1.1103,4.1074 l -1.3002,-1.6548 -2.5525,1.8855 1.2893,1.6406 c -0.4134,0.1522 -0.8479,0.265 -1.3037,0.3216 -3.1514,0.3917 -6.1395,-1.7404 -6.5526,-4.8675 -0.4133,-3.1269 1.9054,-5.8718 5.0812,-6.2662 z"
       id="path7"
       style="stroke-width:0.940399" />
    <path
       d="m 104.51,18.616 0.288,6.2987 c 0.094,2.0519 -1.064,3.6796 -3.129,3.7925 -1.772,0.0762 -2.8792,-0.9518 -2.9611,-2.7412 l -0.3247,-7.0863 -3.2231,0.1389 0.3662,7.9926 c 0.1377,3.0063 2.0447,4.8129 4.9967,4.6854 2.092,-0.0901 3.63,-0.9452 4.463,-2.6784 l 0.108,2.362 3.223,-0.1389 -0.584,-12.765 -3.223,0.1394 z"
       id="path9"
       style="stroke-width:0.940399" />
    <path
       d="m 114.82,17.673 c -3.934,-0.2072 -6.836,2.2709 -7.053,6.1581 -0.215,3.8394 2.318,6.6038 6.4,6.8189 2.312,0.1217 4.276,-0.588 5.657,-1.9025 L 118.2,26.916 c -0.987,0.8808 -2.269,1.3155 -3.622,1.2443 -1.918,-0.1011 -3.283,-1.2732 -3.599,-3.1076 l 9.714,0.5116 c 0.579,-4.6097 -1.249,-7.6478 -5.873,-7.8913 z m -3.799,5.301 c 0.401,-1.8684 1.796,-2.9908 3.689,-2.8911 1.992,0.1049 3.229,1.3659 3.197,3.2538 z"
       id="path11"
       style="stroke-width:0.940399" />
    <path
       d="m 128.57,21.595 0.751,-2.4019 c -1.436,-0.6344 -3.295,-0.8352 -4.994,-0.5537 -2.622,0.4343 -4.693,2.0129 -4.236,4.6023 0.763,4.4769 7.313,2.0838 7.723,4.4144 0.145,0.8239 -0.618,1.3137 -1.711,1.4947 -1.408,0.2332 -3.304,-0.0343 -4.667,-0.8259 l -0.715,2.3232 c 1.562,0.9284 3.709,1.2027 5.676,0.877 2.768,-0.4584 4.903,-2.0962 4.451,-4.6624 -0.796,-4.52 -7.472,-2.2755 -7.845,-4.3942 -0.137,-0.7769 0.533,-1.227 1.553,-1.3959 1.117,-0.185 2.624,0.0016 4.015,0.5222 z"
       id="path13"
       style="stroke-width:0.940399" />
    <path
       id="t"
       d="m 136.42,28.228 c -0.74,0.2777 -1.369,0.4203 -1.909,0.3782 -0.86,-0.0671 -1.342,-0.512 -1.241,-1.7261 l 0.476,-5.7373 3.756,0.293 0.188,-2.2615 -3.756,-0.2931 0.29,-3.4994 -3.167,-0.2471 -0.29,3.4994 -1.866,-0.1455 -0.163,2.2634 1.841,0.1437 -0.521,6.2848 c -0.217,2.6186 1.402,3.9429 3.538,4.1096 1.154,0.0901 2.311,-0.1552 3.367,-0.6718 z"
       style="stroke-width:0.940399" />
  </g>
  <defs
     id="defs34">
    <filter
       id="dropshadow"
       x="0"
       y="0.45361"
       width="146.92"
       height="51.092999"
       color-interpolation-filters="sRGB"
       filterUnits="userSpaceOnUse">
      <feFlood
         flood-opacity="0"
         result="BackgroundImageFix"
         id="feFlood17" />
      <feColorMatrix
         in="SourceAlpha"
         result="hardAlpha"
         values="0 0 0 0 0 0 0 0 0 0 0 0 0 0 0 0 0 0 127 0"
         id="feColorMatrix19" />
      <feOffset
         dy="2"
         id="feOffset21" />
      <feGaussianBlur
         stdDeviation="2"
         id="feGaussianBlur23" />
      <feComposite
         in2="hardAlpha"
         operator="out"
         id="feComposite25" />
      <feColorMatrix
         values="0 0 0 0 0 0 0 0 0 0 0 0 0 0 0 0 0 0 0.25 0"
         id="feColorMatrix27" />
      <feBlend
         in2="BackgroundImageFix"
         result="dropshadow"
         id="feBlend29"
         mode="normal" />
      <feBlend
         in="SourceGraphic"
         in2="dropshadow"
         result="shape"
         id="feBlend31"
         mode="normal" />
    </filter>
  </defs>
</svg>
