<?xml version="1.0" encoding="UTF-8" standalone="no"?>
<svg
   width="146.91463"
   height="46.727306"
   viewBox="0 0 146.91463 46.727308"
   fill="none"
   version="1.1"
   role="img"
   aria-labelledby="gdschoolLogoTitle"
   xml:space="preserve"
   id="svg6"
   sodipodi:docname="gdschool_logo_no_outline.svg"
   inkscape:version="1.2.2 (b0a8486541, 2022-12-01)"
   xmlns:inkscape="http://www.inkscape.org/namespaces/inkscape"
   xmlns:sodipodi="http://sodipodi.sourceforge.net/DTD/sodipodi-0.dtd"
   xmlns="http://www.w3.org/2000/svg"
   xmlns:svg="http://www.w3.org/2000/svg"
   xmlns:rdf="http://www.w3.org/1999/02/22-rdf-syntax-ns#"
   xmlns:cc="http://creativecommons.org/ns#"
   xmlns:dc="http://purl.org/dc/elements/1.1/"><defs
   id="defs10"><filter
     inkscape:collect="always"
     style="color-interpolation-filters:sRGB"
     id="filter1211"
     x="-0.0050015541"
     y="-0.016534719"
     width="1.0100031"
     height="1.0330694"><feGaussianBlur
       inkscape:collect="always"
       stdDeviation="0.30313497"
       id="feGaussianBlur1213" /></filter></defs><sodipodi:namedview
   id="namedview8"
   pagecolor="#7f7f7f"
   bordercolor="#000000"
   borderopacity="0.25"
   inkscape:showpageshadow="2"
   inkscape:pageopacity="0"
   inkscape:pagecheckerboard="0"
   inkscape:deskcolor="#d1d1d1"
   showgrid="false"
   inkscape:zoom="12.108658"
   inkscape:cx="55.414894"
   inkscape:cy="36.461514"
   inkscape:window-width="1920"
   inkscape:window-height="995"
   inkscape:window-x="352"
   inkscape:window-y="1648"
   inkscape:window-maximized="1"
   inkscape:current-layer="svg6" />
   <title
   id="gdschoolLogoTitle">GD School Logo</title>
   <path
   id="path309"
   style="display:inline;opacity:0.25;mix-blend-mode:normal;fill:#1d0a3f;fill-opacity:1;stroke:none;stroke-width:6.5;stroke-linecap:butt;stroke-linejoin:miter;stroke-dasharray:none;stroke-opacity:1;paint-order:stroke fill markers;filter:url(#filter1211)"
   d="m 17.629868,2.001027 c -0.18951,-0.006 -0.3793,0.0145 -0.5625,0.0625 l -2.16211,0.572266 C 6.5705367,4.829777 0.73821397,12.274355 0.72752397,20.739308 v 0.0059 0.01172 c 0,9.296963 7.02253673,17.148217 16.24218803,18.533204 l 0.02148,0.183593 0.291016,2.845703 c 0.0246,0.245 0.0981,0.483173 0.216796,0.701172 0.11859,0.216999 0.28011,0.408454 0.47461,0.564454 0.19451,0.155999 0.417613,0.27275 0.658203,0.34375 0.24061,0.071 0.494141,0.09336 0.744141,0.06836 l 6.640624,-0.662109 1.419922,1.898437 c 0.22729,0.304999 0.543461,0.534157 0.90625,0.660156 0.36269,0.125 0.755354,0.139938 1.126954,0.04297 l 2.162109,-0.568359 c 5.401394,-1.420666 9.613669,-5.113196 12.003906,-9.791016 3.632106,2.170895 8.045596,2.449668 11.914063,1.419922 1.269088,-0.295068 2.21994,-0.73389 3.005859,-1.033203 3.729306,0.102769 7.694633,0.53942 11.886719,0.279297 a 1.5977928,1.5977928 0 0 0 0.01563,0 c 0.0298,-0.0021 0.05819,-0.0047 0.08789,-0.0078 l 0.01367,-0.002 c 1.816398,-0.184383 3.412437,-0.771197 4.884766,-1.429687 1.850718,1.140939 3.941879,2.112228 6.378906,2.302734 2.623178,0.251048 5.464963,-0.203724 7.962891,-1.658203 3.241937,1.908982 6.999615,1.826818 10.169921,0.820312 3.246912,-0.438187 6.472272,-0.882965 9.687512,-1.279297 2.07094,1.382345 4.52808,2.255914 7.15039,1.970704 2.2644,-0.190132 4.20212,-1.242634 5.82812,-2.597657 0.12457,0.04095 0.12587,0.07234 0.25977,0.09961 2.77095,0.998911 5.62503,0.559614 8.12695,-0.511719 3.44155,2.729419 8.00902,2.468382 11.42383,0.929687 0.87698,-0.39491 1.65562,-0.831057 2.36523,-1.228515 1.07671,-0.602928 1.6377,-1.995789 1.28321,-3.177735 -0.63932,-2.13086 -1.27865,-4.261732 -1.91797,-6.392578 -0.46341,-1.542356 -2.47218,-2.360008 -3.89453,-1.61914 V 11.950246 c -4.7e-4,-1.433348 -1.30496,-2.737819 -2.73829,-2.738281 h -11.24804 c -1.43334,4.74e-4 -2.73781,1.304941 -2.73828,2.738281 10e-6,0.740213 10e-6,1.48047 0,2.220703 -1.3388,0.401228 -2.72702,1.018091 -4.01758,2.130859 -2.5928,-0.920841 -5.45587,-0.936461 -8.07227,0.136719 -1.57416,-1.371612 -3.57539,-1.979517 -5.64062,-2.021484 -0.13039,-0.961038 -0.25979,-1.922239 -0.39063,-2.884766 -0.1935,-1.421373 -1.66467,-2.538105 -3.08593,-2.34375 l 0.002,-0.00195 -6.312509,0.857422 a 1.5977928,1.5977928 0 0 0 -0.002,0.002 c -1.300519,0.177925 -2.371107,1.408154 -2.367187,2.720703 9.59e-4,0.344948 0.05219,0.761898 0.05859,1.123047 C 91.562067,12.358784 88.846287,10.508422 85.32518,10.28428 82.533043,9.963235 79.511738,10.540175 77.01268,12.286233 73.730104,10.204222 69.973116,9.730133 66.67479,9.72764 A 1.5977928,1.5977928 0 0 0 66.65526,9.715871 L 58.815417,9.376027 a 1.5977928,1.5977928 0 0 0 -0.002,0 c -1.081652,-0.04533 -2.091769,0.665331 -2.546829,1.642578 -2.024237,-0.428025 -4.176387,-0.716758 -6.478515,-0.339843 -3.361587,0.470403 -6.77207,1.99737 -9.210938,4.570312 C 37.752976,12.02713 34.084997,9.481997 29.594712,8.735402 L 29.573222,8.54009 29.2783,5.688527 c -0.0248,-0.245 -0.09811,-0.484172 -0.216797,-0.701172 -0.1187,-0.217 -0.280109,-0.408453 -0.474609,-0.564453 -0.1945,-0.156 -0.417603,-0.27275 -0.658203,-0.34375 C 27.688191,4.008152 27.43435,3.98384 27.18455,4.00884 L 20.540019,4.676808 19.098613,2.766652 C 18.927813,2.539652 18.708281,2.354683 18.454081,2.223683 18.200002,2.091685 17.918806,2.016886 17.631816,2.006886 Z"
   inkscape:label="gdschoolShadow" /><path
   id="gdschoolLogoOutline"
   style="display:inline;fill:#6725d6;fill-opacity:1;stroke:none;stroke-width:6.5;stroke-linecap:butt;stroke-linejoin:miter;stroke-dasharray:none;stroke-opacity:1;paint-order:stroke fill markers"
   d="m 17.629828,0.00101742 c -0.18951,-0.006 -0.3793,0.0145 -0.5625,0.0625 l -2.16211,0.57226604 C 6.570488,2.8297694 0.73816797,10.274336 0.72747797,18.739298 v 0.0059 0.01172 c 0,9.296972 7.02253003,17.148216 16.24219003,18.533204 l 0.0215,0.183593 0.29102,2.845704 c 0.0246,0.245 0.0981,0.483172 0.2168,0.701172 0.11859,0.216999 0.28011,0.408453 0.47461,0.564453 0.19451,0.156 0.41761,0.27275 0.6582,0.34375 0.24061,0.071 0.49414,0.09336 0.74414,0.06836 l 6.64062,-0.662109 1.41993,1.898437 c 0.22729,0.304999 0.54346,0.534157 0.90625,0.660156 0.36269,0.125 0.75535,0.139939 1.12695,0.04297 l 2.16211,-0.568359 c 5.4014,-1.420667 9.61367,-5.113191 12.00391,-9.791016 3.63211,2.170897 8.04559,2.449669 11.91406,1.419922 1.26909,-0.295068 2.21994,-0.733889 3.00586,-1.033203 3.72931,0.102769 7.69463,0.539421 11.88672,0.279297 a 1.5977928,1.5977928 0 0 0 0.0156,0 c 0.0298,-0.0021 0.0582,-0.0047 0.0879,-0.0078 l 0.0137,-0.002 c 1.8164,-0.184383 3.41244,-0.771197 4.88477,-1.429688 1.85072,1.140941 3.94188,2.112229 6.37891,2.302735 2.62318,0.251048 5.46496,-0.203722 7.96289,-1.658203 3.24194,1.908984 6.99961,1.826819 10.16992,0.820312 3.246912,-0.438188 6.472262,-0.882965 9.687502,-1.279297 2.07095,1.382346 4.52808,2.255914 7.15039,1.970703 2.26441,-0.190132 4.20212,-1.242632 5.82812,-2.597656 0.12457,0.04095 0.12587,0.07234 0.25977,0.09961 2.77096,0.998912 5.62503,0.559615 8.12695,-0.511719 3.44155,2.729422 8.00902,2.468383 11.42383,0.929687 0.87698,-0.394911 1.65562,-0.831056 2.36523,-1.228515 1.07671,-0.602928 1.6377,-1.995788 1.28321,-3.177735 -0.63932,-2.130863 -1.27865,-4.26173 -1.91797,-6.392578 -0.46341,-1.542358 -2.47217,-2.360008 -3.89453,-1.61914 V 9.9502444 c -4.7e-4,-1.433349 -1.30495,-2.737819 -2.73828,-2.738281 h -11.24805 c -1.43334,4.74e-4 -2.73781,1.30494 -2.73828,2.738281 1e-5,0.7402136 1e-5,1.4804686 0,2.2207026 -1.3388,0.401228 -2.72702,1.01809 -4.01758,2.130859 -2.5928,-0.920842 -5.45587,-0.936462 -8.07227,0.136719 -1.57416,-1.371613 -3.57539,-1.979517 -5.64062,-2.021484 -0.13039,-0.961039 -0.25979,-1.922238 -0.39063,-2.8847656 -0.1935,-1.421375 -1.66466,-2.538105 -3.08593,-2.34375 l 0.002,-0.002 -6.312502,0.857422 a 1.5977928,1.5977928 0 0 0 -0.002,0.002 c -1.30052,0.177925 -2.37111,1.408153 -2.36719,2.7207026 9.6e-4,0.344948 0.0522,0.761898 0.0586,1.123047 -2.15374,-1.530967 -4.86951,-3.3813266 -8.39062,-3.6054686 -2.79214,-0.321046 -5.81344,0.255893 -8.3125,2.0019526 -3.28258,-2.0820126 -7.03956,-2.5560996 -10.33789,-2.5585926 a 1.5977928,1.5977928 0 0 0 -0.0195,-0.01172 l -7.83985,-0.339844 a 1.5977928,1.5977928 0 0 0 -0.002,0 c -1.0817,-0.04533 -2.09182,0.66533 -2.54688,1.642578 -2.02424,-0.428026 -4.17638,-0.716759 -6.47851,-0.339844 -3.36159,0.470404 -6.77207,1.9973676 -9.21094,4.5703126 -2.82416,-3.221947 -6.49213,-5.7670756 -10.98242,-6.5136716 l -0.0215,-0.195312 -0.29493,-2.851563 c -0.0248,-0.245 -0.0981,-0.484172 -0.21679,-0.701172 -0.1187,-0.217 -0.28011,-0.408453 -0.47461,-0.564453 -0.1945,-0.156 -0.41761,-0.27275 -0.65821,-0.34375 -0.2405,-0.071 -0.49434,-0.09531 -0.74414,-0.07031 l -6.64453,0.667968 -1.4414,-1.91015594 c -0.1708,-0.227 -0.39034,-0.411969 -0.64454,-0.54296904 -0.25408,-0.131999 -0.53527,-0.206797 -0.82226,-0.216797 z m -0.0645,1.87109398 2.08789,2.769531 7.72852,-0.775391 0.46289,4.539063 h 0.0234 c 0.63711,0.04216 1.25912,0.126048 1.86914,0.238281 0.20261,0.03724 0.39622,0.09407 0.5957,0.138672 0.40555,0.09078 0.80908,0.18453 1.20117,0.304688 0.23027,0.07048 0.45228,0.156132 0.67774,0.236328 0.33715,0.12005 0.67203,0.243801 0.99804,0.384765 0.24457,0.105629 0.48261,0.220998 0.72071,0.3378906 0.29606,0.145515 0.58732,0.296774 0.87304,0.458984 0.24092,0.136609 0.4776,0.277843 0.71094,0.425782 0.26535,0.168393 0.52404,0.344969 0.7793,0.527343 0.22996,0.164147 0.45816,0.328965 0.67969,0.503907 0.22945,0.181338 0.44976,0.372111 0.66992,0.564453 0.23132,0.201969 0.46282,0.401766 0.68359,0.615234 0.20399,0.197307 0.3951,0.406728 0.58985,0.613281 0.20441,0.216773 0.41347,0.427917 0.60742,0.654297 0.0147,0.01714 0.0322,0.03163 0.0469,0.04883 -0.001,0.0019 -0.003,0.004 -0.004,0.0059 0.35812,0.421137 0.70659,0.85174 1.02734,1.302734 2.13332,-3.130702 5.79718,-5.007749 9.43359,-5.511719 2.4672,-0.4076866 4.86745,-0.01904 7.14258,0.550782 0.15853,-0.357082 0.34039,-0.748305 0.44922,-1.0644536 0.16397,-0.477633 0.6224,-0.790671 1.12695,-0.769531 l 7.83985,0.339844 c 3.47634,-0.0042 7.31114,0.464313 10.38476,2.7871086 0.0284,0.02149 0.0557,0.04431 0.082,0.06836 0.013,0.0119 -0.003,0.0013 0.01,0.01172 0.40323,-0.360805 0.83992,-0.661236 1.28906,-0.935546 -0.015,-0.01881 -0.0327,-0.04109 -0.0605,-0.07617 0.0203,0.02355 0.0567,0.06455 0.0566,0.06445 -1e-5,-5e-6 0.004,0.0059 0.006,0.0098 2.05034,-1.2513916 4.50849,-1.6424986 6.8125,-1.3730456 3.09135,0.1771346 5.60186,1.8709736 7.76367,3.4101556 0.42923,0.305138 0.59392,0.864459 0.39843,1.353515 -0.0751,0.188076 -0.14951,0.376378 -0.2246,0.564454 h 1.5 l -0.27344,0.0332 c 0.44588,-0.110125 0.79186,0.06733 1.16211,0.183593 -0.19468,-1.602651 -0.23428,-3.189507 -0.23828,-4.65039 -0.002,-0.57202 0.41958,-1.0572256 0.98632,-1.1347656 l 6.312502,-0.857422 c 0.62461,-0.08541 1.20016,0.351903 1.28516,0.976563 0.18592,1.3676796 0.37061,2.7350476 0.55664,4.1015616 0.12419,-0.01837 0.29766,-0.004 0.47852,0.01172 2.34054,-0.246265 4.70476,0.626813 6.25976,2.419922 0.0648,-0.02678 0.0298,-0.01157 0.14063,-0.07617 0.0167,-0.0095 0.0336,-0.01864 0.0508,-0.02734 2.66033,-1.373138 5.82288,-1.316219 8.49609,-0.105468 0.0727,-0.07796 0.17162,-0.167647 0.36914,-0.326172 1.4478,-1.428195 3.2533,-1.994814 4.95117,-2.417969 0,-1.125651 1e-5,-2.251313 0,-3.3769526 2.1e-4,-0.629856 0.51077,-1.140416 1.14063,-1.140625 h 11.24805 c 0.62987,2.03e-4 1.14041,0.510761 1.14062,1.140625 V 23.212037 c 0.76734,-0.448286 1.52728,-0.896835 2.31055,-1.337891 0.63697,-0.358484 1.44202,-0.03399 1.65234,0.666016 0.63932,2.13085 1.27865,4.261718 1.91797,6.392578 0.1541,0.51228 -0.0684,1.062847 -0.53516,1.324218 -0.70833,0.396741 -1.4438,0.807377 -2.24023,1.166016 -3.06509,1.381114 -7.1192,1.588229 -9.98242,-0.833984 -0.26441,-0.180198 -0.3781,-0.28707 -0.4668,-0.38086 -2.4358,1.298452 -5.41193,1.76005 -8.11914,0.701172 -0.51159,-0.08637 -0.67352,-0.225855 -0.82617,-0.322265 -1.52822,1.518046 -3.51457,2.605992 -5.74024,2.787109 -2.44495,0.272504 -4.82739,-0.563951 -6.74414,-2.029297 -3.3723,0.410651 -6.74497,0.879185 -10.128902,1.335938 -2.98427,1.016543 -6.54253,1.111349 -9.4336,-0.720704 -0.32699,-0.151081 -0.44831,-0.247594 -0.55468,-0.333984 -2.31193,1.658953 -5.16987,2.146184 -7.81641,1.890625 -2.40442,-0.183708 -4.54413,-1.20687 -6.42969,-2.474609 -1.58503,0.764025 -3.28371,1.416361 -5.14843,1.603515 -0.0143,0.0016 -0.0286,0.0029 -0.043,0.0039 -4.10559,0.254757 -8.11079,-0.203972 -12.01368,-0.294922 -0.93446,0.333416 -1.94915,0.815259 -3.1621,1.09375 -4.07886,1.09376 -8.78794,0.567159 -12.20118,-2.289063 -0.0493,-0.03844 -0.094,-0.08186 -0.14257,-0.121094 l 0.002,0.0078 c -0.19379,0.513417 -0.42792,1.009229 -0.66992,1.5 0.003,0.002 0.005,0.0038 0.008,0.0059 -0.0172,0.0348 -0.0392,0.06689 -0.0566,0.101563 -0.16006,0.318981 -0.3438,0.623566 -0.52344,0.93164 -0.14143,0.242718 -0.27846,0.487205 -0.43164,0.722657 -0.18564,0.285106 -0.3855,0.558336 -0.58789,0.832031 -0.1811,0.245223 -0.36454,0.487185 -0.55859,0.722656 -0.20323,0.246257 -0.41389,0.483826 -0.63086,0.71875 -0.22115,0.239838 -0.44866,0.471866 -0.6836,0.699219 -0.2235,0.21595 -0.45002,0.426808 -0.68554,0.63086 -0.25819,0.224071 -0.52672,0.435551 -0.79883,0.644531 -0.23558,0.180655 -0.46926,0.362439 -0.71485,0.53125 -0.30374,0.209107 -0.62099,0.399778 -0.93945,0.589844 -0.23877,0.14232 -0.47208,0.290716 -0.71875,0.421875 -0.37441,0.199333 -0.76443,0.372554 -1.15625,0.544922 -0.20969,0.09217 -0.41057,0.19711 -0.625,0.28125 -0.61874,0.242975 -1.25435,0.456449 -1.91016,0.628906 l -2.1621,0.570312 -2.06641,-2.765625 -7.72656,0.769532 -0.46485,-4.533204 h -0.0215 C 9.694488,34.997872 2.634168,27.604083 2.634168,18.75112 V 18.7394 c 0.001,-0.476561 0.0231,-0.949577 0.0645,-1.417968 0.61995,-7.025861 5.66359,-13.0282866 12.70312,-14.8789066 z m 77.95703,14.3398436 0.0215,0.183593 c -0.004,-0.01841 0.002,-0.03433 -0.002,-0.05273 -0.006,-0.06944 -0.0165,-0.05544 -0.0195,-0.130859 z M 130.7626,31.807658 c 0.009,0.0077 0.0201,0.0099 0.0293,0.01758 0.0432,0.03139 0.0553,0.05248 0.10156,0.08398 z m -41.283202,1.501953 c 0.0237,0.01505 0.0504,0.01838 0.0742,0.0332 0.0505,0.02591 0.0582,0.0438 0.11133,0.06836 z"
   class="gdschoolLogoOutline gdschoolLogoColorA" /><path
   id="gdschoolLogoInterstitial"
   style="display:inline;fill:#6725d6;fill-opacity:1"
   d="m 17.56537,1.8721114 -2.164062,0.570312 C 7.892473,4.4164174 2.65433,11.114332 2.63373,18.739298 v 0.01172 c 0,8.852963 7.060314,16.246752 16.066406,16.84375 h 0.02148 l 0.464844,4.533203 7.726563,-0.769531 2.066406,2.765625 2.162109,-0.570313 c 5.507458,-1.448288 9.783502,-5.473793 11.683598,-10.507813 l -0.002,-0.0078 c 0.04856,0.03923 0.09324,0.08265 0.142578,0.121093 3.413234,2.856222 8.12232,3.382823 12.201172,2.289063 1.212958,-0.278491 2.227641,-0.760334 3.162109,-1.09375 3.902882,0.09095 7.90809,0.549679 12.013672,0.294922 0.0144,-0.001 0.02867,-0.0023 0.04297,-0.0039 1.864726,-0.187154 3.563401,-0.83949 5.148437,-1.603515 1.885558,1.267739 4.025272,2.290901 6.429688,2.474609 2.64654,0.255559 5.50448,-0.231672 7.81641,-1.890625 0.10637,0.08639 0.22769,0.182903 0.55468,0.333984 2.89107,1.832053 6.44933,1.737247 9.4336,0.720704 3.383928,-0.456753 6.756598,-0.925287 10.128898,-1.335938 1.91675,1.465346 4.29919,2.301801 6.74414,2.029297 2.22567,-0.181117 4.21202,-1.269063 5.74024,-2.787109 0.15265,0.09641 0.31458,0.235896 0.82617,0.322265 2.70721,1.058878 5.68334,0.59728 8.11914,-0.701172 0.0887,0.09379 0.20239,0.200662 0.4668,0.38086 2.86322,2.422213 6.91733,2.215098 9.98242,0.833984 0.79643,-0.358639 1.5319,-0.769275 2.24023,-1.166015 0.46676,-0.261372 0.68926,-0.811939 0.53516,-1.324219 -0.63932,-2.13086 -1.27865,-4.261728 -1.91797,-6.392578 -0.21032,-0.700004 -1.01537,-1.0245 -1.65234,-0.666016 -0.78327,0.441056 -1.54321,0.889605 -2.31055,1.337891 V 9.9502364 c -2.1e-4,-0.629864 -0.51075,-1.140422 -1.14062,-1.140625 h -11.24805 c -0.62986,2.09e-4 -1.14042,0.510769 -1.14063,1.140625 10e-6,1.1256396 0,2.2513016 0,3.3769526 -1.69787,0.423155 -3.50337,0.989774 -4.95117,2.417969 -0.19752,0.158525 -0.29644,0.248213 -0.36914,0.326172 -2.67321,-1.210751 -5.83576,-1.26767 -8.49609,0.105468 -0.0172,0.0087 -0.0341,0.0178 -0.0508,0.02734 -0.11084,0.0646 -0.0758,0.04939 -0.14063,0.07617 -1.555,-1.793109 -3.91922,-2.666187 -6.25976,-2.419922 -0.18086,-0.01571 -0.35433,-0.03009 -0.47852,-0.01172 -0.18603,-1.366514 -0.37072,-2.733882 -0.55664,-4.1015616 -0.085,-0.62466 -0.66055,-1.061977 -1.28516,-0.976563 l -6.312498,0.857422 c -0.56674,0.07754 -0.98847,0.5627456 -0.98632,1.1347656 0.004,1.460883 0.0436,3.047739 0.23828,4.650391 -0.37025,-0.116265 -0.71623,-0.293719 -1.16211,-0.183594 l 0.27344,-0.0332 h -1.5 c 0.0751,-0.188076 0.14954,-0.376378 0.2246,-0.564453 0.19549,-0.489057 0.0308,-1.048378 -0.39843,-1.353516 -2.16181,-1.539182 -4.67232,-3.233021 -7.76367,-3.4101556 -2.809651,-0.328588 -5.859155,0.3022916 -8.103521,2.3105456 -0.0124,-0.01039 0.0032,1.86e-4 -0.0098,-0.01172 -0.0263,-0.02405 -0.05363,-0.04687 -0.08203,-0.06836 C 73.897901,9.7758714 70.063099,9.3073414 66.586756,9.3115584 l -7.839844,-0.339844 c -0.504548,-0.02114 -0.962983,0.291898 -1.126953,0.769531 -0.10883,0.3161486 -0.290689,0.7073716 -0.449219,1.0644536 -2.275134,-0.569826 -4.675382,-0.9584686 -7.142578,-0.550782 -3.636412,0.50397 -7.300271,2.381017 -9.433594,5.511719 C 37.699284,11.695641 33.246051,8.7611564 27.868006,8.4053084 h -0.02344 l -0.46289,-4.539063 -7.728516,0.775391 z m -1.365234,3.732422 1.900391,2.417968 c 0.352698,-0.062 0.710319,-0.107718 1.074219,-0.136718 l 5.257812,-0.496094 0.515625,5.0488276 -5.257813,0.494141 v 0.002 c -3.308192,0.312 -5.727133,3.137496 -5.402343,6.3125 0.324898,3.174994 3.269631,5.497545 6.578125,5.185547 h 0.002 l -0.234375,-2.279297 5.257812,-0.496094 0.75,7.326172 -5.257812,0.496094 v -0.002 c -0.3628,0.039 -0.723833,0.06041 -1.082031,0.06641 l -1.375,2.728515 -1.927735,-0.30664 -0.378953,-2.953129 c -0.715597,-0.224 -1.402572,-0.515188 -2.050781,-0.867188 l -2.541016,1.65625 -1.509765,-1.189453 1.18164,-2.677734 c -0.512498,-0.548 -0.967562,-1.148971 -1.357422,-1.792969 l -3.001953,0.210938 -0.6875,-1.753907 2.388672,-1.732422 c -0.07628,-0.362998 -0.134628,-0.732376 -0.173828,-1.109374 -0.033,-0.37701 -0.05273,-0.751096 -0.05273,-1.121094 L 6.120058,17.38383 6.44037,15.53422 9.428652,15.178751 c 0.251768,-0.703988 0.57704,-1.376767 0.96875,-2.009765 l -1.705078,-2.40625 1.242187,-1.4492186 2.828125,1.1484376 c 0.5647,-0.4649996 1.179438,-0.8774686 1.835938,-1.2304686 l -0.228516,-2.96875 z m 11.421875,6.1249996 1.927735,0.30664 0.380859,2.955078 c 0.715598,0.224 1.402483,0.513235 2.050781,0.865235 l 2.541016,-1.65625 1.509765,1.189453 -1.18164,2.677734 c 0.512598,0.548 0.967422,1.149971 1.357422,1.792969 l 3.001953,-0.210937 0.6875,1.753906 -2.388672,1.732422 c 0.0763,0.362998 0.132675,0.732375 0.171875,1.109375 0.033,0.375998 0.07529,0.751095 0.05469,1.121093 l 2.695313,1.251954 -0.320313,1.849609 -2.986328,0.355469 c -0.252098,0.703998 -0.579003,1.375767 -0.970703,2.009765 l 1.703125,2.40625 -1.240234,1.451172 -2.830078,-1.152343 c -0.5643,0.465998 -1.177985,0.880376 -1.833985,1.234374 l 0.226563,2.966797 -1.828125,0.660157 -1.902344,-2.419922 c -0.35179,0.061 -0.710319,0.108672 -1.074219,0.138672 l -5.259765,0.496093 -0.515625,-5.046875 5.257812,-0.498046 c 1.588598,-0.149004 3.051255,-0.898034 4.064453,-2.082032 1.013208,-1.183998 1.495544,-2.707424 1.339844,-4.232422 -0.0772,-0.754998 -0.309241,-1.48725 -0.681641,-2.15625 -0.372398,-0.668998 -0.879336,-1.260189 -1.490234,-1.742187 -0.610788,-0.481 -1.313904,-0.844453 -2.070312,-1.064453 -0.75629,-0.22 -1.551203,-0.294703 -2.337891,-0.220703 l -5.257813,0.496093 -0.515625,-5.046875 5.257813,-0.496093 c 0.3632,-0.039 0.724331,-0.05941 1.082031,-0.06641 z m 100.660159,0.21875 h 7.24805 v 12.503906 c 0,0.815996 0.15303,1.392518 0.45703,1.728516 0.32,0.335998 0.86481,0.503907 1.63281,0.503906 0.944,0 1.85438,-0.272408 2.73438,-0.816406 l 0.7207,2.40039 c -1.152,0.671998 -2.47294,1.007813 -3.96094,1.007813 -2.94398,0 -4.41602,-1.462637 -4.41602,-4.390625 V 14.516642 h -4.41601 z m -27.28711,0.201172 0.83984,6.207031 c 0.899,-0.751368 1.91855,-1.202974 3.06055,-1.357422 1.332,-0.18019 2.40666,0.06204 3.22266,0.726563 0.815,0.648676 1.31686,1.671142 1.50586,3.066406 l 0.30664,2.267578 c 0.11348,-0.705213 0.32819,-1.347289 0.64843,-1.925781 0.496,-0.896016 1.18446,-1.591893 2.06446,-2.087891 0.88,-0.511998 1.89487,-0.769531 3.04687,-0.769531 1.15198,0 2.16883,0.257533 3.04883,0.769531 0.85376,0.481205 1.52526,1.152046 2.01758,2.009766 0.0434,-0.26065 0.10324,-0.515905 0.18164,-0.763672 0.31,-0.976246 0.84828,-1.793227 1.61328,-2.453125 0.761,-0.675578 1.70694,-1.128151 2.83594,-1.355469 1.129,-0.22732 2.17467,-0.175934 3.13867,0.152344 0.96,0.312598 1.77255,0.858174 2.43555,1.638672 0.663,0.780506 1.11261,1.759152 1.34961,2.935546 0.234,1.160696 0.19857,2.23662 -0.10743,3.228516 -0.309,0.976296 -0.84544,1.802918 -1.60742,2.478516 -0.765,0.659898 -1.71281,1.10278 -2.84179,1.330078 -1.129,0.2273 -2.17377,0.185645 -3.13477,-0.126953 -0.964,-0.328298 -1.77645,-0.883567 -2.43945,-1.664063 -0.2752,-0.328995 -0.51145,-0.69079 -0.71289,-1.082031 -0.10812,0.744538 -0.32733,1.427707 -0.66407,2.046875 -0.496,0.895996 -1.18445,1.59933 -2.06445,2.111328 -0.88,0.495998 -1.89685,0.744141 -3.04883,0.744141 -1.152,0 -2.16687,-0.248143 -3.04687,-0.744141 -0.88,-0.511998 -1.56846,-1.215332 -2.06446,-2.111328 -0.0289,-0.05303 -0.0529,-0.108159 -0.0801,-0.162109 l 0.10547,0.785156 -2.80665,0.380859 -0.92187,-6.826172 c -0.11,-0.808596 -0.347,-1.358369 -0.70898,-1.648437 -0.346,-0.292204 -0.89916,-0.386163 -1.66016,-0.283203 -0.444,0.06007 -0.85628,0.173282 -1.23828,0.33789 -0.367,0.14662 -0.742,0.356986 -1.125,0.634766 l 1.13476,8.396484 -2.80468,0.378907 -1.201182,-8.876953 -0.52539,1.242187 c -0.5919,-0.336 -1.11998,-0.567313 -1.58398,-0.695313 -0.448,-0.143995 -0.92745,-0.216796 -1.43945,-0.216796 -1.088,0 -1.9201,0.289236 -2.4961,0.865234 -0.55998,0.575996 -0.83984,1.422973 -0.83984,2.542969 0,1.119996 0.27986,1.968924 0.83984,2.544922 0.576,0.575998 1.4081,0.863281 2.4961,0.863281 0.56,0 1.08798,-0.08024 1.58398,-0.240234 0.496,-0.16 1.07262,-0.439846 1.72852,-0.839844 l 1.054682,2.255859 c -1.328002,0.943996 -2.807452,1.416016 -4.439452,1.416016 -1.248,0 -2.33567,-0.238752 -3.26367,-0.71875 -0.912,-0.495998 -1.62472,-1.191895 -2.13672,-2.087891 -0.31372,-0.566722 -0.52729,-1.201201 -0.64258,-1.902344 -0.0847,1.508083 -0.66014,2.694369 -1.72851,3.560547 -1.1101,0.914396 -2.6613,1.353453 -4.654301,1.314453 -1.213098,-0.0238 -2.335743,-0.210948 -3.369141,-0.560546 -1.032998,-0.367 -1.975927,-0.923071 -2.828125,-1.667969 l 1.634766,-2.490235 c 0.664298,0.602498 1.383805,1.049199 2.158203,1.341797 0.79178,0.2929 1.637864,0.449197 2.539062,0.466797 1.005098,0.0198 1.771726,-0.148155 2.298826,-0.501953 0.5273,-0.371 0.7986,-0.910496 0.8125,-1.621094 0.0109,-0.554498 -0.12877,-0.974714 -0.41797,-1.257812 -0.2715,-0.299998 -0.7516,-0.543571 -1.4414,-0.730469 l -2.716799,-0.728516 c -1.39688,-0.374198 -2.426593,-0.940722 -3.087891,-1.699218 -0.643498,-0.775418 -0.952534,-1.795463 -0.927734,-3.060547 0.0312,-1.594354 0.585378,-2.832465 1.660156,-3.712891 1.075098,-0.897746 2.564407,-1.328404 4.470703,-1.291016 2.062195,0.04045 3.880825,0.641113 5.453125,1.798829 l -1.5332,2.542968 c -1.0915,-0.922906 -2.41687,-1.399087 -3.976566,-1.429687 -0.953198,-0.01869 -1.67567,0.149496 -2.167968,0.503906 -0.492102,0.337078 -0.744913,0.835603 -0.757813,1.494141 -0.01,0.485238 0.12108,0.877684 0.392578,1.177734 0.289202,0.283058 0.778972,0.518178 1.46875,0.705078 l 2.716799,0.728516 c 1.3969,0.374088 2.41695,0.949113 3.06055,1.724609 0.42409,0.486457 0.70633,1.092942 0.84765,1.816406 0.0359,-1.110723 0.27935,-2.080737 0.73633,-2.90625 0.512,-0.896016 1.22472,-1.584453 2.13672,-2.064453 0.928,-0.495998 2.01567,-0.74414 3.26367,-0.74414 1.22869,0 2.36975,0.268181 3.42383,0.802734 l -0.88672,-6.548828 z m -40.328127,0.04687 8.037109,0.347656 c 5.931978,0.256139 9.6238,3.758432 9.375,8.947265 -0.248798,5.188885 -4.339603,8.38174 -10.425781,8.119141 L 59.84662,29.272496 59.91693,27.79984 c -1.827656,1.382023 -4.650593,2.575275 -6.980469,2.910156 -5.591688,0.803296 -10.244022,-2.276031 -11.044922,-7.291015 -0.797198,-4.990606 2.839977,-9.237632 8.660157,-10.074219 2.770094,-0.398188 5.956891,0.178798 8.117187,1.496094 l -2.716797,4.3125 c -1.367686,-0.913267 -3.207544,-1.364224 -4.68164,-1.152344 -2.287486,0.328789 -3.695877,2.258406 -3.330079,4.548828 0.3734,2.338694 2.345408,3.781618 4.658204,3.449219 0.609998,-0.0877 1.4398,-0.428826 2.25,-0.890625 l -0.626954,-3.929688 5.058594,-0.728515 0.761719,4.771484 z m 34.855465,4.015625 c 0.003,0.07542 0.0138,0.06142 0.0195,0.130859 0.004,0.0184 -0.002,0.03432 0.002,0.05273 z m -29.109371,0.626953 -0.398438,8.30664 2.234375,0.0957 c 2.157096,0.0931 3.621888,-1.455651 3.742188,-3.964843 0.1215,-2.533213 -1.313916,-4.253726 -3.625,-4.353516 z m 60.142583,2.111328 c -0.21036,0.0036 -0.429,0.02844 -0.65625,0.07422 -0.91,0.183118 -1.56489,0.625934 -1.96289,1.326172 -0.4,0.684496 -0.49521,1.550666 -0.28321,2.601562 0.211,1.050896 0.63644,1.822555 1.27344,2.314453 0.635,0.476093 1.40836,0.622653 2.31836,0.439453 0.909,-0.1831 1.56484,-0.616185 1.96484,-1.300781 0.398,-0.700198 0.4903,-1.576057 0.2793,-2.626953 -0.212,-1.050894 -0.63553,-1.814848 -1.26953,-2.291016 -0.4785,-0.368893 -1.03298,-0.547889 -1.66406,-0.53711 z M 115.69037,20.8682 c -0.928,0 -1.65559,0.304111 -2.18359,0.912109 -0.528,0.591996 -0.79102,1.424098 -0.79102,2.496094 0,1.071996 0.26302,1.913486 0.79102,2.521484 0.528,0.591998 1.25559,0.886719 2.18359,0.886719 0.92798,0 1.65755,-0.294721 2.18555,-0.886719 0.528,-0.607998 0.79102,-1.449488 0.79102,-2.521484 0,-1.071996 -0.26302,-1.904098 -0.79102,-2.496094 -0.528,-0.607998 -1.25757,-0.912109 -2.18555,-0.912109 z"
   class="gdschoolLogoInterstitial gdschoolLogoColorB" /><path
   id="gdschoolLogoText"
   style="display:inline;fill:#ffffff;fill-opacity:1;stroke:none;stroke-width:6.5;stroke-linecap:butt;stroke-linejoin:miter;stroke-dasharray:none;stroke-opacity:1;paint-order:stroke fill markers"
   d="m 16.200136,5.6045334 -1.830078,0.658203 0.228516,2.96875 c -0.6565,0.353 -1.271238,0.765469 -1.835938,1.2304686 L 9.934511,9.3135174 8.692324,10.762736 l 1.705078,2.40625 c -0.39171,0.632999 -0.716981,1.305776 -0.96875,2.009765 L 6.44037,15.53422 6.120058,17.38383 8.81537,18.635783 c 0,0.369999 0.01973,0.744084 0.05273,1.121094 0.0392,0.376999 0.09755,0.746375 0.173828,1.109374 l -2.388672,1.732422 0.6875,1.753907 3.001953,-0.210938 c 0.38986,0.643999 0.844923,1.244969 1.357422,1.792969 l -1.18164,2.677734 1.509765,1.189453 2.541016,-1.65625 c 0.64821,0.352 1.335183,0.643188 2.050781,0.867188 l 0.378906,2.953125 1.927735,0.30664 1.375,-2.728515 c 0.358199,-0.006 0.719231,-0.02741 1.082031,-0.06641 v 0.002 l 5.257812,-0.496094 -0.75,-7.326172 -5.257812,0.496094 0.234375,2.279297 h -0.002 c -3.308497,0.311999 -6.253226,-2.01055 -6.578125,-5.185547 -0.32479,-3.175007 2.094147,-6.0005 5.402343,-6.3125 v -0.002 l 5.257865,-0.494137 -0.515625,-5.0488276 -5.257812,0.496094 c -0.3639,0.029 -0.72152,0.07472 -1.074219,0.136718 z m 11.421875,6.1249996 -1.375,2.728515 c -0.3577,0.007 -0.718831,0.02741 -1.082031,0.06641 l -5.257813,0.496093 0.515625,5.046875 5.257813,-0.496093 c 0.786689,-0.074 1.581601,7.03e-4 2.337891,0.220703 0.756409,0.22 1.459523,0.583453 2.070312,1.064453 0.610899,0.481999 1.117835,1.073188 1.490234,1.742187 0.3724,0.669 0.604441,1.401251 0.681641,2.15625 0.1557,1.524999 -0.326635,3.048423 -1.339844,4.232422 -1.013199,1.183999 -2.475854,1.933028 -4.064453,2.082032 l -5.257812,0.498046 0.515625,5.046875 5.259765,-0.496093 c 0.3639,-0.03 0.722429,-0.07767 1.074219,-0.138672 l 1.902344,2.419922 1.828125,-0.660157 -0.226563,-2.966797 c 0.656,-0.353999 1.269685,-0.768375 1.833985,-1.234374 l 2.830078,1.152343 1.240234,-1.451172 -1.703125,-2.40625 c 0.3917,-0.633999 0.718604,-1.305766 0.970703,-2.009765 l 2.986328,-0.355469 0.320313,-1.849609 -2.695313,-1.251954 c 0.0206,-0.369999 -0.02169,-0.745094 -0.05469,-1.121093 -0.0392,-0.377 -0.09557,-0.746376 -0.171875,-1.109375 l 2.388672,-1.732422 -0.6875,-1.753906 -3.001953,0.210937 c -0.39,-0.642999 -0.844823,-1.244969 -1.357422,-1.792969 l 1.18164,-2.677734 -1.509765,-1.189453 -2.541016,1.65625 c -0.648299,-0.352 -1.335182,-0.641235 -2.050781,-0.865235 l -0.380859,-2.955078 z m 100.660159,0.21875 v 2.568359 h 4.41601 v 10.369141 c 0,2.927991 1.47204,4.390625 4.41602,4.390625 1.488,0 2.80894,-0.335815 3.96094,-1.007813 l -0.7207,-2.40039 c -0.88,0.543999 -1.79038,0.816406 -2.73438,0.816406 -0.768,1e-6 -1.31281,-0.167907 -1.63281,-0.503906 -0.304,-0.335998 -0.45703,-0.912519 -0.45703,-1.728516 V 11.948283 Z m -27.28711,0.201172 -2.806642,0.380859 0.88672,6.548828 c -1.05408,-0.534554 -2.19514,-0.802734 -3.42383,-0.802734 -1.248,0 -2.33567,0.248141 -3.26367,0.74414 -0.912,0.48 -1.62472,1.168436 -2.13672,2.064453 -0.45698,0.825513 -0.70038,1.795525 -0.73633,2.90625 -0.14132,-0.723465 -0.42355,-1.329949 -0.84765,-1.816406 -0.6436,-0.775497 -1.66365,-1.350521 -3.06055,-1.724609 L 82.889589,19.72172 c -0.689779,-0.1869 -1.179548,-0.42202 -1.46875,-0.705078 -0.271499,-0.30005 -0.402578,-0.692495 -0.392578,-1.177734 0.0129,-0.658538 0.265711,-1.157063 0.757813,-1.494141 0.492299,-0.35441 1.214769,-0.522594 2.167968,-0.503906 1.559696,0.0306 2.885066,0.50678 3.976566,1.429687 l 1.5332,-2.542968 c -1.5723,-1.157717 -3.39093,-1.758379 -5.453125,-1.798829 -1.906298,-0.03739 -3.395604,0.393269 -4.470703,1.291016 -1.074779,0.880427 -1.628956,2.118536 -1.660156,3.712891 -0.0248,1.265086 0.284235,2.285129 0.927734,3.060547 0.661299,0.758497 1.69101,1.325019 3.087891,1.699218 l 2.716799,0.728516 c 0.6898,0.186898 1.1699,0.430471 1.4414,0.730469 0.2892,0.283099 0.42887,0.703313 0.41797,1.257812 -0.0139,0.710598 -0.2852,1.250094 -0.8125,1.621094 -0.5271,0.353798 -1.293727,0.521753 -2.298826,0.501953 -0.901199,-0.0176 -1.747281,-0.173897 -2.539062,-0.466797 -0.774399,-0.292599 -1.493904,-0.739299 -2.158203,-1.341797 l -1.634766,2.490235 c 0.852199,0.744899 1.795126,1.300969 2.828125,1.667969 1.033399,0.349599 2.156042,0.536746 3.369141,0.560546 1.993001,0.039 3.544201,-0.400056 4.654301,-1.314453 1.06838,-0.866179 1.64378,-2.052463 1.72851,-3.560547 0.11529,0.701143 0.32886,1.335621 0.64258,1.902344 0.512,0.895997 1.22472,1.591893 2.13672,2.087891 0.928,0.479999 2.01567,0.71875 3.26367,0.71875 1.632,0 3.11145,-0.472019 4.439452,-1.416016 l -1.054682,-2.255859 c -0.6559,0.399999 -1.23252,0.679844 -1.72852,0.839844 -0.496,0.159999 -1.02398,0.240234 -1.58398,0.240234 -1.088,0 -1.9201,-0.287282 -2.4961,-0.863281 -0.55998,-0.575998 -0.83984,-1.424925 -0.83984,-2.544922 0,-1.119997 0.27986,-1.966972 0.83984,-2.542969 0.576,-0.575999 1.4081,-0.865234 2.4961,-0.865234 0.512,0 0.99145,0.0728 1.43945,0.216796 0.464,0.128 0.99208,0.359313 1.58398,0.695313 l 0.52539,-1.242187 1.201182,8.876953 2.80468,-0.378907 -1.13476,-8.396484 c 0.383,-0.27778 0.758,-0.488146 1.125,-0.634766 0.382,-0.164609 0.79428,-0.27782 1.23828,-0.33789 0.761,-0.10296 1.31416,-0.009 1.66016,0.283203 0.36199,0.290068 0.59898,0.83984 0.70898,1.648437 l 0.92187,6.826172 2.80665,-0.380859 -0.10547,-0.785156 c 0.0272,0.05395 0.0512,0.109079 0.0801,0.162109 0.496,0.895997 1.18446,1.599329 2.06446,2.111328 0.88,0.495998 1.89487,0.744141 3.04687,0.744141 1.15198,0 2.16883,-0.248143 3.04883,-0.744141 0.88,-0.511999 1.56845,-1.215331 2.06445,-2.111328 0.33674,-0.619169 0.55595,-1.302336 0.66407,-2.046875 0.20144,0.391241 0.43769,0.753035 0.71289,1.082031 0.663,0.780497 1.47545,1.335765 2.43945,1.664063 0.961,0.312599 2.00577,0.354253 3.13477,0.126953 1.12899,-0.227298 2.07679,-0.670179 2.84179,-1.330078 0.76198,-0.675598 1.29842,-1.502219 1.60742,-2.478516 0.306,-0.991897 0.34143,-2.067819 0.10743,-3.228516 -0.237,-1.176396 -0.68661,-2.155039 -1.34961,-2.935546 -0.663,-0.780498 -1.47555,-1.326073 -2.43555,-1.638672 -0.964,-0.328278 -2.00967,-0.379664 -3.13867,-0.152344 -1.129,0.227318 -2.07494,0.679891 -2.83594,1.355469 -0.765,0.659899 -1.30328,1.476878 -1.61328,2.453125 -0.0784,0.247767 -0.13829,0.503022 -0.18164,0.763672 -0.49232,-0.85772 -1.16382,-1.528561 -2.01758,-2.009766 -0.88,-0.511999 -1.89685,-0.769531 -3.04883,-0.769531 -1.152,0 -2.16687,0.257532 -3.04687,0.769531 -0.88,0.495998 -1.56846,1.191874 -2.06446,2.087891 -0.32024,0.578493 -0.53495,1.220567 -0.64843,1.925781 L 109.624,20.792033 c -0.189,-1.395265 -0.69086,-2.417729 -1.50586,-3.066406 -0.816,-0.664528 -1.89066,-0.906753 -3.22266,-0.726563 -1.142,0.154448 -2.16155,0.606053 -3.06055,1.357422 z m -40.328127,0.04687 -0.625,13.02539 -0.761719,-4.771484 -5.058594,0.728515 0.626954,3.929688 c -0.8102,0.461799 -1.640001,0.802925 -2.25,0.890625 -2.312798,0.332399 -4.284804,-1.110523 -4.658204,-3.449219 -0.365799,-2.290425 1.042591,-4.220039 3.330079,-4.548828 1.474098,-0.21188 3.313952,0.239076 4.68164,1.152344 l 2.716797,-4.3125 c -2.160298,-1.317297 -5.34709,-1.894283 -8.117187,-1.496094 -5.820185,0.836588 -9.457356,5.083608 -8.660157,10.074219 0.8009,5.014989 5.453228,8.094311 11.044922,7.291015 2.329878,-0.334882 5.152811,-1.528132 6.980469,-2.910156 l -0.07031,1.472656 7.806641,0.337891 c 6.086184,0.262599 10.176982,-2.930251 10.425781,-8.119141 0.2488,-5.188839 -3.443016,-8.691126 -9.375,-8.947265 z m 5.746094,4.642578 1.953125,0.08398 c 2.311087,0.09979 3.7465,1.820301 3.625,4.353516 -0.1203,2.509195 -1.58509,4.057943 -3.742188,3.964843 l -2.234375,-0.0957 z m 60.142583,2.111328 c 0.63108,-0.01078 1.18556,0.168215 1.66406,0.537109 0.634,0.476168 1.05753,1.240121 1.26953,2.291016 0.211,1.050897 0.1187,1.926754 -0.2793,2.626953 -0.4,0.684597 -1.05584,1.117681 -1.96484,1.300781 -0.91,0.1832 -1.68336,0.03664 -2.31836,-0.439453 -0.637,-0.491899 -1.06244,-1.263556 -1.27344,-2.314453 -0.212,-1.050897 -0.11679,-1.917065 0.28321,-2.601562 0.398,-0.700238 1.05289,-1.143053 1.96289,-1.326172 0.22725,-0.04578 0.44589,-0.07063 0.65625,-0.07422 z M 115.69037,20.8682 c 0.92798,0 1.65755,0.30411 2.18555,0.912109 0.528,0.591997 0.79102,1.424097 0.79102,2.496094 0,1.071997 -0.26302,1.913485 -0.79102,2.521484 -0.528,0.591998 -1.25757,0.886719 -2.18555,0.886719 -0.928,0 -1.65559,-0.294721 -2.18359,-0.886719 -0.528,-0.607999 -0.79102,-1.449487 -0.79102,-2.521484 0,-1.071997 0.26302,-1.904097 0.79102,-2.496094 0.528,-0.607999 1.25559,-0.912109 2.18359,-0.912109 z"
   class="gdschoolLogoText gdschoolLogoColorA" /><metadata
   id="metadata5571"><rdf:RDF><cc:Work
       rdf:about=""><dc:title>GD School Logo</dc:title></cc:Work></rdf:RDF></metadata></svg>
