<?xml version="1.0" encoding="UTF-8" standalone="no"?>
<!-- Created with Inkscape (http://www.inkscape.org/) -->

<svg
   version="1.1"
   id="svg2"
   width="700.28796"
   height="195.85435"
   viewBox="0 0 700.28796 195.85435"
   sodipodi:docname="github-logo.svg"
   inkscape:version="1.2.2 (b0a8486541, 2022-12-01)"
   xmlns:inkscape="http://www.inkscape.org/namespaces/inkscape"
   xmlns:sodipodi="http://sodipodi.sourceforge.net/DTD/sodipodi-0.dtd"
   xmlns="http://www.w3.org/2000/svg"
   xmlns:svg="http://www.w3.org/2000/svg">
  <defs
     id="defs6" />
  <sodipodi:namedview
     id="namedview4"
     pagecolor="#ffffff"
     bordercolor="#000000"
     borderopacity="0.25"
     inkscape:showpageshadow="2"
     inkscape:pageopacity="0.0"
     inkscape:pagecheckerboard="0"
     inkscape:deskcolor="#d1d1d1"
     showgrid="false"
     inkscape:zoom="0.84595336"
     inkscape:cx="630.05837"
     inkscape:cy="482.88714"
     inkscape:window-width="2560"
     inkscape:window-height="1515"
     inkscape:window-x="0"
     inkscape:window-y="48"
     inkscape:window-maximized="1"
     inkscape:current-layer="g505">
    <inkscape:page
       x="0"
       y="0"
       id="page8"
       width="700.28796"
       height="195.85435" />
  </sodipodi:namedview>
  <g
     id="g10"
     inkscape:groupmode="layer"
     inkscape:label="Page 1"
     transform="matrix(1.3333333,0,0,-1.3333333,76.165303,938.69427)">
    <g
       id="g505">
      <path
         d="m 177.281,628.64133 h -30.267 c -0.781,0 -1.414,-0.634 -1.414,-1.416 v -14.797 c 0,-0.781 0.633,-1.417 1.414,-1.417 h 11.807 v -18.385 c 0,0 -2.651,-0.904 -9.981,-0.904 -8.647,0 -20.727,3.16 -20.727,29.724 0,26.568 12.579,30.064 24.388,30.064 10.223,0 14.626,-1.799 17.429,-2.666 0.881,-0.27 1.695,0.606 1.695,1.388 l 3.376,14.298 c 0,0.365 -0.124,0.806 -0.54,1.105 -1.138,0.811 -8.081,4.696 -25.621,4.696 -20.205,0 -40.932,-8.596 -40.932,-49.922 0,-41.326 23.73,-47.484 43.727,-47.484 16.557,0 26.601,7.075 26.601,7.075 0.414,0.229 0.459,0.807 0.459,1.073 v 46.152 c 0,0.782 -0.633,1.416 -1.414,1.416"
         style="fill:#161312;fill-opacity:1;fill-rule:nonzero;stroke:none;stroke-width:0.1"
         id="path30" />
      <path
         d="m 333.265,665.38033 c 0,0.787 -0.624,1.423 -1.406,1.423 h -17.042 c -0.778,0 -1.411,-0.636 -1.411,-1.423 0,-0.004 0.005,-32.935 0.005,-32.935 h -26.565 v 32.935 c 0,0.787 -0.626,1.423 -1.406,1.423 h -17.041 c -0.775,0 -1.408,-0.636 -1.408,-1.423 v -89.178 c 0,-0.787 0.633,-1.427 1.408,-1.427 h 17.041 c 0.78,0 1.406,0.64 1.406,1.427 v 38.144 h 26.565 c 0,0 -0.047,-38.141 -0.047,-38.144 0,-0.787 0.632,-1.427 1.412,-1.427 h 17.082 c 0.781,0 1.405,0.64 1.407,1.427 v 89.178"
         style="fill:#161312;fill-opacity:1;fill-rule:nonzero;stroke:none;stroke-width:0.1"
         id="path32" />
      <path
         d="m 209.44,653.67833 c 0,6.136 -4.919,11.095 -10.989,11.095 -6.064,0 -10.988,-4.959 -10.988,-11.095 0,-6.131 4.924,-11.103 10.988,-11.103 6.07,0 10.989,4.972 10.989,11.103"
         style="fill:#161312;fill-opacity:1;fill-rule:nonzero;stroke:none;stroke-width:0.1"
         id="path34" />
      <path
         d="m 208.222,595.01333 c 0,2.286 0,41.165 0,41.165 0,0.782 -0.631,1.421 -1.41,1.421 h -16.989 c -0.779,0 -1.476,-0.804 -1.476,-1.585 0,0 0,-49.535 0,-58.977 0,-1.733 1.08,-2.249 2.477,-2.249 0,0 7.252,0 15.306,0 1.68,0 2.092,0.825 2.092,2.277 0,3.161 0,15.545 0,17.948"
         style="fill:#161312;fill-opacity:1;fill-rule:nonzero;stroke:none;stroke-width:0.1"
         id="path36" />
      <path
         d="m 398.032,637.46533 h -16.911 c -0.775,0 -1.407,-0.64 -1.407,-1.426 v -43.727 c 0,0 -4.297,-3.143 -10.395,-3.143 -6.097,0 -7.715,2.767 -7.715,8.738 0,5.978 0,38.132 0,38.132 0,0.786 -0.63,1.426 -1.407,1.426 h -17.164 c -0.774,0 -1.409,-0.64 -1.409,-1.426 0,0 0,-23.286 0,-41.02 0,-17.735 9.884,-22.073 23.481,-22.073 11.156,0 20.15,6.162 20.15,6.162 0,0 0.428,-3.248 0.622,-3.633 0.193,-0.384 0.698,-0.772 1.244,-0.772 l 10.919,0.049 c 0.774,0 1.409,0.64 1.409,1.423 l -0.006,59.864 c 0,0.786 -0.631,1.426 -1.411,1.426"
         style="fill:#161312;fill-opacity:1;fill-rule:nonzero;stroke:none;stroke-width:0.1"
         id="path38" />
      <path
         d="m 437.584,589.22333 c -5.866,0.178 -9.845,2.84 -9.845,2.84 v 28.241 c 0,0 3.925,2.406 8.741,2.836 6.09,0.545 11.958,-1.294 11.958,-15.822 0,-15.319 -2.648,-18.343 -10.854,-18.095 z m 6.67,50.245 c -9.605,0 -16.138,-4.286 -16.138,-4.286 v 30.198 c 0,0.787 -0.63,1.423 -1.406,1.423 h -17.091 c -0.777,0 -1.408,-0.636 -1.408,-1.423 v -89.178 c 0,-0.787 0.631,-1.427 1.41,-1.427 0.002,0 11.854,0 11.858,0 0.534,0 0.938,0.275 1.237,0.757 0.295,0.48 0.72,4.112 0.72,4.112 0,0 6.988,-6.622 20.217,-6.622 15.532,0 24.439,7.877 24.439,35.365 0,27.489 -14.226,31.081 -23.838,31.081"
         style="fill:#161312;fill-opacity:1;fill-rule:nonzero;stroke:none;stroke-width:0.1"
         id="path40" />
      <path
         d="m 257.202,637.60733 h -12.784 c 0,0 -0.019,16.885 -0.019,16.888 0,0.64 -0.33,0.959 -1.069,0.959 h -17.42 c -0.678,0 -1.041,-0.298 -1.041,-0.949 v -17.452 c 0,0 -8.73,-2.107 -9.321,-2.278 -0.587,-0.17 -1.02,-0.712 -1.02,-1.359 v -10.967 c 0,-0.789 0.63,-1.425 1.409,-1.425 h 8.932 c 0,0 0,-11.471 0,-26.384 0,-19.597 13.746,-21.522 23.021,-21.522 4.239,0 9.309,1.361 10.146,1.67 0.506,0.186 0.8,0.711 0.8,1.279 l 0.015,12.065 c 0,0.786 -0.665,1.423 -1.413,1.423 -0.746,0 -2.651,-0.303 -4.613,-0.303 -6.28,0 -8.407,2.919 -8.407,6.699 0,3.776 -0.001,25.073 -0.001,25.073 h 12.785 c 0.779,0 1.41,0.636 1.41,1.425 v 13.737 c 0,0.787 -0.631,1.421 -1.41,1.421"
         style="fill:#161312;fill-opacity:1;fill-rule:nonzero;stroke:none;stroke-width:0.1"
         id="path42" />
      <path
         fill-rule="evenodd"
         clip-rule="evenodd"
         d="m 17.627813,704.02072 c -41.335811,0 -74.751792,-33.66233 -74.751792,-75.30722 0,-33.28898 21.41077,-61.46741 51.1131869,-71.44064 3.713566,-0.74975 5.07383102,1.62038 5.07383102,3.61411 0,1.74585 -0.12240902,7.73009 -0.12240902,13.96527 -20.7941399,-4.48933 -25.1243399,8.97714 -25.1243399,8.97714 -3.341751,8.72772 -8.293173,10.97085 -8.293173,10.97085 -6.805911,4.61327 0.495754,4.61327 0.495754,4.61327 7.549542,-0.49881 11.510986,-7.73009 11.510986,-7.73009 6.681974,-11.46967 17.4493289,-8.22891 21.78105892,-6.23365 0.61816204,4.86267 2.59964908,8.22891 4.70354508,10.0987 -16.584817,1.74585 -34.034146,8.2289 -34.034146,37.15556 0,8.2289 2.968405,14.96137 7.671951,20.19739 -0.742102,1.86979 -3.341751,9.60142 0.743631,19.94952 0,0 6.311689,1.99526 20.5432029,-7.73009 a 71.869073,71.869073 0 0 0 18.6887131,2.49407 c 6.311686,0 12.745781,-0.87369 18.687182,-2.49407 14.233044,9.72535 20.544731,7.73009 20.544731,7.73009 4.085384,-10.3481 1.484205,-18.07973 0.742101,-19.94952 4.827486,-5.23602 7.673479,-11.96849 7.673479,-20.19739 0,-28.92666 -17.449325,-35.28424 -34.158081,-37.15556 2.723589,-2.36861 5.073831,-6.85641 5.073831,-13.96375 0,-10.0987 -0.122408,-18.20367 -0.122408,-20.69621 0,-1.99526 1.361794,-4.36539 5.073831,-3.61717 29.702417,9.97629 51.113187,38.15319 51.113187,71.44217 0.12241,41.64489 -33.415981,75.30722 -74.627853,75.30722 z"
         fill="#24292f"
         id="path167"
         style="fill:#000000;stroke-width:0.750001" />
    </g>
  </g>
</svg>
