<svg height="177.2708mm" viewBox="0 0 354.54169 177.2708" width="354.54169mm" xmlns="http://www.w3.org/2000/svg" xmlns:xlink="http://www.w3.org/1999/xlink"><linearGradient id="a" gradientTransform="matrix(.95721995 .01323488 -.01323488 .95721995 96.065756 1910.4804)" gradientUnits="userSpaceOnUse" x1="-695.59784" x2="-868.70563" xlink:href="#b" y1="-450.16214" y2="-347.00134"/><linearGradient id="b"><stop offset="0" stop-color="#c5e63b"/><stop offset="1" stop-color="#4cce13"/></linearGradient><linearGradient id="c" gradientUnits="userSpaceOnUse" x1="-766.49815" x2="-766.49815" xlink:href="#b" y1="61.55602" y2="26.10186"/><linearGradient id="d" gradientUnits="userSpaceOnUse" x1="-537.633361" x2="-537.633361" xlink:href="#b" y1="67.3862" y2="41.9863"/><linearGradient id="e" gradientTransform="matrix(.99999997 0 0 -.99999997 1635.1496 4729.9207)" gradientUnits="userSpaceOnUse" x1="-2490.3789" x2="-2490.3789" xlink:href="#b" y1="4648.4736" y2="4525.1763"/><g transform="translate(858.04378 -30.162539)"><path d="m-858.04378 207.43334h354.5417v-177.270801h-354.5417z" fill="url(#e)"/><path d="m-855.71238 68.555938 347.65211-19.976099 2.41379 147.400901-345.2201 8.3766z" fill="#243367"/><path d="m-852.42738 36.439539 344.20658 1.9297-.89799 162.787201-344.20649-1.9296z" fill="#fff"/><path d="m-849.13638 39.585839 337.58951 1.8926-.86281 156.531601-337.5896-1.8924z" fill="#293252"/><path d="m-557.2927 62.751133-8.4677.771023-2.45152 13.009007c-3.17394.776023-6.22863 1.858327-9.14569 3.222043l-10.60762-8.134403-6.89414 4.824015 4.41263 12.265396c-2.38217 2.277189-4.52672 4.806209-6.3996 7.546816l-13.00282-1.844834-3.46802 7.585574 9.91774 8.42119c-.42706 1.5939-.71681 3.23823-1.06143 4.88085-.28151 1.6597-.46778 3.31311-.55501 4.96041l-12.07368 4.74442.88418 8.30906 12.89638 2.50579c.90442 3.2054 2.12899 6.29433 3.65662 9.22734l-8.0672 10.17455 4.99348 6.81252 12.61422-4.24108c2.32728 2.24139 4.89067 4.26693 7.64966 6.03993l-1.8071 13.12582 7.7716 3.48247 8.93175-10.16785c1.5094.40441 3.06679.68759 4.64056.93379h.007l22.73142 3.80391 5.27772-32.3293-22.73607-3.81217-1.65933 10.0547c-14.30475-2.39922-24.03554-15.6985-21.74999-29.71189 2.28846-14.0094 15.72993-23.418538 30.03074-21.02353l22.72934 3.81011 3.6334-22.277709-22.72316-3.808571c-1.56901-.284189-3.13341-.486913-4.68707-.629418zm41.08588 39.228107-8.93797 10.16629c-1.50805-.40409-3.05866-.68715-4.63381-.93223l-22.73816-3.80545-3.62923 22.26427 22.72988 3.81061a26.261204 25.700654 15 0 1 21.25556 19.33215l.26974-48.88797zm3.97494 63.81572a26.261204 25.700654 15 0 1 -29.4659 18.42371l-22.73298-3.79719-2.82308 17.2811 54.84421.3075z" fill="#252d4b"/><path d="m-816.12341 39.770616.91054 12.029757c-3.46511 1.900105-6.69536 4.120277-9.67639 6.62649l-14.93864-6.182572-6.54429 7.793831 8.99478 12.948576c-2.07013 3.406193-3.78376 7.031488-5.1139 10.819474l-6.89363.837169-.0879 15.979909 3.75844 1.77921c0 1.9956.17679 4.00746.28834 6.03425.19068 2.02721.49003 4.01725.90382 5.96916l-5.04722 3.72846-.0812 14.75414 11.99359-.83976c2.06004 3.46181 4.45749 6.6874 7.16029 9.6356l-6.23994 14.41204 7.96695 6.39598 13.4085-8.90334c3.42051 1.89 7.04948 3.45353 10.82776 4.66122l1.99781 15.90032 10.1694 1.63558 7.25175-14.67509c1.89 0 3.7977-.15621 5.71336-.36121h.008l27.74715-2.67219-3.95428-39.42138-27.7554 2.66393 1.20869 12.26593c-17.46236 1.67489-32.99396-10.81633-34.71052-27.90323-1.71194-17.083082 11.04624-32.283554 28.50316-33.962256l27.74715-2.663401-2.72955-27.163713-27.73836 2.663402c-1.92196.159094-3.81336.412353-5.67304.73226l-4.18682-5.433271zm69.63297 25.480116-7.26001 14.675061c-1.88831 0-3.78817.154517-5.70508.361236l-27.75593 2.672186 2.73005 27.146645 27.74715-2.6634a31.762462 31.084486 0 0 1 34.7183 27.89444 31.762462 31.084486 0 0 1 -28.51144 33.97104l-27.74715 2.67994 2.45981 24.54579 25.93795.14521 2.07894-.19947c1.91693-.1591 3.81087-.41185 5.66425-.73173l.75499.97874 18.30535.10285-.57052-7.59283c3.46176-1.89971 6.70616-4.12186 9.68468-6.62646l14.92985 6.19082 6.54429-7.79383-8.98549-12.94857c2.0651-3.4062 3.78029-7.03816 5.11339-10.82776l15.76028-1.90738 1.68515-9.95598-14.22288-6.72518c.1751-1.99189-.17619-4.00915-.28734-6.03425-.19108-2.02721-.49162-4.0246-.92139-5.97688l12.61163-9.31468-3.63389-9.43819-15.84193 1.12654c-2.05877-3.46178-4.46466-6.69436-7.16957-9.643851l6.24043-14.403785-7.95866-6.395984-13.42504 8.903335c-3.42217-1.889999-7.03421-3.447468-10.81122-4.653466l-2.00607-15.899791z" fill="#2f395f"/><path d="m-503.50208 61.218439-354.5417-10.7447v-20.3112h354.5417z" fill="url(#d)"/><path d="m-858.04378 77.706638 354.54148-33.433599v-14.1105h-354.54148z" opacity=".394"/><path d="m-858.04378 73.899638 354.54148-33.433699v-10.3034h-354.54148z" fill="url(#c)"/><path d="m-699.21486 36.272039a.63333006.63333006 0 0 0 -.1865.021l-.7174.1937c-2.7644.742-4.6992 3.2596-4.7028 6.1224 0 3.1442 2.3294 5.7995 5.3876 6.2679l.011.061.095.9627a.63333006.63333006 0 0 0 .6941.5678l2.2029-.2244.4714.6425a.63333006.63333006 0 0 0 .6741.2374l.7174-.1921c1.8098-.4853 3.2173-1.7546 4.0058-3.359.9608.5915 2.079.9639 3.3083.7837.5593-.082 1.0844-.2709 1.5881-.4858l2.9678.1307a.63333006.63333006 0 0 0 .012 0c1.2818.034 2.6002-.2235 3.4748-1.0379.9911.7616 2.2195 1.2433 3.5743 1.0754.069-.01.065-.02.1199-.032l.546.6933a.63333006.63333006 0 0 0 .873.1173l1.4405-1.0619c.4185.167.8396.3484 1.3317.3272.2122-.01.214-.045.3125-.084a.63333006.63333006 0 0 0 .1908.022l3.2857-.1416a.63333006.63333006 0 0 0 .4766-.251c.1214.034.1375.085.2976.093.5288.027 1.0124-.099 1.4858-.2379.9866.5828 2.1015.686 3.1157.5184.3702-.061.7374-.2095 1.0981-.3714.3127.1379.6282.2809.9833.3084.7291.057 1.4345-.1009 2.0513-.4017l.7731-.3767a.63333006.63333006 0 0 0 .3405-.7093l-.4285-1.8846a.63333006.63333006 0 0 0 .3714-.5262l.2455-2.945a.63333006.63333006 0 0 0 -.5823-.6838l-.6664-.052.049-.5742a.63333006.63333006 0 0 0 -.5824-.6839l-3.2604-.2523a.63333006.63333006 0 0 0 -.6798.5795l-.049.5796-.031-.01a.63333006.63333006 0 0 0 -.4936.1817c-.1409-.022-.1804-.065-.4149-.027-.3382.057-.6546.203599-.9711.343099-.5572-.368-1.1973-.657699-1.9483-.697199-.496-.026-.9243.1159-1.3466.2512a.63333006.63333006 0 0 0 -.1889-.021l-3.2356.139199a.63333006.63333006 0 0 0 -.011 0l-.046.01-1.5612.064c-1.0478-1.0323-2.5156-1.6179-4.0819-1.4237-.9473.1174-1.7572.5365-2.448 1.0782-.9151-.6981-2.0012-1.0769-2.9295-1.1023l-3.7369-.1653a.63333006.63333006 0 0 0 -.6588.5728c-.6236-.1376-1.2675-.2189-1.9385-.1205-1.2565.1841-2.2527.8622-3.0226 1.7123-.9425-1.1137-2.1745-1.9957-3.6867-2.2519l-.011-.066-.098-.9643a.63333006.63333006 0 0 0 -.6939-.5677l-2.2045.2259-.478-.6468a.63333006.63333006 0 0 0 -.48711-.2561zm-.02.6327.69249.9363 2.56321-.2613.1538 1.5345h.011c1.8097.1223 3.3043 1.142 4.2631 2.5498.6806-1.0009 1.7708-1.7537 3.1123-1.9503.8323-.122 1.6597.019 2.4425.2844l.034-.7301 3.7479.1654c.9277.026 2.1515.3982 2.9705 1.2156.6611-.6288 1.5165-1.0746 2.5016-1.1967 1.507-.187 2.9515.3776 3.8522 1.4367l1.7449-.073.049-.01 3.2364-.1389v.05c.4617-.1848.9517-.307601 1.4732-.280301.7393.039 1.3793.336101 1.9138.751701.3608-.199201.7536-.3403 1.1436-.404601.2506-.041.4903.061.7412.063l.015-.211001.6597.051.1009-1.2071 3.25989.252299-.1 1.2085 1.3008.101801-.24541 2.9452-.53059-.041.6011 2.644699-.7728.3769c-.52421.255201-1.1183.386001-1.7254.3391-.3488-.027-.7088-.153399-1.0405-.331499-.3713.2055-.7815.3327-1.1934.400699-.903.149201-1.8597.057-2.6954-.439199l-.1762-.104201c-.4962.185301-1.032.284701-1.5947.255101-.3151-.016-.5619-.1997-.85331-.2898l.02.447399-3.2859.1417-.011-.086c-.1704.037-.3253.140899-.4968.1482-.5186.022-1.0122-.129701-1.4604-.3659l-1.6598 1.2235-.8029-1.017701c-.1501.034-.2826.100701-.4394.120101-1.3853.1717-2.6805-.3363-3.5855-1.234-.6086.8972-1.9796 1.228799-3.369 1.192699l-3.0624-.134999c-.5163.235-1.0597.4156-1.6141.496799-1.3245.194101-2.5647-.233599-3.4914-1.015199-.619 1.730199-2.0463 3.1093-3.8942 3.6049l-.7173.1925-.6848-.935001-2.5632.2604-.1543-1.533399h-.011c-2.98719-.201899-5.32879-2.702399-5.32879-5.696499.011-2.5785 1.7445-4.8442 4.2352-5.5122zm-.4539 1.2615-.6066.2231.076 1.0039c-.21781.1195-.4212.259-.6086.4166l-.9386-.3891-.4115.4902.56519.8138c-.13009.2141-.23769.4422-.32129.6803l-.99121.1202-.10539.6254.894.4229c0 .1255.011.2522.018.3796.012.1275.031.2527.057.3753l-.793.5857.2282.593.9963-.07c.1295.2176.2803.4207.4502.606l-.3923.9057.5008.4022.8428-.56c.215.1188.4429.2169.6804.2929l.1257.9994.6393.103.4559-.9222c.1188 0 .2386-.01.359-.023h.00053l1.7439-.1679-.2483-2.4777-1.7446.1673.076.7711h-.00027c-1.0976.1052-2.0739-.6799-2.1818-1.754-.1076-1.0737.6944-2.0292 1.7917-2.1347l1.7442-.1676-.1713-1.7072-1.744.1675c-.1208.01-.23959.026-.3565.046zm3.789 2.0723-.4564.9222c-.1187 0-.2381.01-.3586.023l-1.7445.1676.1712 1.7068 1.7442-.1675a1.9964771 1.953862 0 0 1 2.1824 1.7534 1.9964771 1.953862 0 0 1 -1.7923 2.1352l-1.7441.1683.17119 1.7068 1.74461-.1675c.1205-.01.2394-.026.3559-.046l.6313.8181.60629-.2229-.075-1.004c.2176-.1194.42139-.2592.6086-.4166l.93859.389.41121-.49-.56501-.814c.12981-.2141.2379-.442.32171-.6802l.9907-.1201.1055-.6256-.894-.423c.011-.1252-.011-.2521-.018-.3794-.012-.1274-.031-.2527-.058-.3754l.7929-.5856-.2282-.5933-.9959.071c-.1294-.2176-.2805-.4207-.4505-.6061l.3923-.9056-.5006-.4022-.8435.56c-.2151-.1188-.4425-.217-.6799-.2928l-.126-.9995zm10.9597.1615-.2072 4.4046-.25261-1.6129-1.67779.2459.2082 1.329c-.26881.1564-.54381.272-.74611.3016-.7673.1124-1.4214-.3756-1.54519-1.1665-.1215-.7748.3454-1.4271 1.104-1.5383.4893-.071 1.09969.081 1.5533.3893l.9012-1.4579c-.7167-.4457-1.77351-.6412-2.6926-.5065-1.9304.283-3.1368 1.7194-2.8726 3.4073.2657 1.6962 1.8088 2.7377 3.6637 2.4659.7744-.1134 1.7096-.519 2.3158-.9877l-.023.5019 2.5892.1138c1.7183.075 2.9537-.6971 3.3356-2.0101.4195 1.3808 1.8258 2.257 3.436 2.0574.3552-.044.686-.1376.9882-.2699l.589.7478.8834-.6509-.554-.7034c.3756-.3581.6468-.802.7848-1.2956l.026.5872c.049 1.0381.7077 1.6619 1.7298 1.6179.7241-.031 1.257-.3261 1.5453-.9248l.037.8158 1.116-.048-.075-1.6419c.2816.8314 1.0401 1.3822 2.1 1.4379.8002.042 1.48-.2029 1.958-.6569l-.5622-.6326c-.3415.3043-.7854.4544-1.2538.4299-.6641-.034-1.1364-.4399-1.2461-1.0735l3.3629.1768c.011-.09.019-.1773.024-.2635.6511.7987 2.3192.2986 2.4404.9855.052.2845-.214.4538-.5922.5163-.4876.081-1.1442-.011-1.6161-.2852l-.2472.8022c.541.3207 1.2843.4154 1.9651.3029.6033-.1001 1.1192-.3613 1.38-.7623.195.4199.6129.6423 1.1133.6813.3995.031.8-.053 1.1656-.2318l-.1875-.8255c-.2562.096-.4744.145-.6614.1305-.2974-.024-.4641-.1765-.4293-.5959l.1647-1.9815 1.3005.1014.064-.7809-1.3004-.1014.101-1.2082-1.0965-.086-.1 1.2085-.646-.051-.012.1816c-.4716-.1691-1.0436-.2172-1.5721-.1299-.6302.1041-1.1682.3994-1.3852.8696-.2736-.7135-.897-1.15-1.9056-1.2029-1.2202-.064-2.1513.617-2.3869 1.7241l-.065-1.4466-1.1159.047.1 2.1754c.034.7085-.3683 1.2706-1.0833 1.3096-.6134.026-.9967-.3287-1.0251-.9468l-.1123-2.4471-1.1162.048.019.4121c-.4786-1.2809-1.8357-2.0669-3.3802-1.8755-1.3047.1617-2.2966.9622-2.6519 2.026-.3377-1.1987-1.432-1.9682-3.00171-2.0372zm8.66849 1.093c1.00311-.028 1.8963.6722 2.03071 1.6847.071.5291-.083 1.0295-.38411 1.4183l-.45049-.5717-.88351.6512.44621.5665c-.1432.052-.2934.091-.4513.111-1.0911.1352-2.1253-.601-2.2684-1.6808-.14331-1.0798.6596-2.0277 1.7591-2.1641.067-.01.1348-.013.20179-.015zm-6.7622.4769.64731.028c.7666.034 1.2427.6162 1.2027 1.473-.04.8486-.5254 1.3723-1.241 1.3408l-.7412-.033zm16.4211.3882h.1206c.68961.036 1.11801.4715 1.10711 1.1234l-2.3842-.1251c.13019-.6048.56249-.9834 1.15649-1.0002zm5.00991.2349.60589.047-.12769 1.539c-.6525-.8535-2.3851-.3653-2.4965-.9962-.048-.2682.1849-.4236.53789-.482.38671-.063.90821 0 1.3898.1803z" fill="#fff"/><g stroke-width=".943009" transform="matrix(1.0604352 0 0 1.0604352 27.409879 -1487.9286)"><path d="m-719.90565 1505.4035 108.16735 1.4955-.80225 58.0236-108.16734-1.4956z" opacity=".368"/><path d="m-721.51757 1501.9316 108.16735 1.4955-.80225 58.0236-108.16735-1.4956z" fill="url(#a)"/><g fill="#fff"><g stroke-width=".231199" transform="matrix(1.078322 -.01526517 .01528626 1.0798122 198.03863 1930.6699)"><path d="m-810.78337-397.95333c-.33052.1361-.66103.22359-.89434.22359-.88462 0-1.53594-.68048-1.53594-1.62343 0-.92351.64159-1.60399 1.5165-1.60399.56382 0 1.22486.28192 1.68175.71937l1.27347-1.54566c-.72909-.6416-1.8859-1.04988-2.9455-1.04988-2.22614 0-3.83985 1.46789-3.83985 3.48016 0 2.02199 1.55538 3.49961 3.69403 3.49961.97211 0 2.22614-.36941 2.98439-.87491v-2.8094h-1.93451z"/><path d="m-804.60772-402.83333c-2.16781 0-3.74263 1.44844-3.74263 3.47044 0 2.03171 1.57482 3.50933 3.74263 3.50933s3.74264-1.48734 3.74264-3.50933c0-2.01227-1.57483-3.47044-3.74264-3.47044zm.0292 1.87617c.77769 0 1.39984.67076 1.39984 1.60399s-.62215 1.62343-1.39984 1.62343-1.45817-.6902-1.45817-1.62343.67075-1.60399 1.45817-1.60399z"/><path d="m-797.1829-402.76529h-3.04272v6.81451h2.95523c2.30391 0 3.79124-1.34151 3.79124-3.41211s-1.45817-3.4024-3.70375-3.4024zm.0583 5.06471h-.84573v-3.3149h.7388c.8749 0 1.44845.66103 1.44845 1.67203 0 1.00128-.52494 1.64287-1.34152 1.64287z"/><path d="m-789.43744-402.83333c-2.16781 0-3.74263 1.44844-3.74263 3.47044 0 2.03171 1.57482 3.50933 3.74263 3.50933s3.74263-1.48734 3.74263-3.50933c0-2.01227-1.57482-3.47044-3.74263-3.47044zm.0292 1.87617c.77769 0 1.39985.67076 1.39985 1.60399s-.62216 1.62343-1.39985 1.62343-1.45817-.6902-1.45817-1.62343.67076-1.60399 1.45817-1.60399z"/><path d="m-785.77759-402.76529v1.77897h1.93451v5.03554h2.2553v-5.03554h1.94422v-1.77897z"/></g><path d="m-654.73827 1516.5639.00051.0005.00095.0006c-1.55271-.037-3.10805.7673-3.53715 2.5699-.10103.012-.18966.059-.28937.077v-.055l-8.21755-.011-.003 2.9969c-3.35539-1.5302-5.88318-1.1176-8.51683 1.1631-2.35814-3.6515-7.73361-3.5501-10.8558-.748l-.91967.037-.1103-2.7466-2.08667.084-5.33094.2132c-2.10638-.9181-3.74652-1.2185-6.03539-1.0453h-.003-.003c-1.9639.155-3.72208.7588-5.04103 1.9312-1.31889 1.1726-2.06671 2.9857-1.92192 4.8239.0844 1.0723.54269 1.9719 1.11061 2.7451l-1.89424 4.7472 1.44357.933c2.0964 1.3556 4.66995 1.8818 7.14451 1.7968l.0707 4.5904 3.56978-.057.14397 9.3079 8.34072-.1292-.0128-.8019c1.08453.7032 2.29907 1.2359 3.70138 1.3892 1.93548.2115 3.78803-.1348 5.28196-1.0939.39237-.2518.66229-.643.98989-.9725l.13012-.1385.16522.1182c1.58587 1.2014 3.64688 1.8326 5.84395 1.5311.86253-.1183 1.64534-.4047 2.39733-.7307l-.10833 1.7706 8.20121.5046.0539-.8806 5.25376.1534 3.70929.1084.0139.6301 8.21554-.1721-.0484-2.294c.83494.4628 1.74673.7939 2.74464.849 0 .0001-.00049 0 .003 0 1.3438.083 2.62451-.019 3.88543-.6525l1.39455-.7016-.95725-5.3061.79451.051.33491-5.329c.0336 0 .0597.013.0935.013 1.99764.013 3.85388-.5044 5.28392-1.6379 1.43005-1.1336 2.32763-2.9369 2.34095-4.8744l.0767-11.108-7.92514-.055c-.24228-.033-.46507-.1477-.71091-.1494-1.47949-.011-2.84874.6117-3.91757 1.5667-1.23949-2.2366-3.4058-2.6812-6.6968-2.2905l-3.96604.4245c-.1096-1.9791-1.86598-3.1033-3.6257-3.1458zm.0247 1.8606c.96867.018 1.61973.713 1.60134 1.683-.0179.9521-.69444 1.6227-1.66319 1.6044-.96868-.018-1.61976-.7141-1.60185-1.6662.0171-.9095.61298-1.5545 1.48559-1.6168h.17811zm9.65909 2.5744c1.86737-.03 3.28878 1.2538 3.51488 3.364l.66836 6.2348-4.01354.4309-.54368-5.0732c-.0881-.8217-.6078-1.29-1.30356-1.2155-.78496.084-1.21751.7639-1.11606 1.7107l.51896 4.8407-4.01405.4309-1.04728-9.772 4.01403-.4309.14939 1.3937c.55281-1.0711 1.50844-1.7523 2.79261-1.8903.12804-.013.2557-.021.37994-.024zm-12.60554.068-.002 3.6465c-1.8119-.2713-2.99838.3745-2.99838 1.6681l-.004 4.6893h-4.0373l.009-9.8277h4.0373l-.002 1.4371c.68276-1.0235 1.72355-1.6142 2.99742-1.6142zm-42.06869.085c1.75301-.012 3.52575.4024 4.82385 1.0884l-1.25406 3.2704c-1.32494-.5983-3.33553-1.2145-4.42662-1.1283-.46506.036-.75738.2041-.72769.5802.12413 1.5762 6.53879.079 6.89715 4.628.22007 2.7942-2.13282 4.2238-4.95891 4.4469-2.18219.1722-4.67247-.3705-6.43612-1.5108l1.29268-3.2374c1.37247.9731 3.65975 1.675 4.92971 1.5746.60815-.048.98605-.2764.95085-.7242-.12843-1.63-6.53723-.042-6.88432-4.4484-.19748-2.5076 1.78908-4.2503 5.0445-4.5072.24815-.019.49853-.031.74898-.033zm10.53966.8687.11034 2.7466 2.29492-.093.1024 2.5493-2.29443.092.11874 2.9628c.0209.5206.33834.831.82169.7939.23305-.01.62367-.1331.99436-.2918l.79152 2.7372c-.63027.4029-1.73249.6811-2.77231.7228-2.24027.1079-3.7451-1.1443-3.82704-3.1909l-.14296-3.5722-1.3446.054-.10241-2.5493 1.3441-.054-.10983-2.7471zm52.64398.079c1.05859.01 1.91714.391 2.52249 1.078l.006-.9167 4.01895.028-.0618 9.019c-.0188 2.7309-2.27342 4.4587-5.52091 4.4361-1.88384-.013-3.60253-.6173-4.62054-1.3071l1.29316-2.7046c.85754.545 2.0386.8774 2.9895.8831 1.18414.01 1.83307-.4723 1.83882-1.2268l.007-.935c-.59664.6606-1.44291 1.0321-2.46561 1.0254-2.3145-.016-4.02416-1.8782-4.00414-4.7708.0193-2.8208 1.6827-4.6245 3.9972-4.6082zm-44.3072.5239v.0005c3.05559.01 4.99469 2.1179 5.08259 5.5254l-6.36389.5437c.33377.7469.93945 1.0917 1.72605 1.0245.67934-.058 1.35055-.4215 1.90954-1.0464l2.26723 1.8799c-.93919 1.2344-2.38618 2.0064-4.28116 2.1683-3.34305.2856-5.49507-1.5134-5.75291-4.5389-.26403-3.097 1.63983-5.2615 4.78624-5.5303.21336-.019.42261-.027.62631-.027zm24.02828.1637 4.03678.077-.18551 9.8263-4.0358-.077zm-13.10769.5858c2.7424.042 4.60413 1.9573 4.93072 5.136l-6.30401 1.0305c.38996.7191 1.0206 1.0163 1.79972.889.67291-.11 1.31493-.5244 1.82449-1.1902l2.40326 1.7002c-.84199 1.3027-2.22457 2.185-4.10159 2.4918-3.31134.5414-5.59519-1.0884-6.08389-4.0852-.50024-3.0677 1.2324-5.3716 4.34897-5.8811.21139-.034.41967-.059.62284-.075.19044-.013.37666-.02.55949-.017zm34.53235 1.6993c-.82533-.01-1.36907.6911-1.37579 1.769-.008 1.0601.52576 1.7644 1.35105 1.7701.82534.01 1.36857-.6917 1.37528-1.7517.008-1.078-.52525-1.7816-1.35054-1.7874zm-45.68496.2552v.0005c-.0424-.0009-.0856.0002-.12913 0-.69717.059-1.07723.6687-1.16798 1.506l2.43146-.2073c-.0141-.7595-.49926-1.2889-1.13435-1.3031zm10.56786.7762c-.0423 0-.0854.01-.12861.014-.69057.1129-1.02235.7498-1.04878 1.5915l2.40823-.3938c-.0674-.7058-.52879-1.1795-1.10566-1.2115-.0413 0-.0828 0-.12518 0zm22.23847 8.8701c.96868-.02 1.64596.6487 1.66663 1.6187.0198.9521-.62972 1.6484-1.59837 1.6691-.96868.02-1.64567-.6488-1.66616-1.6008-.0202-.9701.62924-1.6663 1.5979-1.687zm-13.17993.074 4.03532.1163-.17414 6.0527 2.35133-2.4844 4.55523.1315-3.67814 3.6862 3.34075 6.1372-4.78872-.1395-1.41733-3.1325-.49918.4888-.0742 2.5864-4.03532-.1168zm-24.94596.038.0509 3.2873-3.58858.055.14396 9.3059-4.16244.064-.14298-9.3054-3.57029.055-.0504-3.2874zm42.45406.1618 4.01106.2528-.17166 2.7436 2.29145.145-.1593 2.5457-2.29243-.1445-.18602 2.9589c-.0326.52.25152.8618.73611.8746.2328.014.63398-.068 1.0191-.1879l.50659 2.8044c-.66833.3359-1.79263.4991-2.83122.4339-2.23944-.1232-3.6086-1.5241-3.48023-3.5683l.2241-3.5678-1.34263-.085.15978-2.5463 1.34314.085zm-22.30476.3522 4.02938.2478-.81724 13.3067-4.02987-.2489zm-5.76725 2.058c2.70751.053 4.60481 1.6593 4.9693 4.3227.41655 3.0439-1.46363 5.3143-4.80554 5.7727-2.94654.4042-5.17574-.8564-5.94786-3.2462-.57768 2.6536-2.84273 4.1348-5.95327 3.7949-3.35324-.3666-5.29568-2.5854-4.96286-5.6397.33277-3.0542 2.70489-4.7833 6.05816-4.4167 2.39573.2618 4.06639 1.4636 4.70709 3.2403.4733-2.0008 2.17126-3.4037 4.72692-3.7543.41775-.057.82127-.081 1.20806-.074zm25.84484 1.6761.2043 9.8252-4.03579.084-.20431-9.8258zm-26.45532 1.5523c-.0537.001-.1082.01-.16375.013-.88881.122-1.35547.948-1.19964 2.0872.15594 1.1393.82686 1.8088 1.71564 1.6869.88879-.1219 1.35563-.9474 1.19966-2.0866-.14617-1.0681-.7452-1.7241-1.55191-1.7013zm-10.54214.5293c-.80699-.0005-1.38764.6713-1.50439 1.7429-.12456 1.1431.3642 1.9561 1.25606 2.0535.8918.098 1.54407-.5908 1.66864-1.7339.12449-1.1432-.36422-1.9551-1.25606-2.0525-.0558-.01-.11036-.01-.16425-.01z"/><path d="m-715.71025 1511.2955.63562 44.8994 95.15388-1.347-.63561-44.8994-22.30844.3158a.84240285.84240285 0 1 0 .0238 1.6839l20.62241-.2918.58793 41.5314-91.78391 1.2993-.58793-41.5314 20.62451-.292a.84240285.84240285 0 1 0 -.0238-1.6839z"/></g><g stroke-width="1.43588" transform="matrix(-.54195 -.21630626 -.21630626 .54195 -2924.3383 1537.9734)"><path d="m-3557.4312-1536.6475a3.1959954 3.1959954 0 0 0 -.2605.017v-.011c-2.6397.2546-5.3634.7431-8.0452 1.7024a3.1959954 3.1959954 0 0 0 -2.1042 2.7006c-.1316 1.3571-.1492 2.7107-.1906 4.0651-.4666.2191-.8078.333-1.3456.6642-.2293.1349-.5518.366-.8077.5151-.8967-.6958-1.7598-1.4194-2.7157-2.0569a3.1959954 3.1959954 0 0 0 -3.8292.2114c-2.0868 1.7545-4.1375 3.732-5.9315 6.0711a3.1959954 3.1959954 0 0 0 -.3661 3.2819c.6817 1.4803 1.4507 2.8745 2.242 4.2594l-1.2474 10.1267-.1755 1.4156-.1586 1.2888a3.1959954 3.1959954 0 0 0 -.025.3925v-.2056l-.2 1.555a3.1959954 3.1959954 0 0 0 -.017.1032c-.1.8389-.2121 1.8338-.2189 1.8891-.6626 5.3771 2.5286 10.025 7.0582 12.9161 4.5295 2.891 10.5314 4.6178 17.2132 5.4634h.015a3.1959954 3.1959954 0 0 0 .011 0h.015a3.1959954 3.1959954 0 0 0 .013 0c6.6875.7985 12.9297.5787 18.0247-1.1286 5.0951-1.7072 9.3151-5.4445 9.9777-10.8212.01-.053.14-1.0449.2472-1.8833a3.1959954 3.1959954 0 0 0 0-.034v-.018l.2114-1.8079-.1472 1.189-.053.011a3.1959954 3.1959954 0 0 0 -.2-.8832 3.1959954 3.1959954 0 0 0 .5378-1.4135l1.4456-11.7235c1.1043-1.1521 2.1895-2.321 3.2102-3.5913a3.1959954 3.1959954 0 0 0 .4397-3.2724c-1.1725-2.7052-2.6819-5.1187-4.2802-7.3263a3.1959954 3.1959954 0 0 0 -3.665-1.134c-1.0813.3867-2.0939.8801-3.1327 1.338-.2125-.2071-.468-.5094-.6587-.6964-.4417-.4521-.7443-.6426-1.1436-.9682.2884-1.3241.6001-2.6428.802-3.9915a3.1959954 3.1959954 0 0 0 -1.3871-3.1308c-2.3691-1.5805-4.8919-2.712-7.3922-3.5989a3.1959954 3.1959954 0 0 0 -3.5932 1.0531c-.7793 1.0046-1.438 2.0757-2.1326 3.1328-.1252-.021-.2592-.06-.3831-.079a3.1959954 3.1959954 0 0 0 -.3642-.08c.1246.021-.071-.011-.026 0a3.1959954 3.1959954 0 0 0 -.017 0 3.1959954 3.1959954 0 0 0 -.013 0c0-.0006-.01 0-.011 0-.011 0 .01 0 0 0a3.1959954 3.1959954 0 0 0 -.1132-.013c-.011 0-.021-.0009-.03 0a3.1959954 3.1959954 0 0 0 -.4397-.017c-.1176-.011-.2488 0-.3681-.015-.3785-1.0835-.7294-2.1672-1.187-3.2291a3.1959954 3.1959954 0 0 0 -.1-.2736c-.01-.019-.013-.037-.021-.055a3.1959954 3.1959954 0 0 0 -.095-.1999 3.1959954 3.1959954 0 0 0 -2.878-1.6986z" opacity=".248"/><path d="m-3559.4552-1552.743a3.9269417 3.9269417 0 0 0 -.32.021l.01-.012c-3.2434.3129-6.59.9131-9.8852 2.0916a3.9269417 3.9269417 0 0 0 -2.5854 3.3183c-.1618 1.6675-.1833 3.3307-.2342 4.9947-.5734.2696-.9926.4095-1.6534.8163-.2817.1655-.678.4499-.9924.6329-1.1018-.8551-2.1623-1.744-3.3368-2.5273a3.9269417 3.9269417 0 0 0 -4.7049.2596c-2.5642 2.1559-5.0838 4.5856-7.2881 7.4598a3.9269417 3.9269417 0 0 0 -.4499 4.0324c.8376 1.8188 1.7825 3.532 2.7548 5.2335l-1.5327 12.443-.2157 1.7391-.1948 1.5837a3.9269417 3.9269417 0 0 0 -.03.4823v-.2528l-.2458 1.9107a3.9269417 3.9269417 0 0 0 -.021.1276c-.1225 1.0306-.2606 2.2532-.2689 2.321-.8142 6.6072 3.1068 12.318 8.6724 15.8702 5.5655 3.5522 12.9401 5.6741 21.15 6.7131h.019a3.9269417 3.9269417 0 0 0 .012 0h.019a3.9269417 3.9269417 0 0 0 .016 0c8.217.9813 15.8867.711 22.1471-1.3868 6.2604-2.0977 11.4455-6.6896 12.2597-13.2962.01-.067.172-1.2838.3037-2.3141a3.9269417 3.9269417 0 0 0 0-.042v-.024l.2597-2.2214-.1808 1.4608-.065.014a3.9269417 3.9269417 0 0 0 -.2458-1.0852 3.9269417 3.9269417 0 0 0 .6608-1.7368l1.7763-14.4047c1.3568-1.4156 2.6902-2.8518 3.9443-4.4125a3.9269417 3.9269417 0 0 0 .5403-4.021c-1.4406-3.3239-3.2953-6.2894-5.2591-9.0016a3.9269417 3.9269417 0 0 0 -4.5032-1.3936c-1.3287.4752-2.5728 1.0813-3.8493 1.644-.261-.2544-.5749-.6258-.8092-.8557-.5428-.5556-.9146-.7895-1.4052-1.1895.3544-1.6271.7373-3.2472.9855-4.9043a3.9269417 3.9269417 0 0 0 -1.7044-3.8471c-2.911-1.9418-6.0107-3.3322-9.0828-4.4219a3.9269417 3.9269417 0 0 0 -4.4151 1.2939c-.9574 1.2344-1.7669 2.5504-2.6203 3.8493-.1539-.026-.3185-.074-.4707-.096a3.9269417 3.9269417 0 0 0 -.4475-.1005c.1531.026-.088-.013-.033 0a3.9269417 3.9269417 0 0 0 -.021 0 3.9269417 3.9269417 0 0 0 -.016 0c0-.0005-.011 0-.014 0-.014 0 .011 0 0 0a3.9269417 3.9269417 0 0 0 -.1391-.016c-.012-.0009-.025-.0009-.037 0a3.9269417 3.9269417 0 0 0 -.5403-.02c-.1445-.014-.3057-.011-.4522-.018-.4651-1.3313-.8962-2.6628-1.4585-3.9675a3.9269417 3.9269417 0 0 0 -.1229-.3363c-.011-.022-.016-.045-.026-.068a3.9269417 3.9269417 0 0 0 -.116-.2458 3.9269417 3.9269417 0 0 0 -3.5362-2.0868z" fill="#fff"/><path d="m0 0s-.325 1.994-.515 1.976l-36.182-3.491c-2.879-.278-5.115-2.574-5.317-5.459l-.994-14.247-27.992-1.997-1.904 12.912c-.424 2.872-2.932 5.037-5.835 5.037h-38.188c-2.902 0-5.41-2.165-5.834-5.037l-1.905-12.912-27.992 1.997-.994 14.247c-.202 2.886-2.438 5.182-5.317 5.46l-36.2 3.49c-.187.018-.324-1.978-.511-1.978l-.049-7.83 30.658-4.944 1.004-14.374c.203-2.91 2.551-5.263 5.463-5.472l38.551-2.75c.146-.01.29-.016.434-.016 2.897 0 5.401 2.166 5.825 5.038l1.959 13.286h28.005l1.959-13.286c.423-2.871 2.93-5.037 5.831-5.037.142 0 .284.005.423.015l38.556 2.75c2.911.209 5.26 2.562 5.463 5.472l1.003 14.374 30.645 4.966z" fill="#fff" transform="matrix(.28873725 .03551002 .03554538 -.28845111 -3529.6892 -1503.2259)"/><path d="m-3559.3923-1548.8208c-3.021.2914-6.0418.8431-8.9379 1.879-.234 2.4133-.3628 4.7371-.3357 7.1172-1.1426.5477-2.3271.993-3.4141 1.6647-1.1003.649-2.2179 1.2614-3.2393 2.0529-1.6701-1.4252-3.4558-2.7906-5.3155-4.0309-2.42 2.0345-4.7237 4.269-6.6979 6.8432.9834 2.1354 2.0364 4.1532 3.2031 6.0888h.039l-1.6893 13.7054-.2143 1.7404-.1949 1.5846c.031 0 .062.011.092.016l10.327 2.2922c.5409.12.9158.6126.8863 1.1654l-.2455 4.6484 9.0364 1.771 1.1525-4.1763c.1494-.5414.6732-.8923 1.2316-.8235l11.0262 1.3564c.5582.069.9815.5352.995 1.0967l.1035 4.3312 9.1973.4716.8897-4.5695c.1059-.5432.5891-.9301 1.143-.9158l10.5709.2779c.031 0 .062-.0003.093.011l.1676-1.3586 1.9309-15.6703h.038c1.602-1.595 3.1124-3.2978 4.5855-5.1312-1.2897-2.9756-2.9834-5.701-4.8372-8.2613-2.1047.7528-4.1688 1.6451-6.135 2.6229-.7985-1.0153-1.7322-1.8803-2.6436-2.7766-.8911-.9151-1.9339-1.6341-2.9074-2.4421.6032-2.3025 1.0428-4.5883 1.4019-6.9862-2.5584-1.7068-5.3548-2.9739-8.2162-3.9887-1.4176 1.8276-2.7547 3.8315-3.9475 5.8043-1.0865-.3216-2.1923-.5276-3.3067-.6782-.01 0-.015.0002-.022 0-.01 0-.014 0-.021 0-1.1196-.1241-2.2421-.1929-3.3746-.1441-.6776-2.2029-1.4875-4.4704-2.4208-6.5872zm-27.0919 40.893c-.12 1.0095-.2429 2.1166-.27 2.3368-1.2219 9.9151 10.7811 16.2295 26.417 18.208h.019.019c15.6494 1.869 28.8225-1.3487 30.0444-11.264.028-.2241.1766-1.3233.3057-2.3323l-9.5058-.2417-.8941 4.5934c-.1078.5536-.6075.9434-1.1715.9147l-11.23-.5755c-.027 0-.054.0001-.081-.011-.5532-.068-.9805-.5323-.9939-1.0975l-.1058-4.4034-9.0831-1.1168-1.1714 4.2465c-.1575.5715-.7298.9256-1.3112.8105l-11.0346-2.1625c-.5541-.1089-.9441-.608-.9143-1.1714l.2472-4.6729z" fill="#25b1e0"/><path d="m0 0c0-12.052-9.765-21.815-21.813-21.815-12.042 0-21.81 9.763-21.81 21.815 0 12.044 9.768 21.802 21.81 21.802 12.048 0 21.813-9.758 21.813-21.802" fill="#fff" transform="matrix(.28873725 .03551002 .03554538 -.28845111 -3565.2074 -1517.8647)"/><path d="m0 0c0-7.994-6.479-14.473-14.479-14.473-7.996 0-14.479 6.479-14.479 14.473s6.483 14.479 14.479 14.479c8 0 14.479-6.485 14.479-14.479" fill="#414042" transform="matrix(.28873725 .03551002 .03554538 -.28845111 -3566.7688 -1517.6778)"/><path d="m0 0c-3.878 0-7.021 2.858-7.021 6.381v20.081c0 3.52 3.143 6.381 7.021 6.381s7.028-2.861 7.028-6.381v-20.081c0-3.523-3.15-6.381-7.028-6.381" fill="#fff" transform="matrix(.28873725 .03551002 .03554538 -.28845111 -3557.5369 -1509.9522)"/><path d="m0 0c0-12.052 9.765-21.815 21.815-21.815 12.041 0 21.808 9.763 21.808 21.815 0 12.044-9.767 21.802-21.808 21.802-12.05 0-21.815-9.758-21.815-21.802" fill="#fff" transform="matrix(.28873725 .03551002 .03554538 -.28845111 -3548.1734 -1515.7698)"/><path d="m0 0c0-7.994 6.477-14.473 14.471-14.473 8.002 0 14.479 6.479 14.479 14.473s-6.477 14.479-14.479 14.479c-7.994 0-14.471-6.485-14.471-14.479" fill="#414042" transform="matrix(.28873725 .03551002 .03554538 -.28845111 -3546.7035 -1515.2101)"/></g></g><path d="m-760.14678 83.974911c-8.06924-6.333699-16.9979-8.957091-27.25788-8.440092-6.02459.303601-9.69696.763549-15.05724 3.524849m-13.81328 10.17437c-2.38702 2.1981-2.58611 2.410781-4.39978 5.106782-4.22664 6.2827-6.75759 13.8891-6.08541 21.4313.41031 4.6042 2.01012 9.0694 4.48463 12.9794m6.81773 7.6661c2.80398 2.3038 5.97511 4.1701 9.33511 5.5482 4.38023 1.7966 9.12 2.7841 13.85147 2.6179 4.73146-.1663 9.45065-1.5113 13.42128-4.0898s7.07446-5.90099 8.64265-10.36819m-2.02141-16.6039c-1.28658-2.164-2.28345-3.31401-4.32646-4.78941-2.50685-1.8104-5.43819-3.0098-8.47796-3.577-6.07957-1.134-12.46669.2815-17.91457 3.2085-6.06049 3.2562-11.12351 8.4185-14.02757 14.6554-.64633 1.3881-1.18259 2.8283-1.6043 4.3016m-.00003 0c-.85281 2.9792-1.23727 6.0931-1.11657 9.1827m.00005-.0001c.0878 2.2475.44286 4.482 1.07942 6.6425 1.94437 6.5994 6.55183 12.4208 12.64886 15.6081 6.09703 3.1872 13.61998 3.6256 19.95347.9388 4.89593-2.0769 8.87815-5.8126 13.43798-8.5496 2.27991-1.3686 7.14513-3.18056 9.76141-3.65596m11.60506 13.50817c-.004.6981-.0939.54759-.19301 1.23749-.73133 5.0896-3.87289 9.5533-7.62394 13.0703-7.42558 6.9623-15.86404 10.81312-26.05452 11.43632m-16.74609-1.35175c-10.54206-2.08-17.19978-5.40211-24.5626-13.23821" fill="none" stroke="#a0a9ce" stroke-dasharray="3.70417 3.70417" stroke-linecap="round" stroke-width="1.85208"/><path d="m-607.97715 183.64309c14.47501 3.1372 16.09064 2.64408 30.82745 1.16618m16.2733-2.17684c3.58621-.7722 6.05496-1.62699 9.47603-2.94829 6.3387-2.4482 12.30648-6.0424 16.97791-10.977 7.10248-7.5026 10.89337-18.2262 9.35212-28.4418-.13988-.9271-.32234-1.848-.54633-2.7587-.76089-3.0935-2.00113-6.0699-3.68007-8.7738-.55001-.8857-1.14712-1.7423-1.78985-2.5641-3.18236-4.069-7.48459-7.2696-12.3317-9.0554-1.76078-.6487-3.47837-.94401-5.33652-1.20751m-15.6629 2.35736c-4.65961 2.0415-7.28457 4.83975-9.95683 9.16895-2.33691 3.7859-3.62508 8.2454-3.45787 12.6913.16725 4.4459 2.78626 10.72122 5.74362 14.04512m18.81413 4.75197c2.72677-.016 3.33464-.0836 5.82551-1.20065 5.64049-2.52942 8.50637-5.25944 12.28245-9.54654 2.92827-3.3245 4.7462-6.3445 6.39251-10.4623m2.75368-8.5037c2.01552-9.7816.97621-20.1004-1.52278-29.821001-1.26754-4.930499-2.91592-9.798301-5.41846-14.231601-2.50248-4.4333-5.89825-8.4333-10.19196-11.168399-6.98624-4.450299-15.89455-5.204902-23.96881-3.3558-2.81882.645599-4.91702 1.408179-7.55923 2.56498m-12.36898 7.097907c-1.02024.698-1.15094.631611-2.14048 1.365811-1.52185 1.1293-3.01471 2.297502-4.50197 3.473001-2.54376 2.010399-5.07106 4.042301-7.6989 5.9378-.4346.313402-.87198.6232-1.31262.9285-4.66265 3.2307-9.76911 5.9842-15.3261 7.1232-4.83073.990102-10.04564.6785-14.41767-1.602201-2.18602-1.140298-4.13197-2.762498-5.56567-4.768299-1.4337-2.005899-2.34402-4.3985-2.50624-6.858699-.23717-3.5976 1.16025-7.226001 3.56997-9.907799 1.03849-1.1557 1.90903-2.153255 3.23967-2.952754m16.75444-1.441547c3.4412 1.0756 6.63176 2.868899 9.50884 5.041699 2.89745 2.1882 6.33087 5.818302 8.5154 8.720799m3.13873 5.657702c.98779 2.244299 2.21958 5.473999 2.72862 7.877098 1.86997 8.828103.19553 18.422103-4.85775 25.898603-.85741 1.2686-1.03976 1.82928-2.0316 2.99198m-11.0127 12.76735c-2.22229 2.8137-2.91468 3.79577-4.17714 7.14467-1.49133 3.9561-2.032 8.3391-1.05738 12.4531.97459 4.1139 3.55952 7.9163 7.27511 9.9335 1.8578 1.0086 3.97 1.5606 6.08365 1.5269 2.11367-.034 4.2232-.6603 5.97839-1.8384 1.86777-1.2536 3.2974-3.0984 4.24427-5.1389.94686-2.0405 1.42912-4.2735 1.62901-6.5141.39981-4.4812-.30425-8.9835-.31702-13.4824-.0262-9.1831 2.92179-18.3514 8.29503-25.7985 5.37321-7.4471 11.42843-12.468 20.15145-15.3385" fill="none" stroke="#9da6cc" stroke-dasharray="3.70417 3.70417" stroke-linecap="round" stroke-width="1.85208"/><g fill="#ba6156" transform="matrix(1.2 0 0 1.2 120.0272 -1472.3497)"><path d="m-621.59996 1425.9057c-.9681 1.6768-13.92573 1.6768-14.89383 0s5.51072-12.8985 7.44692-12.8985c1.93619 0 8.41501 11.2217 7.44691 12.8985z" transform="matrix(.3097669 -.0830018 .0830018 .3097669 -534.72155 887.4744)"/><path d="m-621.59996 1425.9057c-.9681 1.6768-13.92573 1.6768-14.89383 0s5.51072-12.8985 7.44692-12.8985c1.93619 0 8.41501 11.2217 7.44691 12.8985z" transform="matrix(.3097669 -.0830018 .0830018 .3097669 -536.55798 882.0867)"/><path d="m-621.59996 1425.9057c-.9681 1.6768-13.92573 1.6768-14.89383 0s5.51072-12.8985 7.44692-12.8985c1.93619 0 8.41501 11.2217 7.44691 12.8985z" transform="matrix(.3097669 -.0830018 .0830018 .3097669 -540.92361 886.32003)"/></g><g fill="#293252" stroke="#7786bb" stroke-linecap="round"><path d="m-571.50649 177.43217.46185 4.32276-2.95301.32163.49325 4.6163 2.95348-.32171.46176 4.32324 5.86173-7.34661z" stroke-linejoin="round" stroke-width="1.58751"/><path d="m-554.1195 122.92312-.46178-4.32276 2.95293-.32175-.49326-4.61629-2.9535.32182-.46173-4.32334-5.86171 7.34671z" stroke-linejoin="round" stroke-width="1.58751"/><path d="m-599.47112 137.35286-3.15108-2.99514 2.04186-2.15727-3.3652-3.1983-2.04218 2.15778-3.15147-2.99529.2907 9.39395z" stroke-linejoin="round" stroke-width="1.58751"/><path d="m-628.0576 64.72977.46175 4.322693-2.95287.321745.49323 4.616255 2.95342-.321755.46184 4.323299 5.8617-7.346696z" stroke-linejoin="round" stroke-width="1.58751"/></g><g fill="#ffe478" transform="matrix(1.6228637 0 0 1.6228637 349.62842 -63.297765)"><path d="m-559.10538 97.019538 1.62163 2.011702 2.55122-.410001-1.41216 2.164001 1.17824 2.2997-2.49439-.6743-1.82306 1.8311-.12948-2.5807-2.30492-1.1679 2.4144-.920603z"/><path d="m-555.94322 93.330339.95623 1.186299 1.5044-.2418-.83272 1.276001.69477 1.356101-1.47085-.3976-1.075 1.079698-.0764-1.521701-1.35914-.6887 1.42369-.542798z"/><path d="m-552.60047 98.033938 1.23854 1.536501 1.94847-.3132-1.07852 1.652701.89988 1.7564-1.90508-.515-1.39237 1.3985-.0989-1.971-1.76037-.892 1.84398-.703003z"/></g><g fill="#3ca370" stroke-linecap="round" stroke-linejoin="round" stroke-width=".79375" transform="matrix(1.5385227 0 0 1.5385227 283.29392 -1927.4223)"><path d="m-554.18318 1353.7475h3.28597c.8883 0 1.60342.7128 1.60342 1.5983v2.5296c0 .8855-.71512 1.5984-1.60342 1.5984h-3.28597c-.8883 0-1.60342-.7129-1.60342-1.5984v-2.5296c0-.8855.71512-1.5983 1.60342-1.5983z"/><path d="m-550.56318 1350.7145h3.28596c.88831 0 1.60342.7128 1.60342 1.5983v2.5296c0 .8856-.71511 1.5984-1.60342 1.5984h-3.28596c-.88831 0-1.60343-.7128-1.60343-1.5984v-2.5296c0-.8855.71512-1.5983 1.60343-1.5983z"/></g><g fill="#ba6156" transform="matrix(1.2 0 0 1.2 116.22603 -15.054398)"><path d="m-621.59996 1425.9057c-.9681 1.6768-13.92573 1.6768-14.89383 0s5.51072-12.8985 7.44692-12.8985c1.93619 0 8.41501 11.2217 7.44691 12.8985z" transform="matrix(.30976689 -.0830018 .0830018 .30976689 -501.53414 -416.74978)"/><path d="m-621.59996 1425.9057c-.9681 1.6768-13.92573 1.6768-14.89383 0s5.51072-12.8985 7.44692-12.8985c1.93619 0 8.41501 11.2217 7.44691 12.8985z" transform="matrix(.30976689 -.0830018 .0830018 .30976689 -507.61956 -417.24587)"/></g><g fill="#ffe478" stroke-dasharray="2.146914 2.146914" stroke-linecap="round" stroke-width="1.073457" transform="matrix(1.1941004 .11884506 .11884506 -1.1941004 -337.31795 1780.7855)"><path d="m-546.20326 1295.1498 1.62164 2.0117 2.55121-.41-1.41215 2.164 1.17822 2.2997-2.49438-.6743-1.82305 1.8311-.12948-2.5807-2.30492-1.1679 2.41439-.9206z"/><path d="m-543.04109 1291.4606.95624 1.1863 1.50437-.2418-.8327 1.276.69476 1.3561-1.47086-.3976-1.075 1.0797-.0764-1.5217-1.35914-.6887 1.42369-.5428z"/><path d="m-539.69834 1296.1642 1.23853 1.5365 1.94848-.3132-1.07852 1.6527.89986 1.7564-1.90507-.515-1.39236 1.3985-.0989-1.971-1.76038-.892 1.84398-.703z"/></g><g fill="#ba6156" transform="matrix(-1.0653969 -.55220423 .55220423 -1.0653969 -2168.2213 1218.6589)"><path d="m-621.59996 1425.9057c-.9681 1.6768-13.92573 1.6768-14.89383 0s5.51072-12.8985 7.44692-12.8985c1.93619 0 8.41501 11.2217 7.44691 12.8985z" transform="matrix(.3097669 -.0830018 .0830018 .3097669 -534.72155 887.4744)"/><path d="m-621.59996 1425.9057c-.9681 1.6768-13.92573 1.6768-14.89383 0s5.51072-12.8985 7.44692-12.8985c1.93619 0 8.41501 11.2217 7.44691 12.8985z" transform="matrix(.3097669 -.0830018 .0830018 .3097669 -536.55798 882.0867)"/><path d="m-621.59996 1425.9057c-.9681 1.6768-13.92573 1.6768-14.89383 0s5.51072-12.8985 7.44692-12.8985c1.93619 0 8.41501 11.2217 7.44691 12.8985z" transform="matrix(.3097669 -.0830018 .0830018 .3097669 -540.92361 886.32003)"/></g><path d="m-812.12498 77.227132 2.53465 3.531902 2.41695-1.726799 2.70665 3.7719-2.41733 1.727097 2.53505 3.53235-9.26555-1.5759z" fill="#293252" stroke="#7786bb" stroke-linecap="round" stroke-linejoin="round" stroke-width="1.19062"/><path d="m-776.40933 120.5 4.32735-.41593-.27798-2.95743 4.62128-.44397.27795 2.95788 4.32793-.41616-6.01959 7.21803z" fill="#293252" stroke="#7786bb" stroke-linecap="round" stroke-linejoin="round" stroke-width="1.58751"/><path d="m-791.58781 179.65408-.20268 4.34262 2.96691.1449-.21669 4.63759-2.96735-.1449-.20269 4.34324-6.29015-6.9836z" fill="#293252" stroke="#7786bb" stroke-linecap="round" stroke-linejoin="round" stroke-width="1.58751"/><g fill="#3ca370" transform="matrix(-1.5354242 0 0 1.5354242 -1598.6808 -1929.3692)"><path d="m-554.18318 1353.7475h3.28597c.8883 0 1.60342.7128 1.60342 1.5983v2.5296c0 .8855-.71512 1.5984-1.60342 1.5984h-3.28597c-.8883 0-1.60342-.7129-1.60342-1.5984v-2.5296c0-.8855.71512-1.5983 1.60342-1.5983z"/><path d="m-550.56318 1350.7145h3.28596c.88831 0 1.60342.7128 1.60342 1.5983v2.5296c0 .8856-.71511 1.5984-1.60342 1.5984h-3.28596c-.88831 0-1.60343-.7128-1.60343-1.5984v-2.5296c0-.8855.71512-1.5983 1.60343-1.5983z"/></g><g stroke-width="1.24672" transform="matrix(.91166191756 0 0 .70571379828 26.45641909473 -831.54805566104)"><g><path d="m-822.06042 1434.5708h9.26041v9.2604h-9.26041z" fill="#5e315b"/><path d="m-812.80001 1434.5708h9.26041v9.2604h-9.26041z" fill="#8c3f5d"/><path d="m-803.5396 1434.5708h9.26041v9.2604h-9.26041z" fill="#ba6156"/><path d="m-794.27919 1434.5708h9.26041v9.2604h-9.26041z" fill="#f2a65e"/><path d="m-785.01878 1434.5708h9.26041v9.2604h-9.26041z" fill="#ffe478"/><path d="m-775.75837 1434.5708h9.26041v9.2604h-9.26041z" fill="#cfff70"/><path d="m-766.49796 1434.5708h9.26041v9.2604h-9.26041z" fill="#8fde5d"/><path d="m-757.23755 1434.5708h9.26041v9.2604h-9.26041z" fill="#3ca370"/><path d="m-747.97714 1434.5708h9.26041v9.2604h-9.26041z" fill="#3d6e70"/><path d="m-738.71673 1434.5708h9.26041v9.2604h-9.26041z" fill="#323e4f"/></g><g><path d="m-822.06042 1434.5708h9.26041v9.2604h-9.26041z" fill="#5e315b"/><path d="m-812.80001 1434.5708h9.26041v9.2604h-9.26041z" fill="#8c3f5d"/><path d="m-803.5396 1434.5708h9.26041v9.2604h-9.26041z" fill="#ba6156"/><path d="m-794.27919 1434.5708h9.26041v9.2604h-9.26041z" fill="#f2a65e"/><path d="m-785.01878 1434.5708h9.26041v9.2604h-9.26041z" fill="#ffe478"/><path d="m-775.75837 1434.5708h9.26041v9.2604h-9.26041z" fill="#cfff70"/><path d="m-766.49796 1434.5708h9.26041v9.2604h-9.26041z" fill="#8fde5d"/><path d="m-757.23755 1434.5708h9.26041v9.2604h-9.26041z" fill="#3ca370"/><path d="m-747.97714 1434.5708h9.26041v9.2604h-9.26041z" fill="#3d6e70"/><path d="m-738.71673 1434.5708h9.26041v9.2604h-9.26041z" fill="#323e4f"/></g><g><path d="m-822.06042 1434.5708h9.26041v9.2604h-9.26041z" fill="#5e315b"/><path d="m-812.80001 1434.5708h9.26041v9.2604h-9.26041z" fill="#8c3f5d"/><path d="m-803.5396 1434.5708h9.26041v9.2604h-9.26041z" fill="#ba6156"/><path d="m-794.27919 1434.5708h9.26041v9.2604h-9.26041z" fill="#f2a65e"/><path d="m-785.01878 1434.5708h9.26041v9.2604h-9.26041z" fill="#ffe478"/><path d="m-775.75837 1434.5708h9.26041v9.2604h-9.26041z" fill="#cfff70"/><path d="m-766.49796 1434.5708h9.26041v9.2604h-9.26041z" fill="#8fde5d"/><path d="m-757.23755 1434.5708h9.26041v9.2604h-9.26041z" fill="#3ca370"/><path d="m-747.97714 1434.5708h9.26041v9.2604h-9.26041z" fill="#3d6e70"/><path d="m-738.71673 1434.5708h9.26041v9.2604h-9.26041z" fill="#323e4f"/></g><g><path d="m-822.06042 1434.5708h9.26041v9.2604h-9.26041z" fill="#5e315b"/><path d="m-812.80001 1434.5708h9.26041v9.2604h-9.26041z" fill="#8c3f5d"/><path d="m-803.5396 1434.5708h9.26041v9.2604h-9.26041z" fill="#ba6156"/><path d="m-794.27919 1434.5708h9.26041v9.2604h-9.26041z" fill="#f2a65e"/><path d="m-785.01878 1434.5708h9.26041v9.2604h-9.26041z" fill="#ffe478"/><path d="m-775.75837 1434.5708h9.26041v9.2604h-9.26041z" fill="#cfff70"/><path d="m-766.49796 1434.5708h9.26041v9.2604h-9.26041z" fill="#8fde5d"/><path d="m-757.23755 1434.5708h9.26041v9.2604h-9.26041z" fill="#3ca370"/><path d="m-747.97714 1434.5708h9.26041v9.2604h-9.26041z" fill="#3d6e70"/><path d="m-738.71673 1434.5708h9.26041v9.2604h-9.26041z" fill="#323e4f"/></g></g></g></svg>