<svg height="177.2709mm" viewBox="0 0 354.54169 177.2709" width="354.54169mm" xmlns="http://www.w3.org/2000/svg" xmlns:xlink="http://www.w3.org/1999/xlink"><linearGradient id="a" gradientUnits="userSpaceOnUse" x1="-681.36914" x2="-1044.6521" xlink:href="#b" y1="1993.4384" y2="2361.0908"/><linearGradient id="b"><stop offset="0" stop-color="#ffb600"/><stop offset="1" stop-color="#ff7b00"/></linearGradient><linearGradient id="c" gradientTransform="matrix(.99090554 -.02629771 .0214445 1.124392 1516.0944 -4017.1808)" gradientUnits="userSpaceOnUse" x1="-2230.9829" x2="-2406.9031" xlink:href="#b" y1="5206.8667" y2="5289.938"/><linearGradient id="d" gradientUnits="userSpaceOnUse" x1="-839.7856" x2="-839.7856" xlink:href="#b" y1="37.9612" y2="-15.2473"/><linearGradient id="e" gradientUnits="userSpaceOnUse" x1="-938.018" x2="-513.2812" y1="181.0888" y2="55.2147"><stop offset="0" stop-color="#002558"/><stop offset="1" stop-color="#004da7"/></linearGradient><linearGradient id="f" gradientTransform="matrix(.99999997 0 0 -.99999997 1610.0142 4690.2332)" gradientUnits="userSpaceOnUse" x1="-2488.0618" x2="-2488.0618" xlink:href="#b" y1="4524.5527" y2="4655.894"/><g transform="translate(883.1792 9.525012)"><path d="m-883.1792 167.74589h354.5417v-177.2709018h-354.5417z" fill="url(#f)"/><path d="m-880.8478 28.868387 347.65211-19.9760988 2.41379 147.4010018-345.2201 8.3766z" fill="#d94000"/><path d="m-877.5628-3.2480118 344.20658 1.9297-.89799 162.7872018-344.20649-1.9296z" fill="#fff"/><path d="m-874.2718-.1017118 337.58951 1.8926-.86281 156.5317018-337.5896-1.8925z" fill="url(#e)"/><path d="m-831.52927 7.8788882c-2.22946 0-2.68203.061-3.98941.4599-3.57865 1.0891-5.99681 2.9933998-7.2807 5.7349998-.41513.8857-.46818 1.1913-.46818 2.6795 0 1.553499.0425 1.762099.53898 2.766201.29586.597799.76044 1.3555 1.03148 1.679498.27096.324101 6.61128 5.5685 14.09009 11.651501l13.5976 11.061301-10.10065.103399c-5.55591.056-24.17437.1266-41.37268.1266-3.40633 0-6.1508.01-9.03304.01l-.11266 20.386301c11.47575.01201 16.10641.061 15.97475.183002-.11271.103298-1.67703 1.316598-3.47525 2.695898-1.31111 1.006001-8.45637 6.4908-12.56824 9.646502l-.26561 48.164499c3.0857 11.6846 10.14188 22.7318 19.9993 31.3154l97.7284.5477c12.93228-10.9428 20.99982-25.8444 22.71644-42.2532.28694-2.7416.24193-8.9349-.0873-11.8742-1.55967-13.920101-7.46927-26.4318-17.32299-36.679401-3.1677-3.294399-5.41769-5.1864-14.16762-11.910899-13.53015-10.3979-23.24168-17.8615-40.99904-31.502998-9.77667-7.510702-17.58452-13.3890018-18.18441-13.6943008-1.97575-1.0054-3.41855-1.2934-6.24872-1.2934zm26.15449 56.6202988c9.00456.047 17.89922 2.623299 25.30181 7.566999 2.78315 1.858701 4.33377 3.134402 6.72465 5.535602 12.67005 12.722998 14.74375 31.737902 5.06275 46.423002-6.79955 10.3142-17.57434 16.9901-30.66584 18.9973-2.05391.3146-9.70661.4555-11.87212.216-6.35868-.6964-12.69833-2.7196-17.93896-5.7247-8.84156-5.0691-15.52856-12.9598-18.51412-21.8488-1.33598-3.9777-1.84226-7.177-1.84226-11.5641.003-3.7406.26154-5.899003 1.10172-9.137003 3.27284-12.615399 13.29926-23.080901 26.61544-27.7822 5.1819-1.8298 10.62408-2.711799 16.02693-2.6841zm.77618 13.0907v.01101c-4.89426-.047-10.10703 1.2264-14.272 3.492299-2.4842 1.3516-4.24976 2.682899-6.38048 4.812599-3.07226 3.0699-4.96286 6.105602-6.16137 9.8992-1.99242 6.306495-1.13038 13.414995 2.30785 19.030895 4.13282 6.7498 11.39071 11.4337 19.72284 12.7289 2.05504.3099 6.94176.3146 9.03769 0 6.0703-.9106 11.30474-3.4175 15.54839-7.443 5.00941-4.7525 7.67395-10.7807 7.67395-17.3694 0-6.487295-2.36453-12.028794-7.19801-16.864094-4.89659-4.8981-10.84152-7.5754-18.20405-8.204701-.68218-.056-1.37565-.089-2.07481-.094z" fill="#003b86"/><path d="m-576.18723 7.6881882c-2.30542 0-2.77342.063-4.12533.4759-3.70054 1.1261-6.20112 3.0953998-7.52875 5.9303998-.42926.9159-.48418 1.2315-.48418 2.7704 0 1.606401.0437 1.8226.55705 2.860801.30594.618199.78637 1.401699 1.06661 1.736799.2802.3351 6.83665 5.757699 14.57016 12.0479l14.06065 11.437999-10.44433.107c-5.74511.058-24.99783.131299-42.78188.131299-21.2549 0-32.72075.087-33.46153.203602-7.62968 1.211599-13.47933 7.357298-12.64057 13.280301.372 2.626198 2.14048 4.937699 4.78835 6.259099 2.85223 1.4247 1.29614 1.342499 26.35705 1.342499 16.41363 0 22.1752.049 22.01827.193799-.11655.106802-1.7341 1.361702-3.59357 2.787902-5.74254 4.406-44.79654 34.380802-55.0478 42.250202-5.33995 4.0996-11.69725 8.9752-14.12885 10.836-4.85833 3.7184-6.42398 5.1842-7.87705 7.368-1.82872 2.7481-2.66874 5.1585-2.81582 8.0853-.11608 2.313.20433 3.9077 1.18184 5.8973.87685 1.7837 2.60014 3.6037 4.30876 4.5522 4.48313 2.4873 10.6966 2.0619 15.96544-1.0966.93112-.5579 9.15469-7.1761 22.69836-18.2666 11.68128-9.5652 21.25115-17.3684 21.27055-17.3684s-.0774 1.0762-.21344 2.3616c-.47832 4.5221-.23924 8.0972.87849 13.0922 2.53191 11.3155 8.68986 22.1503 17.48628 30.9842l66.57732.3731.0657-11.9047c-1.63287.4151-3.30726.7559-5.02036 1.0185-2.12389.3253-10.03699.471-12.27627.2233-6.57521-.7201-13.13116-2.8122-18.55028-5.9196-9.14268-5.2416-16.05783-13.4011-19.14509-22.5929-1.38147-4.1131-1.90426-7.4212-1.90426-11.9579.003-3.8679.27014-6.0997 1.13895-9.448004 3.38429-13.045099 13.75212-23.866999 27.52183-28.728499 5.35836-1.892001 10.98576-2.804099 16.57262-2.7755 4.0947.02199 8.16714.548701 12.09644 1.5674l.18602-33.811898c-4.70744-3.616902-7.97134-6.1258-14.06167-10.804502-10.10965-7.766499-18.18318-13.8451988-18.80352-14.1608988-2.04303-1.0397-3.53504-1.3374-6.4616-1.3374zm27.84792 72.0859988v.01101c-5.06095-.049-10.45146 1.268-14.75827 3.611099-2.56881 1.397601-4.39425 2.774199-6.59754 4.976501-3.17688 3.1745-5.13236 6.313799-6.3717 10.236599-2.06028 6.521194-1.16893 13.871994 2.38641 19.678794 4.27358 6.9799 11.77875 11.8226 20.39461 13.162 2.12506.3206 7.17839.3253 9.34569 0 2.30371-.3455 4.48959-.9154 6.55257-1.7017l.26355-47.835795c-2.77079-1.0845-5.78323-1.761299-9.06973-2.042199-.70541-.058-1.42261-.092-2.14559-.097z" fill="#002c65" opacity=".483"/><path d="m-528.6375 21.530888-354.5417-10.7447v-20.3111998h354.5417z" fill="#d94000"/><path d="m-883.1792 38.019187 354.54148-33.4336988v-14.1105h-354.54148z" opacity=".394"/><path d="m-883.1792 34.212087 354.54148-33.4336988v-10.3034h-354.54148z" fill="url(#d)"/><g stroke-width="1.20768" transform="matrix(-.97213336 .09770862 .09818909 .96737639 -1351.0222 -1752.3821)"><path d="m-621.18782 1991.8263h31.41926v21.1667h-31.41926z" fill="#005cca"/><path d="m-621.12079 1991.8249h4.15734l-.00001 21.1695h-4.15733z" fill="#003f92"/><path d="m-593.99293 1991.8249h4.15734l-.00001 21.1695h-4.15733z" fill="#003f92"/><path d="m-621.12079 1991.8249h31.2852l-.00001 21.1695h-31.28519z" fill="none" stroke="#fff" stroke-linecap="round" stroke-width="1.08582"/><g fill="#0074ff" stroke-width="1.20768"><path d="m-609.07769 1996.5387c-.49854 0-.89988.4015-.89988.9v4.8444c0 .4985-.40136.8999-.8999.8999-.49853 0-.89986-.4014-.89986-.8999 0-.4986-.40135-.8999-.89988-.8999s-.89986.4013-.89986.8999v3.1002c0 .4986.40133.8998.89986.8998s.89988-.4013.89988-.8998.40133-.8999.89986-.8999c.49854 0 .8999.4014.8999.8999v1.9961c0 .4986.40134.9001.89988.9001.49853 0 .89989-.4015.89989-.9001v-1.9973c.00053-.4979.40168-.8987.89985-.8987.49853 0 .8999.4014.8999.8999 0 .4986.40134.8998.89988.8998.49853 0 .8999-.4012.8999-.8998.00052-.4981.40167-.8988.89984-.8988.49854 0 .8999.4013.8999.8999v1.9961c0 .4986.40134.8999.89988.8999.49853 0 .89987-.4013.89987-.8999v-1.9961c0-.4986.40137-.8999.8999-.8999.49854 0 .89986.4013.89986.8999 0 .4985.40138.8998.89991.8998.49854 0 .89987-.4013.89987-.8998v-3.1003c0-.4984-.40133-.8999-.89987-.8999-.49853 0-.89991.4015-.89991.8999 0 .4986-.40132.8999-.89986.8999-.49853 0-.8999-.4013-.8999-.8999v-4.8443c0-.4986-.40134-.8999-.89987-.8999-.49854 0-.89988.4013-.89988.8999v4.8443c0 .4986-.40136.8999-.8999.8999-.49818 0-.89925-.4008-.89984-.8988v-1.0513c0-.4986-.40137-.8999-.8999-.8999s-.89988.4014-.89988.8999v1.0502c0 .4985-.40137.8998-.8999.8998-.49817 0-.89925-.4007-.89985-.8987v-4.8454c0-.4987-.40136-.8999-.89989-.8999z"/><path d="m-615.33388 2003.2265h19.71146c.31148 0 .56224.2508.56224.5623s-.25076.5622-.56224.5622h-19.71146c-.31148 0-.56224-.2507-.56224-.5622s.25076-.5623.56224-.5623z"/></g></g><g stroke-width="1.20768" transform="matrix(-.97213336 .09770862 .09818909 .96737639 -1356.7139 -1751.8101)"><path d="m-582.26805 1991.8264h31.41926v21.1667h-31.41926z" fill="#005cca"/><path d="m-582.20101 1991.8249h4.15734l-.00001 21.1695h-4.15733z" fill="#003f92"/><path d="m-555.07316 1991.8249h4.15734l-.00001 21.1695h-4.15733z" fill="#003f92"/><path d="m-582.20101 1991.8249h31.28519l-.00001 21.1696h-31.28519z" fill="none" stroke="#fff" stroke-linecap="round" stroke-width="1.08582"/><g fill="#0074ff" stroke-width="1.20768" transform="translate(38.91973)"><path d="m-609.07769 1996.5387c-.49854 0-.89988.4015-.89988.9v4.8444c0 .4985-.40136.8999-.8999.8999-.49853 0-.89986-.4014-.89986-.8999 0-.4986-.40135-.8999-.89988-.8999s-.89986.4013-.89986.8999v3.1002c0 .4986.40133.8998.89986.8998s.89988-.4013.89988-.8998.40133-.8999.89986-.8999c.49854 0 .8999.4014.8999.8999v1.9961c0 .4986.40134.9001.89988.9001.49853 0 .89989-.4015.89989-.9001v-1.9973c.00053-.4979.40168-.8987.89985-.8987.49853 0 .8999.4014.8999.8999 0 .4986.40134.8998.89988.8998.49853 0 .8999-.4012.8999-.8998.00052-.4981.40167-.8988.89984-.8988.49854 0 .8999.4013.8999.8999v1.9961c0 .4986.40134.8999.89988.8999.49853 0 .89987-.4013.89987-.8999v-1.9961c0-.4986.40137-.8999.8999-.8999.49854 0 .89986.4013.89986.8999 0 .4985.40138.8998.89991.8998.49854 0 .89987-.4013.89987-.8998v-3.1003c0-.4984-.40133-.8999-.89987-.8999-.49853 0-.89991.4015-.89991.8999 0 .4986-.40132.8999-.89986.8999-.49853 0-.8999-.4013-.8999-.8999v-4.8443c0-.4986-.40134-.8999-.89987-.8999-.49854 0-.89988.4013-.89988.8999v4.8443c0 .4986-.40136.8999-.8999.8999-.49818 0-.89925-.4008-.89984-.8988v-1.0513c0-.4986-.40137-.8999-.8999-.8999s-.89988.4014-.89988.8999v1.0502c0 .4985-.40137.8998-.8999.8998-.49817 0-.89925-.4007-.89985-.8987v-4.8454c0-.4987-.40136-.8999-.89989-.8999z"/><path d="m-615.33388 2003.2265h19.71146c.31148 0 .56224.2508.56224.5623s-.25076.5622-.56224.5622h-19.71146c-.31148 0-.56224-.2507-.56224-.5622s.25076-.5623.56224-.5623z"/></g></g><g fill="#fff" stroke-width="1.04408" transform="matrix(.11357457 1.1189569 1.1244593 -.11301882 -2783.6445 1018.0904)"><path d="m-2239 7958.5742-12.4258 12.4258h24.8516z" transform="matrix(.26458333 0 0 .26458333 -.00001 -95.250011)"/><path d="m-591.21148 2012.8507v2.3813h-2.38125v-2.3813z"/></g><g transform="translate(-1.058333 -4.233333)"><path d="m-863.56061 86.783587 38.0534-3.8431-2.58933-25.6325-38.05341 3.843001z" fill="#005cca"/><path d="m-863.47926 86.777088 5.03516-.5085-2.58969-25.636-5.03514.5085z" fill="#003f92"/><path d="m-830.62338 83.458888 5.03516-.5085-2.58969-25.6359-5.03515.5085z" fill="#003f92"/><path d="m-863.47926 86.777088 37.89104-3.8267-2.58969-25.6359-37.89102 3.8266z" fill="none" stroke="#fff" stroke-linecap="round" stroke-width="1.05833"/><g fill="#0074ff" stroke-width=".967038" transform="matrix(1.2111489 -.1223141 -.12233055 -1.210986 132.45151 2422.8773)"><path d="m-609.07769 1996.5387c-.49854 0-.89988.4015-.89988.9v4.8444c0 .4985-.40136.8999-.8999.8999-.49853 0-.89986-.4014-.89986-.8999 0-.4986-.40135-.8999-.89988-.8999s-.89986.4013-.89986.8999v3.1002c0 .4986.40133.8998.89986.8998s.89988-.4013.89988-.8998.40133-.8999.89986-.8999c.49854 0 .8999.4014.8999.8999v1.9961c0 .4986.40134.9001.89988.9001.49853 0 .89989-.4015.89989-.9001v-1.9973c.00053-.4979.40168-.8987.89985-.8987.49853 0 .8999.4014.8999.8999 0 .4986.40134.8998.89988.8998.49853 0 .8999-.4012.8999-.8998.00052-.4981.40167-.8988.89984-.8988.49854 0 .8999.4013.8999.8999v1.9961c0 .4986.40134.8999.89988.8999.49853 0 .89987-.4013.89987-.8999v-1.9961c0-.4986.40137-.8999.8999-.8999.49854 0 .89986.4013.89986.8999 0 .4985.40138.8998.89991.8998.49854 0 .89987-.4013.89987-.8998v-3.1003c0-.4984-.40133-.8999-.89987-.8999-.49853 0-.89991.4015-.89991.8999 0 .4986-.40132.8999-.89986.8999-.49853 0-.8999-.4013-.8999-.8999v-4.8443c0-.4986-.40134-.8999-.89987-.8999-.49854 0-.89988.4013-.89988.8999v4.8443c0 .4986-.40136.8999-.8999.8999-.49818 0-.89925-.4008-.89984-.8988v-1.0513c0-.4986-.40137-.8999-.8999-.8999s-.89988.4014-.89988.8999v1.0502c0 .4985-.40137.8998-.8999.8998-.49817 0-.89925-.4007-.89985-.8987v-4.8454c0-.4987-.40136-.8999-.89989-.8999z"/><path d="m-615.33388 2003.2265h19.71146c.31148 0 .56224.2508.56224.5623s-.25076.5622-.56224.5622h-19.71146c-.31148 0-.56224-.2507-.56224-.5622s.25076-.5623.56224-.5623z"/></g><path d="m-809.33192 81.306886 38.0534-3.842999-2.58933-25.6326-38.0534 3.843001z" fill="#005cca"/><path d="m-809.25054 81.300486 5.03516-.508497-2.58969-25.635901-5.03514.5085z" fill="#003f92"/><path d="m-776.39467 77.982386 5.03516-.508497-2.58969-25.636001-5.03515.5085z" fill="#003f92"/><path d="m-809.25054 81.300486 37.89103-3.826597-2.58971-25.636102-37.89102 3.8266z" fill="none" stroke="#fff" stroke-linecap="round" stroke-width="1.05833"/><g fill="#0074ff" stroke-width=".967038" transform="matrix(1.2111489 -.1223141 -.12233055 -1.210986 186.68021 2417.4007)"><path d="m-609.07769 1996.5387c-.49854 0-.89988.4015-.89988.9v4.8444c0 .4985-.40136.8999-.8999.8999-.49853 0-.89986-.4014-.89986-.8999 0-.4986-.40135-.8999-.89988-.8999s-.89986.4013-.89986.8999v3.1002c0 .4986.40133.8998.89986.8998s.89988-.4013.89988-.8998.40133-.8999.89986-.8999c.49854 0 .8999.4014.8999.8999v1.9961c0 .4986.40134.9001.89988.9001.49853 0 .89989-.4015.89989-.9001v-1.9973c.00053-.4979.40168-.8987.89985-.8987.49853 0 .8999.4014.8999.8999 0 .4986.40134.8998.89988.8998.49853 0 .8999-.4012.8999-.8998.00052-.4981.40167-.8988.89984-.8988.49854 0 .8999.4013.8999.8999v1.9961c0 .4986.40134.8999.89988.8999.49853 0 .89987-.4013.89987-.8999v-1.9961c0-.4986.40137-.8999.8999-.8999.49854 0 .89986.4013.89986.8999 0 .4985.40138.8998.89991.8998.49854 0 .89987-.4013.89987-.8998v-3.1003c0-.4984-.40133-.8999-.89987-.8999-.49853 0-.89991.4015-.89991.8999 0 .4986-.40132.8999-.89986.8999-.49853 0-.8999-.4013-.8999-.8999v-4.8443c0-.4986-.40134-.8999-.89987-.8999-.49854 0-.89988.4013-.89988.8999v4.8443c0 .4986-.40136.8999-.8999.8999-.49818 0-.89925-.4008-.89984-.8988v-1.0513c0-.4986-.40137-.8999-.8999-.8999s-.89988.4014-.89988.8999v1.0502c0 .4985-.40137.8998-.8999.8998-.49817 0-.89925-.4007-.89985-.8987v-4.8454c0-.4987-.40136-.8999-.89989-.8999z"/><path d="m-615.33388 2003.2265h19.71146c.31148 0 .56224.2508.56224.5623s-.25076.5622-.56224.5622h-19.71146c-.31148 0-.56224-.2507-.56224-.5622s.25076-.5623.56224-.5623z"/></g><path d="m-815.36881 68.969487-4.14057 5.0703-.9304-9.210299z" fill="#fff"/><path d="m-818.89204 67.640487-3.33602.3369.33694 3.335501 3.33603-.336902z" fill="#fff"/><g stroke-width="1.12324" transform="matrix(-.87594258 0 0 .87590141 -1300.3367 -1602.3422)"><path d="m-567.64062 1914.2578c-.16643.01-.2561.035-.32618.057-.14015.042-.19804.076-.25195.1035-.10781.054-.17058.093-.23828.1367-.1354.087-.27071.1845-.41602.293-.29062.2168-.58986.4533-.84961.7031-.61401.59-.99493 1.0798-1.4414 1.8535-.66024 1.1436-1.01792 2.2825-1.0918 3.5312-.0128.2182-.008.3545-.008.6934.00017.3388.002.7935.006 1.3339.007 1.0809.0222 2.5034.041 4.0118.0188 1.505.0329 2.8893.043 3.9043.004.4363.008.7632.01 1.0429-1.146-1.6423-2.96165-2.6628-4.9375-2.5547-2.40781.1321-4.49251 1.7868-5.13282 4.1036-.60393 2.1848.15114 4.5247 1.91211 5.9589a1.3600943 1.3600943 0 0 0 .50196.2579c.46137.3004.90253.5868 1.45312.7441a1.3600943 1.3600943 0 0 0 .01 0c.99657.2758 2.04084.2889 3.01953.012.30495-.086.64064-.1957 1.0625-.4082s.98583-.5308 2.10742-1.1621c.0356-.02.0566-.031.0918-.051.00052.041.001.066.002.1074.0152 1.2872.0215 1.9359.0488 2.4083.0273.4723.1016.8183.17969 1.1269.49642 1.962 2.05133 3.5042 4.01758 4.0137.92524.2401 1.89705.2273 2.83789-.022 1.26035-.3335 2.33653-1.0479 3.11718-2.0781 1.4723-1.943 1.50033-4.6738.0645-6.6426-.99253-1.3614-2.53805-2.1365-4.22461-2.2891-.00008 0 .00007 0 0 0 .23267-.1335.47975-.2745.82812-.4726.88918-.5058 2.11027-1.196 3.44531-1.9473 1.33832-.7531 2.59389-1.4626 3.54102-2.002.47356-.2697.86949-.497 1.16211-.666.29148-.1683.392-.2183.58984-.3496h.002c1.01553-.6745 1.80796-1.5465 2.45117-2.6621.45703-.7945.69011-1.3681.89453-2.1993.0861-.3502.14155-.728.18359-1.0879.021-.1799.0371-.3458.0449-.5058.004-.08.006-.1518 0-.2695-.003-.059-.005-.1252-.0352-.2618-.0152-.068-.0344-.1547-.10156-.2968-.0336-.071-.0789-.158-.16016-.2618-.0406-.052-.15389-.1656-.1543-.166-.0004-.0003-.23004-.1696-.23047-.1699a1.3600943 1.3600943 0 0 0 -.0488-.027c-.00007-.0001-.80259-.1504-.80274-.1504s-.2146.043-.21484.043c-.00048.0002-.11306.038-.13867.049-.0512.021-.0676.031-.084.039-.0327.016-.0498.023-.0684.033-.0371.02-.0749.04-.12304.066-.0963.053-.22897.1261-.39844.2207-.33894.1894-.82206.4621-1.41797.7989-1.19182.6735-2.83062 1.604-4.62891 2.6289-1.78027 1.0147-3.39464 1.9328-4.58203 2.6054-.0149-1.3608-.0311-3.2111-.043-5.2597-.012-2.0779-.0261-3.9676-.0391-5.3418-.006-.6871-.0121-1.2452-.0176-1.6348-.003-.1948-.005-.3471-.008-.457-.001-.055-.002-.097-.004-.1387-.00082-.021-.001-.039-.004-.074-.001-.018-.003-.035-.01-.088-.003-.026-.0253-.1401-.0254-.1406-.00006-.0003-.0624-.1971-.0625-.1973-.00006-.0001-.49604-.6113-.49609-.6113a1.3600943 1.3600943 0 0 0 -.0293-.019c-.00041-.0003-.26707-.1346-.26758-.1348s-.16177-.05-.23047-.062c-.13739-.025-.241-.023-.32421-.018z" fill="#fff"/><path d="m-579.46324 1938.3779c-1.35182-1.101-1.92114-2.8734-1.45955-4.5433.47938-1.7345 2.07524-3.0077 3.89497-3.1075 1.59013-.087 3.03519.6939 3.92958 2.1243.22212.3552.41236.4982.71494.5372.23862.031.5301-.08 1.11103-.4199.38309-.2245.45942-.2895.47006-.4.007-.072-.018-2.5965-.0556-5.6086s-.0558-5.6868-.0407-5.9437c.0631-1.0666.32907-1.921.91288-2.9322.42127-.73.63316-1.0034 1.20574-1.5536.34118-.3281 1.17307-.9489 1.22606-.9148.0147.01.047 3.4155.0711 7.5685.024 4.153.0617 7.5512.0836 7.5513.022 0 2.98064-1.6758 6.57485-3.7245 3.59425-2.0485 6.54787-3.7178 6.56362-3.7094.0546.032-.0652 1.0616-.17821 1.5211-.19088.7761-.32033 1.0932-.75346 1.8461-.56726.9839-1.16573 1.6381-2.02559 2.2087-.19226.1277-2.53666 1.4628-5.20974 2.967-2.67306 1.5043-4.88736 2.7637-4.92051 2.7986-.095.1-.0611 1.3052.0434 1.5557.14814.3552.4163.5128.90174.5297 1.45777.051 2.66734.6787 3.49581 1.8151 1.04781 1.4367 1.02633 3.5993-.0499 5.0196-.63377.8364-1.3462 1.3105-2.38032 1.5841-.749.1981-1.43937.2047-2.15001.02-1.46605-.3799-2.67418-1.5846-3.04004-3.0306-.15375-.6077-.15575-.6434-.18613-3.2172-.015-1.2793-.0428-2.3348-.0616-2.3458-.0189-.012-.9455.4931-2.05935 1.1202-2.24271 1.2624-2.27209 1.2772-2.87329 1.4474-.7178.2033-1.51715.1978-2.28596-.015-.39516-.1129-1.16758-.5031-1.46936-.749zm1.87134-.9156c.54506.1759 1.149.1603 1.70652-.045.38239-.1407.95765-.615 1.22931-1.0135.94434-1.3851.18908-3.4153-1.43753-3.8641-1.11378-.307-2.22472.1029-2.85592 1.0541-.40333.6073-.51836 1.2959-.34021 2.031.21269.8772.84515 1.5616 1.69783 1.8374zm10.4786 6.0423c.91298.245 1.96951-.055 2.61961-.7463.42454-.4517.70878-1.2582.65989-1.8738-.13352-1.6879-1.71987-2.8012-3.29538-2.3126-1.02096.3166-1.62931 1.0238-1.79289 2.084-.0822.5329-.0346.9277.17068 1.4127.27917.6598.9538 1.2513 1.63809 1.436z" fill="#003f92" stroke-width="1.12324"/></g></g><g stroke-width="1.01122" transform="matrix(.9889008 0 0 .9889008 -41.599297 -1836.7065)"><path d="m-745.11655 1927.1627 144.60186-3.8375 1.18757 62.2671-144.60186 3.8375z" opacity=".368"/><path d="m-743.25743 1924.553 144.60186-3.8375 1.18757 62.2671-144.60186 3.8376z" fill="url(#c)"/><g fill="#fff" stroke-width="1.01122" transform="matrix(.99999314 .00370374 -.00370374 .99999314 7.17573 16.714887)"><path d="m-695.37878 1920.8626c-.23593 0-.36991.01-.34726.01h-.0605l-10.34613.4335.77358 18.4609c-.22566-.02-.42455-.1204-.6542-.1245-1.30014-.023-2.56654.1725-3.73259.5819l.11729-.3323-2.31613-1.1426c-2.19414-1.0819-4.79558-1.5818-7.45742-1.4898h-.002c-.37497.013-.75509.039-1.14048.08-2.49698.2661-4.73657 1.0955-6.40633 2.6624-1.66976 1.5666-2.58318 3.9667-2.33008 6.3417.14089 1.3215.7248 2.4413 1.44176 3.4122l-2.23448 6.0663 2.04896 1.2438c2.95177 1.793 6.54711 2.4299 9.91775 2.0707 2.0081-.2141 3.96845-.8002 5.62911-2.0335.25543-.1897.41352-.5126.64802-.74 1.5852 1.064 3.53301 1.6945 5.6193 1.7322 2.37762.043 4.48897-.7928 6.27144-2.0546 1.44833 1.3753 3.33285 2.2684 5.4374 2.3264h.002c.0723 0 .13856-.041.21084-.041l-.11525 4.2209 10.86549.2951.13282-4.8653c.80483.2123 1.63742.3572 2.4784.2888.30586-.025.5538-.2306.85162-.295l9.60561-.7809c1.1383.464 2.34469.8048 3.64837.8532h.002c1.68577.062 3.26203-.3028 4.71083-.9142l7.68945-.5643 2.7404-.201 6.14847-.4532c1.26436.6742 2.66268 1.1524 4.1739 1.2346 2.81305.1529 5.56475-.8374 7.40418-2.7637 1.27109.6302 2.66475 1.069 4.19148 1.1658 1.60033.1012 3.13121-.1576 4.53874-.6717l.0104 1.2872 10.86911-.08-.0589-7.9845c.15441-.017.0815-.04.40826.01l3.34192.4723-.0801-10.8396-14.35934.3302c-2.66482-1.8767-8.53632-1.6835-11.02765 1.848-.37643-.2065-.82635-.234-1.23092-.3886l-.3297-6.0957c.15338-.024.0797-.043.40822-.012l3.36106.3163-.58603-10.8242-14.58359 1.0118.076 1.416c-1.20661-.4824-2.5174-.7074-3.8866-.6915l.64649-1.6407-30.6741-.7581.78496 2.3477c-.30532-.024-.59742-.094-.90794-.096-1.46524-.01-2.8557.2975-4.14083.7911-.45115-.8851-.98822-1.7267-1.74615-2.3709-1.37832-1.1715-3.14574-1.6693-5.00592-1.8655l-.18912-.1953h-1.22679c-.0189 0-.008-.0002-.0253 0zm.0295 2.914c3.85286-.038 6.14685 1.8925 6.29264 5.3676.0159.3815.006.747-.0253 1.0976 1.14425-1.7972 3.26568-2.8411 6.02443-2.8251 2.61827.015 4.65119.9778 5.81205 2.6231l-1.59681-4.7744 5.11495.1256 1.77147 7.3613 2.06446-7.2668 4.66587.1158 1.77147 7.3613 2.10944-7.2657 4.86791.1204-1.50222 3.8153c1.08312-1.2591 2.73603-2.0275 4.79298-2.1379 4.27971-.2295 6.94608 2.5488 6.91999 7.0895l-7.97729.4284c.3878.9455 1.13077 1.3997 2.11666 1.3467.85149-.046 1.70543-.4743 2.4288-1.232l2.76003 2.4366c-1.22267 1.5038-3.06174 2.4114-5.43687 2.5388-4.1901.2248-6.80935-2.107-7.01249-5.8937-.0184-.3528-.0147-.6947.01-1.0258l-1.88775 4.7936-4.93508-.1215-1.5906-6.5034-1.97612 6.4156-4.93509-.1215-1.47434-4.408c.009.1721.0178.3459.0171.524-.022 3.8369-2.75212 6.312-6.97063 6.288-4.21855-.024-6.91896-2.5304-6.89674-6.3676.002-.2508.0147-.4956.0393-.7343-1.00833 1.5026-2.80176 2.3716-5.25137 2.4743l-2.17453.091.17105 4.0803-5.20123.2186-.6589-15.7164 7.3763-.309c.12755 0 .25304-.01.37724-.01zm58.10496 2.1998.24548 4.5486c-2.28124-.2137-3.71592.6729-3.62874 2.2862l.31576 5.8477-5.04156.2728-.66199-12.2561 5.04156-.2728.0967 1.7927c.7824-1.3231 2.04198-2.133 3.63284-2.2191zm-58.58608 1.7648-1.90532.08.15658 3.7445 1.90635-.08c1.12096-.047 1.74157-.7686 1.69085-1.9792-.0459-1.093-.64498-1.7293-1.6433-1.7653h-.10129zm42.9519 3.1063c-.0269 0-.0543.0003-.0816.01-.87384.047-1.37292.7924-1.51929 1.834l3.04736-.1633c.0123-.9488-.57359-1.6292-1.36683-1.6712v.0005c-.0264-.01-.0528-.01-.0796-.01zm-30.20126.5638c-1.12197-.01-1.84563.9311-1.85362 2.3673-.008 1.436.70435 2.3795 1.82624 2.3895 1.12199.01 1.84562-.9321 1.85364-2.3683.008-1.4362-.70429-2.3785-1.82626-2.3885zm53.55796 8.6c.19937 0 .40272.01.60876.018 4.27728.2712 6.60074 3.3411 6.04512 7.8476l-7.97264-.5059c.27482.9843.96023 1.5229 1.94561 1.5849.85098.054 1.74906-.2707 2.5559-.939l2.45618 2.7409c-1.38972 1.351-3.32144 2.0379-5.69526 1.8873-4.18772-.2656-6.51708-2.8864-6.27713-6.671.003-.045.008-.089.0109-.1333l-3.11713 1.1281c-.27348-.7563-.78785-1.2116-1.50482-1.2506-.98589-.054-1.6615.8082-1.7358 2.1751-.0755 1.3891.50289 2.3205 1.48879 2.3735.71699.039 1.25423-.3362 1.57302-1.2402l3.97547 2.1037c-1.01438 2.1246-3.234 3.2621-6.03477 3.1099-2.81988-.1534-4.85318-1.5574-5.68545-3.7553l.19069 2.5962-5.03534.3705-.46665-6.3562c-.0756-1.0293-.70543-1.6349-1.57818-1.5709-.98468.072-1.5538.9016-1.46659 2.0877l.44545 6.0642-5.03533.3705-.29097-3.9584c0 .035-.008.07-.008.106l-7.98295-.2967c.30059.9766 1.00025 1.4978 1.98694 1.5338.85209.032 1.74053-.3175 2.52957-1.0067l2.52749 2.6764c-1.3539 1.3868-3.26724 2.124-5.64409 2.036-3.15722-.1172-5.29614-1.5973-6.10042-3.9388l.26408 3.2432-5.03224.4093-.13799-1.7001c-.70516 1.2956-1.87872 2.089-3.44424 2.2164-2.50496.2036-4.42171-1.4866-4.65087-4.3047l-.23513-2.8965-.31885 11.6903-5.04722-.1375.15243-5.5857c-.81013.8984-1.89987 1.3651-3.15587 1.3281-3.04308-.083-5.08307-2.1422-5.41155-5.3428l-7.82693-.1411c.31908.9708 1.02814 1.48 2.01538 1.495.85259.015 1.73411-.3505 2.50992-1.0547l2.57865 2.6283c-1.3272 1.4123-3.22606 2.186-5.6043 2.143-3.17375-.057-5.34543-1.5104-6.18566-3.8556-.12766 2.9606-2.83179 4.5664-6.07251 4.9118-2.72219.2901-5.85478-.3014-8.09873-1.6644l1.50534-4.0866c1.74922 1.1674 4.63249 1.9657 6.21668 1.7968.75864-.081 1.22367-.3786 1.16427-.9364-.21648-2.0305-8.17298.1718-8.75813-5.317-.33293-3.124 2.0901-5.3688 6.15106-5.8017.30956-.033.62185-.054.93482-.065 2.19113-.076 4.42146.3793 6.06785 1.1911l-1.45573 4.1269c-1.67696-.7013-4.21072-1.4013-5.57176-1.2562-.58015.062-.94027.2808-.89037.7493.1893 1.7763 6.72771.2359 8.42068 4.1212-.001-.098-.001-.1961-.001-.2951.0702-3.8814 2.71758-6.3244 6.66625-6.2534 3.47533.063 5.74985 2.0229 6.29833 5.1765.49159-3.0956 2.57768-4.9846 5.55675-4.9026 1.3235.036 2.43139.5831 3.21376 1.525l.0336-1.2568 4.84881.1323 4.69688-.3819.51623 6.3516c.0837 1.0289.67334 1.6343 1.47846 1.5684.91697-.075 1.43473-.9046 1.33842-2.0899l-.49299-6.0611 5.03226-.4092.45527 5.596c.47379-3.3867 3.05337-5.4323 6.71018-5.2969 3.17143.1178 5.31051 1.7996 6.03065 4.4985l-.3819-5.1997 5.03483-.37.12867 1.7456c.73591-1.3141 1.95855-2.124 3.56981-2.2422 2.57358-.1893 4.52115 1.5123 4.7284 4.332l.0987 1.342c.59558-3.2421 3.14103-5.1781 6.70087-4.9846 2.1264.1154 3.86355 1.0405 4.93045 2.5739.8087-2.6181 3.0262-4.1789 6.01668-4.1919zm15.90138.6604.0341 4.5547c-2.26878-.3198-3.74399.4989-3.73208 2.1146l.0434 5.856-5.04878.037-.0909-12.2736 5.04931-.037.0129 1.7947c.8432-1.2853 2.13892-2.0349 3.73208-2.0469zm-15.62076 2.7125c-.78468.033-1.31249.6931-1.56271 1.6469l3.04477.1928c.1311-1.0034-.44847-1.7827-1.32186-1.8377-.0273-.0005-.0544 0-.0811 0zm-37.21738 2.483c-.0547 0-.1084-.0002-.1607.01v-.01c-.78351.054-1.29366.7267-1.51877 1.6868l3.04943.1131c.10462-1.0066-.49543-1.7695-1.36996-1.8025zm-39.62185.055v.0005c-.87501-.016-1.42693.6921-1.64746 1.7204l3.0515.055c.0856-1.0083-.52896-1.7626-1.40404-1.7756zm13.19763.9318c-.0701 0-.13888.0003-.20619.01-1.00592.081-1.66169.9759-1.69807 2.3218-.0392 1.4356.65312 2.3943 1.77456 2.4283 1.09908.03 1.84195-.8923 1.88153-2.328.0391-1.4355-.6526-2.4018-1.75183-2.4278z"/><text style="font-weight:900;font-size:9.90955;font-family:Montserrat;letter-spacing:0;word-spacing:0;stroke-width:.267553" x="-690.99921" y="1917.3622"><tspan fill="#fff" font-family="Montserrat" font-size="9.90955" font-weight="900" stroke-width=".267553" x="-690.99921" y="1917.3622">Blender</tspan></text><path d="m-737.57306 1913.7281v53.5983h134.42072v-53.5983h-41.61192a.79382936.79382936 0 1 0 0 1.5875h40.02442v50.4233h-131.24572v-50.4233h40.02442a.79382936.79382936 0 1 0 0-1.5875z"/></g></g><g stroke-width="1.33329" transform="matrix(-.86745313 -.17279309 .17349539 -.86398415 -1648.4349 1759.5182)"><path d="m-621.18782 1991.8263h31.41926v21.1667h-31.41926z" fill="#003f92"/><path d="m-621.12079 1991.8249h4.15734l-.00001 21.1695h-4.15733z" fill="#005cca"/><path d="m-593.99293 1991.8249h4.15734l-.00001 21.1695h-4.15733z" fill="#005cca"/><path d="m-621.12079 1991.8249h31.2852l-.00001 21.1695h-31.28519z" fill="none" stroke="#fff" stroke-linecap="round" stroke-width="1.19875"/><g fill="#005cca" stroke-width="1.33329"><path d="m-609.07769 1996.5387c-.49854 0-.89988.4015-.89988.9v4.8444c0 .4985-.40136.8999-.8999.8999-.49853 0-.89986-.4014-.89986-.8999 0-.4986-.40135-.8999-.89988-.8999s-.89986.4013-.89986.8999v3.1002c0 .4986.40133.8998.89986.8998s.89988-.4013.89988-.8998.40133-.8999.89986-.8999c.49854 0 .8999.4014.8999.8999v1.9961c0 .4986.40134.9001.89988.9001.49853 0 .89989-.4015.89989-.9001v-1.9973c.00053-.4979.40168-.8987.89985-.8987.49853 0 .8999.4014.8999.8999 0 .4986.40134.8998.89988.8998.49853 0 .8999-.4012.8999-.8998.00052-.4981.40167-.8988.89984-.8988.49854 0 .8999.4013.8999.8999v1.9961c0 .4986.40134.8999.89988.8999.49853 0 .89987-.4013.89987-.8999v-1.9961c0-.4986.40137-.8999.8999-.8999.49854 0 .89986.4013.89986.8999 0 .4985.40138.8998.89991.8998.49854 0 .89987-.4013.89987-.8998v-3.1003c0-.4984-.40133-.8999-.89987-.8999-.49853 0-.89991.4015-.89991.8999 0 .4986-.40132.8999-.89986.8999-.49853 0-.8999-.4013-.8999-.8999v-4.8443c0-.4986-.40134-.8999-.89987-.8999-.49854 0-.89988.4013-.89988.8999v4.8443c0 .4986-.40136.8999-.8999.8999-.49818 0-.89925-.4008-.89984-.8988v-1.0513c0-.4986-.40137-.8999-.8999-.8999s-.89988.4014-.89988.8999v1.0502c0 .4985-.40137.8998-.8999.8998-.49817 0-.89925-.4007-.89985-.8987v-4.8454c0-.4987-.40136-.8999-.89989-.8999z"/><path d="m-615.33388 2003.2265h19.71146c.31148 0 .56224.2508.56224.5623s-.25076.5622-.56224.5622h-19.71146c-.31148 0-.56224-.2507-.56224-.5622s.25076-.5623.56224-.5623z"/></g></g><g stroke-width="1.33329" transform="matrix(-.86745313 -.17279309 .17349539 -.86398415 -1653.5137 1758.5067)"><path d="m-582.26805 1991.8264h31.41926v21.1667h-31.41926z" fill="#003f92"/><path d="m-582.20101 1991.8249h4.15734l-.00001 21.1695h-4.15733z" fill="#005cca"/><path d="m-555.07316 1991.8249h4.15734l-.00001 21.1695h-4.15733z" fill="#005cca"/><path d="m-582.20101 1991.8249h31.28519l-.00001 21.1696h-31.28519z" fill="none" stroke="#fff" stroke-linecap="round" stroke-width="1.19875"/><g fill="#005cca" stroke-width="1.33329" transform="translate(38.91973)"><path d="m-609.07769 1996.5387c-.49854 0-.89988.4015-.89988.9v4.8444c0 .4985-.40136.8999-.8999.8999-.49853 0-.89986-.4014-.89986-.8999 0-.4986-.40135-.8999-.89988-.8999s-.89986.4013-.89986.8999v3.1002c0 .4986.40133.8998.89986.8998s.89988-.4013.89988-.8998.40133-.8999.89986-.8999c.49854 0 .8999.4014.8999.8999v1.9961c0 .4986.40134.9001.89988.9001.49853 0 .89989-.4015.89989-.9001v-1.9973c.00053-.4979.40168-.8987.89985-.8987.49853 0 .8999.4014.8999.8999 0 .4986.40134.8998.89988.8998.49853 0 .8999-.4012.8999-.8998.00052-.4981.40167-.8988.89984-.8988.49854 0 .8999.4013.8999.8999v1.9961c0 .4986.40134.8999.89988.8999.49853 0 .89987-.4013.89987-.8999v-1.9961c0-.4986.40137-.8999.8999-.8999.49854 0 .89986.4013.89986.8999 0 .4985.40138.8998.89991.8998.49854 0 .89987-.4013.89987-.8998v-3.1003c0-.4984-.40133-.8999-.89987-.8999-.49853 0-.89991.4015-.89991.8999 0 .4986-.40132.8999-.89986.8999-.49853 0-.8999-.4013-.8999-.8999v-4.8443c0-.4986-.40134-.8999-.89987-.8999-.49854 0-.89988.4013-.89988.8999v4.8443c0 .4986-.40136.8999-.8999.8999-.49818 0-.89925-.4008-.89984-.8988v-1.0513c0-.4986-.40137-.8999-.8999-.8999s-.89988.4014-.89988.8999v1.0502c0 .4985-.40137.8998-.8999.8998-.49817 0-.89925-.4007-.89985-.8987v-4.8454c0-.4987-.40136-.8999-.89989-.8999z"/><path d="m-615.33388 2003.2265h19.71146c.31148 0 .56224.2508.56224.5623s-.25076.5622-.56224.5622h-19.71146c-.31148 0-.56224-.2507-.56224-.5622s.25076-.5623.56224-.5623z"/></g></g><g stroke-width="1.33329" transform="matrix(-.86745313 -.17279309 .17349539 -.86398415 -1658.5925 1757.4949)"><path d="m-543.25574 1991.8495h31.41927v21.1667h-31.41927z" fill="#003f92"/><path d="m-543.28127 1991.8249h4.15734l-.00001 21.1695h-4.15733z" fill="#005cca"/><path d="m-516.15338 1991.825h4.15734l-.00001 21.1695h-4.15733z" fill="#005cca"/><path d="m-543.28127 1991.8249 31.28523.0001-.00004 21.1694-31.28516.0001z" fill="none" stroke="#fff" stroke-linecap="round" stroke-width="1.19875"/><g fill="#005cca" stroke-width="1.33329" transform="translate(77.839495)"><path d="m-609.07769 1996.5387c-.49854 0-.89988.4015-.89988.9v4.8444c0 .4985-.40136.8999-.8999.8999-.49853 0-.89986-.4014-.89986-.8999 0-.4986-.40135-.8999-.89988-.8999s-.89986.4013-.89986.8999v3.1002c0 .4986.40133.8998.89986.8998s.89988-.4013.89988-.8998.40133-.8999.89986-.8999c.49854 0 .8999.4014.8999.8999v1.9961c0 .4986.40134.9001.89988.9001.49853 0 .89989-.4015.89989-.9001v-1.9973c.00053-.4979.40168-.8987.89985-.8987.49853 0 .8999.4014.8999.8999 0 .4986.40134.8998.89988.8998.49853 0 .8999-.4012.8999-.8998.00052-.4981.40167-.8988.89984-.8988.49854 0 .8999.4013.8999.8999v1.9961c0 .4986.40134.8999.89988.8999.49853 0 .89987-.4013.89987-.8999v-1.9961c0-.4986.40137-.8999.8999-.8999.49854 0 .89986.4013.89986.8999 0 .4985.40138.8998.89991.8998.49854 0 .89987-.4013.89987-.8998v-3.1003c0-.4984-.40133-.8999-.89987-.8999-.49853 0-.89991.4015-.89991.8999 0 .4986-.40132.8999-.89986.8999-.49853 0-.8999-.4013-.8999-.8999v-4.8443c0-.4986-.40134-.8999-.89987-.8999-.49854 0-.89988.4013-.89988.8999v4.8443c0 .4986-.40136.8999-.8999.8999-.49818 0-.89925-.4008-.89984-.8988v-1.0513c0-.4986-.40137-.8999-.8999-.8999s-.89988.4014-.89988.8999v1.0502c0 .4985-.40137.8998-.8999.8998-.49817 0-.89925-.4007-.89985-.8987v-4.8454c0-.4987-.40136-.8999-.89989-.8999z"/><path d="m-615.33388 2003.2265h19.71146c.31148 0 .56224.2508.56224.5623s-.25076.5622-.56224.5622h-19.71146c-.31148 0-.56224-.2507-.56224-.5622s.25076-.5623.56224-.5623z"/></g></g><g fill="#fff" stroke-width="1.15267" transform="matrix(.2006808 -.99936391 1.0033764 .19986845 -2695.9786 -864.10738)"><path d="m-2239 7958.5742-12.4258 12.4258h24.8516z" transform="matrix(.26458333 0 0 .26458333 -.00001 -95.250011)"/><path d="m-591.21148 2012.8507v2.3813h-2.38125v-2.3813z"/></g><g fill="#fff" stroke-width="1.15267" transform="matrix(.2006808 -.99936391 -1.0033764 -.19986845 1304.4621 -67.236122)"><path d="m-2239 7958.5742-12.4258 12.4258h24.8516z" transform="matrix(.26458333 0 0 .26458333 -.00001 -95.250011)"/><path d="m-591.21148 2012.8507v2.3813h-2.38125v-2.3813z"/></g><path d="m-681.4493 26.573021 34.43364 10.601798-7.14259 23.196302-34.43364-10.601701z" fill="#003f92"/><path d="m-681.37537 26.594121 4.5562 1.4028-7.14355 23.1994-4.55619-1.4028z" fill="#005cca"/><path d="m-651.64484 35.747821 4.5562 1.4028-7.14356 23.199399-4.55618-1.402799z" fill="#005cca"/><path d="m-681.37537 26.594121 34.28673 10.5565-7.14356 23.199399-34.28671-10.556499z" fill="none" stroke="#fff" stroke-linecap="round" stroke-width="1.05833"/><g fill="#005cca" stroke-width="1.02653" transform="matrix(1.0959406 .33742908 -.33744493 1.0958891 671.46732 -1946.6409)"><path d="m-609.07769 1996.5387c-.49854 0-.89988.4015-.89988.9v4.8444c0 .4985-.40136.8999-.8999.8999-.49853 0-.89986-.4014-.89986-.8999 0-.4986-.40135-.8999-.89988-.8999s-.89986.4013-.89986.8999v3.1002c0 .4986.40133.8998.89986.8998s.89988-.4013.89988-.8998.40133-.8999.89986-.8999c.49854 0 .8999.4014.8999.8999v1.9961c0 .4986.40134.9001.89988.9001.49853 0 .89989-.4015.89989-.9001v-1.9973c.00053-.4979.40168-.8987.89985-.8987.49853 0 .8999.4014.8999.8999 0 .4986.40134.8998.89988.8998.49853 0 .8999-.4012.8999-.8998.00052-.4981.40167-.8988.89984-.8988.49854 0 .8999.4013.8999.8999v1.9961c0 .4986.40134.8999.89988.8999.49853 0 .89987-.4013.89987-.8999v-1.9961c0-.4986.40137-.8999.8999-.8999.49854 0 .89986.4013.89986.8999 0 .4985.40138.8998.89991.8998.49854 0 .89987-.4013.89987-.8998v-3.1003c0-.4984-.40133-.8999-.89987-.8999-.49853 0-.89991.4015-.89991.8999 0 .4986-.40132.8999-.89986.8999-.49853 0-.8999-.4013-.8999-.8999v-4.8443c0-.4986-.40134-.8999-.89987-.8999-.49854 0-.89988.4013-.89988.8999v4.8443c0 .4986-.40136.8999-.8999.8999-.49818 0-.89925-.4008-.89984-.8988v-1.0513c0-.4986-.40137-.8999-.8999-.8999s-.89988.4014-.89988.8999v1.0502c0 .4985-.40137.8998-.8999.8998-.49817 0-.89925-.4007-.89985-.8987v-4.8454c0-.4987-.40136-.8999-.89989-.8999z"/><path d="m-615.33388 2003.2265h19.71146c.31148 0 .56224.2508.56224.5623s-.25076.5622-.56224.5622h-19.71146c-.31148 0-.56224-.2507-.56224-.5622s.25076-.5623.56224-.5623z"/></g><path d="m-632.37903 41.681319 34.43364 10.601801-7.14259 23.196299-34.43364-10.601698z" fill="#003f92"/><path d="m-632.30505 41.702322 4.5562 1.402799-7.14355 23.1994-4.55619-1.4028z" fill="#005cca"/><path d="m-602.57454 50.856021 4.5562 1.4028-7.14356 23.1994-4.55618-1.4028z" fill="#005cca"/><path d="m-632.30505 41.702322 34.28671 10.556499-7.14359 23.199501-34.2867-10.556503z" fill="none" stroke="#fff" stroke-linecap="round" stroke-width="1.05833"/><g fill="#005cca" stroke-width="1.02653" transform="matrix(1.0959406 .33742908 -.33744493 1.0958891 720.53762 -1931.5327)"><path d="m-609.07769 1996.5387c-.49854 0-.89988.4015-.89988.9v4.8444c0 .4985-.40136.8999-.8999.8999-.49853 0-.89986-.4014-.89986-.8999 0-.4986-.40135-.8999-.89988-.8999s-.89986.4013-.89986.8999v3.1002c0 .4986.40133.8998.89986.8998s.89988-.4013.89988-.8998.40133-.8999.89986-.8999c.49854 0 .8999.4014.8999.8999v1.9961c0 .4986.40134.9001.89988.9001.49853 0 .89989-.4015.89989-.9001v-1.9973c.00053-.4979.40168-.8987.89985-.8987.49853 0 .8999.4014.8999.8999 0 .4986.40134.8998.89988.8998.49853 0 .8999-.4012.8999-.8998.00052-.4981.40167-.8988.89984-.8988.49854 0 .8999.4013.8999.8999v1.9961c0 .4986.40134.8999.89988.8999.49853 0 .89987-.4013.89987-.8999v-1.9961c0-.4986.40137-.8999.8999-.8999.49854 0 .89986.4013.89986.8999 0 .4985.40138.8998.89991.8998.49854 0 .89987-.4013.89987-.8998v-3.1003c0-.4984-.40133-.8999-.89987-.8999-.49853 0-.89991.4015-.89991.8999 0 .4986-.40132.8999-.89986.8999-.49853 0-.8999-.4013-.8999-.8999v-4.8443c0-.4986-.40134-.8999-.89987-.8999-.49854 0-.89988.4013-.89988.8999v4.8443c0 .4986-.40136.8999-.8999.8999-.49818 0-.89925-.4008-.89984-.8988v-1.0513c0-.4986-.40137-.8999-.8999-.8999s-.89988.4014-.89988.8999v1.0502c0 .4985-.40137.8998-.8999.8998-.49817 0-.89925-.4007-.89985-.8987v-4.8454c0-.4987-.40136-.8999-.89989-.8999z"/><path d="m-615.33388 2003.2265h19.71146c.31148 0 .56224.2508.56224.5623s-.25076.5622-.56224.5622h-19.71146c-.31148 0-.56224-.2507-.56224-.5622s.25076-.5623.56224-.5623z"/></g><path d="m-583.21506 56.846119 34.43367 10.601802-7.14261 23.196399-34.43364-10.601798z" fill="#003f92"/><path d="m-583.23472 56.81052 4.55618 1.4029-7.14354 23.1994-4.5562-1.4028z" fill="#005cca"/><path d="m-553.5042 65.96442 4.5562 1.4028-7.14356 23.1994-4.55618-1.4028z" fill="#005cca"/><path d="m-583.23472 56.81052 34.28672 10.5567-7.14356 23.199299-34.28672-10.556398z" fill="none" stroke="#fff" stroke-linecap="round" stroke-width="1.05833"/><g fill="#005cca" stroke-width="1.02653" transform="matrix(1.0959406 .33742908 -.33744493 1.0958891 769.60792 -1916.4244)"><path d="m-609.07769 1996.5387c-.49854 0-.89988.4015-.89988.9v4.8444c0 .4985-.40136.8999-.8999.8999-.49853 0-.89986-.4014-.89986-.8999 0-.4986-.40135-.8999-.89988-.8999s-.89986.4013-.89986.8999v3.1002c0 .4986.40133.8998.89986.8998s.89988-.4013.89988-.8998.40133-.8999.89986-.8999c.49854 0 .8999.4014.8999.8999v1.9961c0 .4986.40134.9001.89988.9001.49853 0 .89989-.4015.89989-.9001v-1.9973c.00053-.4979.40168-.8987.89985-.8987.49853 0 .8999.4014.8999.8999 0 .4986.40134.8998.89988.8998.49853 0 .8999-.4012.8999-.8998.00052-.4981.40167-.8988.89984-.8988.49854 0 .8999.4013.8999.8999v1.9961c0 .4986.40134.8999.89988.8999.49853 0 .89987-.4013.89987-.8999v-1.9961c0-.4986.40137-.8999.8999-.8999.49854 0 .89986.4013.89986.8999 0 .4985.40138.8998.89991.8998.49854 0 .89987-.4013.89987-.8998v-3.1003c0-.4984-.40133-.8999-.89987-.8999-.49853 0-.89991.4015-.89991.8999 0 .4986-.40132.8999-.89986.8999-.49853 0-.8999-.4013-.8999-.8999v-4.8443c0-.4986-.40134-.8999-.89987-.8999-.49854 0-.89988.4013-.89988.8999v4.8443c0 .4986-.40136.8999-.8999.8999-.49818 0-.89925-.4008-.89984-.8988v-1.0513c0-.4986-.40137-.8999-.8999-.8999s-.89988.4014-.89988.8999v1.0502c0 .4985-.40137.8998-.8999.8998-.49817 0-.89925-.4007-.89985-.8987v-4.8454c0-.4987-.40136-.8999-.89989-.8999z"/><path d="m-615.33388 2003.2265h19.71146c.31148 0 .56224.2508.56224.5623s-.25076.5622-.56224.5622h-19.71146c-.31148 0-.56224-.2507-.56224-.5622s.25076-.5623.56224-.5623z"/></g><g fill="#fff"><path d="m-640.24156 51.95822-2.88442-5.4507-2.56648 8.334899z"/><path d="m-643.7419 52.532821-3.01869-.929402.92945-3.018499 3.01869.929399z"/><path d="m-597.22543 65.202521 5.45089-2.8843-2.56648 8.334899z"/><path d="m-594.6545 67.646321 3.01868.929399.92946-3.018499-3.01869-.929401z"/></g><g stroke-width="1.02653" transform="matrix(.95846395 0 0 .95841892 -65.020666 -1766.4783)"><path d="m-567.64062 1914.2578c-.16643.01-.2561.035-.32618.057-.14015.042-.19804.076-.25195.1035-.10781.054-.17058.093-.23828.1367-.1354.087-.27071.1845-.41602.293-.29062.2168-.58986.4533-.84961.7031-.61401.59-.99493 1.0798-1.4414 1.8535-.66024 1.1436-1.01792 2.2825-1.0918 3.5312-.0128.2182-.008.3545-.008.6934.00017.3388.002.7935.006 1.3339.007 1.0809.0222 2.5034.041 4.0118.0188 1.505.0329 2.8893.043 3.9043.004.4363.008.7632.01 1.0429-1.146-1.6423-2.96165-2.6628-4.9375-2.5547-2.40781.1321-4.49251 1.7868-5.13282 4.1036-.60393 2.1848.15114 4.5247 1.91211 5.9589a1.3600943 1.3600943 0 0 0 .50196.2579c.46137.3004.90253.5868 1.45312.7441a1.3600943 1.3600943 0 0 0 .01 0c.99657.2758 2.04084.2889 3.01953.012.30495-.086.64064-.1957 1.0625-.4082s.98583-.5308 2.10742-1.1621c.0356-.02.0566-.031.0918-.051.00052.041.001.066.002.1074.0152 1.2872.0215 1.9359.0488 2.4083.0273.4723.1016.8183.17969 1.1269.49642 1.962 2.05133 3.5042 4.01758 4.0137.92524.2401 1.89705.2273 2.83789-.022 1.26035-.3335 2.33653-1.0479 3.11718-2.0781 1.4723-1.943 1.50033-4.6738.0645-6.6426-.99253-1.3614-2.53805-2.1365-4.22461-2.2891-.00008 0 .00007 0 0 0 .23267-.1335.47975-.2745.82812-.4726.88918-.5058 2.11027-1.196 3.44531-1.9473 1.33832-.7531 2.59389-1.4626 3.54102-2.002.47356-.2697.86949-.497 1.16211-.666.29148-.1683.392-.2183.58984-.3496h.002c1.01553-.6745 1.80796-1.5465 2.45117-2.6621.45703-.7945.69011-1.3681.89453-2.1993.0861-.3502.14155-.728.18359-1.0879.021-.1799.0371-.3458.0449-.5058.004-.08.006-.1518 0-.2695-.003-.059-.005-.1252-.0352-.2618-.0152-.068-.0344-.1547-.10156-.2968-.0336-.071-.0789-.158-.16016-.2618-.0406-.052-.15389-.1656-.1543-.166-.0004-.0003-.23004-.1696-.23047-.1699a1.3600943 1.3600943 0 0 0 -.0488-.027c-.00007-.0001-.80259-.1504-.80274-.1504s-.2146.043-.21484.043c-.00048.0002-.11306.038-.13867.049-.0512.021-.0676.031-.084.039-.0327.016-.0498.023-.0684.033-.0371.02-.0749.04-.12304.066-.0963.053-.22897.1261-.39844.2207-.33894.1894-.82206.4621-1.41797.7989-1.19182.6735-2.83062 1.604-4.62891 2.6289-1.78027 1.0147-3.39464 1.9328-4.58203 2.6054-.0149-1.3608-.0311-3.2111-.043-5.2597-.012-2.0779-.0261-3.9676-.0391-5.3418-.006-.6871-.0121-1.2452-.0176-1.6348-.003-.1948-.005-.3471-.008-.457-.001-.055-.002-.097-.004-.1387-.00082-.021-.001-.039-.004-.074-.001-.018-.003-.035-.01-.088-.003-.026-.0253-.1401-.0254-.1406-.00006-.0003-.0624-.1971-.0625-.1973-.00006-.0001-.49604-.6113-.49609-.6113a1.3600943 1.3600943 0 0 0 -.0293-.019c-.00041-.0003-.26707-.1346-.26758-.1348s-.16177-.05-.23047-.062c-.13739-.025-.241-.023-.32421-.018z" fill="#fff"/><path d="m-579.46324 1938.3779c-1.35182-1.101-1.92114-2.8734-1.45955-4.5433.47938-1.7345 2.07524-3.0077 3.89497-3.1075 1.59013-.087 3.03519.6939 3.92958 2.1243.22212.3552.41236.4982.71494.5372.23862.031.5301-.08 1.11103-.4199.38309-.2245.45942-.2895.47006-.4.007-.072-.018-2.5965-.0556-5.6086s-.0558-5.6868-.0407-5.9437c.0631-1.0666.32907-1.921.91288-2.9322.42127-.73.63316-1.0034 1.20574-1.5536.34118-.3281 1.17307-.9489 1.22606-.9148.0147.01.047 3.4155.0711 7.5685.024 4.153.0617 7.5512.0836 7.5513.022 0 2.98064-1.6758 6.57485-3.7245 3.59425-2.0485 6.54787-3.7178 6.56362-3.7094.0546.032-.0652 1.0616-.17821 1.5211-.19088.7761-.32033 1.0932-.75346 1.8461-.56726.9839-1.16573 1.6381-2.02559 2.2087-.19226.1277-2.53666 1.4628-5.20974 2.967-2.67306 1.5043-4.88736 2.7637-4.92051 2.7986-.095.1-.0611 1.3052.0434 1.5557.14814.3552.4163.5128.90174.5297 1.45777.051 2.66734.6787 3.49581 1.8151 1.04781 1.4367 1.02633 3.5993-.0499 5.0196-.63377.8364-1.3462 1.3105-2.38032 1.5841-.749.1981-1.43937.2047-2.15001.02-1.46605-.3799-2.67418-1.5846-3.04004-3.0306-.15375-.6077-.15575-.6434-.18613-3.2172-.015-1.2793-.0428-2.3348-.0616-2.3458-.0189-.012-.9455.4931-2.05935 1.1202-2.24271 1.2624-2.27209 1.2772-2.87329 1.4474-.7178.2033-1.51715.1978-2.28596-.015-.39516-.1129-1.16758-.5031-1.46936-.749zm1.87134-.9156c.54506.1759 1.149.1603 1.70652-.045.38239-.1407.95765-.615 1.22931-1.0135.94434-1.3851.18908-3.4153-1.43753-3.8641-1.11378-.307-2.22472.1029-2.85592 1.0541-.40333.6073-.51836 1.2959-.34021 2.031.21269.8772.84515 1.5616 1.69783 1.8374zm10.4786 6.0423c.91298.245 1.96951-.055 2.61961-.7463.42454-.4517.70878-1.2582.65989-1.8738-.13352-1.6879-1.71987-2.8012-3.29538-2.3126-1.02096.3166-1.62931 1.0238-1.79289 2.084-.0822.5329-.0346.9277.17068 1.4127.27917.6598.9538 1.2513 1.63809 1.436z" fill="#003f92" stroke-width="1.02653"/></g><g stroke-width=".80798" transform="matrix(1.2376543 0 0 1.2376543 125.39571 -2312.5589)"><path d="m-674.1267 1895.7657c-.70963 0-1.00197.01-1.71679.01-1.75645 0-3.10898 0-4.04492.01-.46798 0-.83101.01-1.09571.01-.13235 0-.2379 0-.33203.01-.0941 0 .0497-.041-.45312.037h-.002-.002c-1.20381.1888-2.25094.7319-3.06055 1.5722-.8096.8404-1.44239 2.1169-1.23242 3.5821.19756 1.379 1.12285 2.4674 2.23828 3.0175.066.033.8511.2594 1.48438.377-1.52793 1.1588-2.93388 2.2249-3.60547 2.7344-.87991.6674-1.93051 1.465-2.32813 1.7656-.84975.6428-1.47306 1.2002-1.89843 1.8321-.49264.7315-.86563 1.7484-.91211 2.6621-.0347.6839.15884 1.6505.46875 2.2734.44077.8863.93125 1.4038 1.80859 1.8848 1.75513.9622 3.68858.7032 5.25195-.2227.54093-.3205.40747-.2769.60743-.4317.19996-.1547.45926-.3596.7832-.6172.64787-.5151 1.54942-1.2398 2.66992-2.1464.0395-.032.0623-.05.10156-.082.86067 2.1788 2.16348 4.1924 4.07227 5.7051 2.36904 1.8776 5.29128 2.9874 8.39844 3.2461 1.03344.086 1.94445.076 2.99609-.047 2.64226-.305 5.10926-1.2003 7.21289-2.664 3.28127-2.2835 5.4304-5.7763 5.8418-9.6621.0959-.9067.0823-1.6973-.0176-2.5782-.33029-2.9129-1.6229-5.6089-3.68555-7.7285-.62382-.641-1.20595-1.1237-2.71484-2.2695-2.30785-1.7525-3.96341-3.0114-6.99219-5.3106-.83898-.6368-1.59398-1.203-2.1582-1.623-.28211-.21-.51474-.3826-.69531-.5137-.0903-.066-.16723-.1209-.24024-.1719-.073-.051.0872-.0001-.41601-.2539h-.002-.002c-4.28299-2.3527-8.78255 1.9888-6.32793 5.593z" opacity=".391"/><path d="m-674.92183 1894.0352c-.70963 0-1.00197.01-1.71679.01-1.75645 0-3.10898 0-4.04492.01-.46798 0-.83101.01-1.09571.01-.13235 0-.2379 0-.33203.01-.0941 0 .0497-.041-.45312.037h-.002-.002c-1.20381.1888-2.25094.7319-3.06055 1.5722-.8096.8404-1.44239 2.1169-1.23242 3.5821.19756 1.379 1.12285 2.4674 2.23828 3.0175.066.033.8511.2594 1.48438.377-1.52793 1.1588-2.93388 2.2249-3.60547 2.7344-.87991.6674-1.93051 1.465-2.32813 1.7656-.84975.6428-1.47306 1.2002-1.89843 1.8321-.49264.7315-.86563 1.7484-.91211 2.6621-.0347.6839.15884 1.6505.46875 2.2734.44077.8863.93125 1.4038 1.80859 1.8848 1.75513.9622 3.68858.7032 5.25195-.2227.54093-.3205.40747-.2769.60743-.4317.19996-.1547.45926-.3596.7832-.6172.64787-.5151 1.54942-1.2398 2.66992-2.1464.0395-.032.0623-.05.10156-.082.86067 2.1788 2.16348 4.1924 4.07227 5.7051 2.36904 1.8776 5.29128 2.9874 8.39844 3.2461 1.03344.086 1.94445.076 2.99609-.047 2.64226-.305 5.10926-1.2003 7.21289-2.664 3.28127-2.2835 5.4304-5.7763 5.8418-9.6621.0959-.9067.0823-1.6973-.0176-2.5782-.33029-2.9129-1.6229-5.6089-3.68555-7.7285-.62382-.641-1.20595-1.1237-2.71484-2.2695-2.30785-1.7525-3.96341-3.0114-6.99219-5.3106-.83898-.6368-1.59398-1.203-2.1582-1.623-.28211-.21-.51474-.3826-.69531-.5137-.0903-.066-.16723-.1209-.24024-.1719-.073-.051.0872-.0001-.41601-.2539h-.002-.002c-4.28299-2.3527-8.78255 1.9888-6.32793 5.593z" fill="#fff"/><g stroke-width="7.52026" transform="matrix(.1080847 0 0 .10680013 -577.60533 1670.4342)"><path d="m-831.71773 2323.8154c-24.2655-2.046-46.6082-10.7427-64.5321-25.1186-18.2542-14.6409-31.0571-34.4936-35.7392-55.4187-1.7056-7.6227-2.0721-13.0776-1.3422-19.9789.2075-1.9615.3549-3.5825.3276-3.6023-.027-.02-14.6347 11.9073-32.461 26.5046-20.6687 16.9249-33.2188 27.0245-34.63977 27.8762-8.0405 4.8194-17.5208 5.4712-24.3623 1.675-2.6075-1.4468-5.2394-4.228-6.5776-6.9506-1.492-3.0357-1.9788-5.4662-1.8016-8.9958.2243-4.4662 1.5062-8.1486 4.297-12.3428 2.2175-3.3327 4.6056-5.566 12.0197-11.2403 3.7108-2.84 13.4144-10.2821 21.56357-16.5379 15.6441-12.0095 75.2417-57.7507 84.0052-64.4741 2.8376-2.1771 5.3051-4.0916 5.4832-4.2545.2391-.2187-8.5537-.2956-33.6021-.2936-38.2445 0-35.8668.124-40.2195-2.0486-4.0407-2.0167-6.7409-5.5465-7.3083-9.5535-1.28-9.0383 7.6469-18.4164 19.2904-20.2652 1.1305-.1795 18.6283-.2867 51.0646-.313 27.1397-.022 56.5181-.1122 65.2855-.2005l15.9407-.1604-21.4581-17.4529c-11.8019-9.599-21.8081-17.8739-22.2358-18.3885s-1.1596-1.7071-1.6263-2.6499c-.7847-1.585-.8487-1.9142-.8487-4.3657 0-2.3488.084-2.8313.7386-4.2286 2.0259-4.3265 5.8388-7.33 11.4861-9.0478 2.0631-.6275 2.778-.7098 6.2961-.7245 4.466-.019 6.7435.4522 9.8613 2.0387.9467.4817 13.2676 9.762 28.6956 21.614 28.0218 21.5267 43.347 33.3016 64.69811 49.7103 13.80781 10.6115 17.36106 13.5986 22.35975 18.7971 15.54961 16.1713 24.87276 35.9133 27.33387 57.88.51972 4.6388.5929 14.4102.14033 18.7365-3.04096 29.07-18.70572 55.1519-43.6934 72.7496-15.98776 11.2594-34.74436 18.238-55.55286 20.669-4.2619.498-18.565.7205-22.8864.3562z" fill="url(#a)"/><path d="m-811.26453 2274.5207c20.6589-3.1672 37.6637-13.7006 48.3937-29.9767 15.2771-23.1736 12.0047-53.18-7.9892-73.2577-3.7729-3.7887-6.2206-5.8037-10.6127-8.7368-18.6902-12.4815-43.4136-15.4012-65.2195-7.7022-21.0138 7.4193-36.8328 23.9324-41.9975 43.8402-1.3255 5.1094-1.737 8.5172-1.7411 14.4198 0 6.9227.7993 11.9685 2.9076 18.2455 4.7113 14.0268 15.2625 26.4791 29.2149 34.4788 8.27 4.7417 18.2761 7.9347 28.3104 9.0339 3.4172.3744 15.4922.1521 18.7334-.3448z" fill="#fff"/><path d="m-827.72243 2250.1285c-13.1484-2.0442-24.6012-9.4363-31.1228-20.0879-5.4257-8.8616-6.7861-20.0788-3.642-30.0302 1.8914-5.9867 4.8724-10.7777 9.7206-15.6227 3.3623-3.3601 6.1487-5.4619 10.0687-7.5947 7.5115-4.087 17.1855-6.098 25.7969-5.3624 11.6184.9924 20.9977 5.2211 28.7248 12.9508 7.6274 7.6298 11.3595 16.3721 11.3595 26.6092 0 10.3972-4.2025 19.9114-12.1076 27.4108-6.6967 6.353-14.958 10.3071-24.5372 11.7444-3.3075.4962-11.018.4869-14.2609-.017z" fill="#005385"/></g></g><path d="m-724.35043 135.21789a.63333006.63333006 0 0 0 -.1865.021l-.7174.1937c-2.7644.742-4.6992 3.2596-4.7028 6.1224 0 3.1442 2.3294 5.7995 5.3876 6.2679l.011.061.095.9627a.63333006.63333006 0 0 0 .6941.5678l2.2029-.2244.4714.6425a.63333006.63333006 0 0 0 .6741.2374l.7174-.1921c1.8098-.4853 3.2173-1.7546 4.0058-3.359.9608.5915 2.079.9639 3.3083.7837.5593-.082 1.0844-.2709 1.5881-.4858l2.9678.1307a.63333006.63333006 0 0 0 .012 0c1.2818.034 2.6002-.2235 3.4748-1.0379.9911.7616 2.2195 1.2433 3.5743 1.0754.069-.01.065-.02.1199-.032l.546.6933a.63333006.63333006 0 0 0 .873.1173l1.4405-1.0619c.4185.167.8396.3484 1.3317.3272.2122-.01.214-.045.3125-.084a.63333006.63333006 0 0 0 .1908.022l3.2857-.1416a.63333006.63333006 0 0 0 .4766-.251c.1214.034.1375.085.2976.093.5288.027 1.0124-.099 1.4858-.2379.9866.5828 2.1015.686 3.1157.5184.3702-.061.7374-.2095 1.0981-.3714.3127.1379.6282.2809.9833.3084.7291.057 1.4345-.1009 2.0513-.4017l.7731-.3767a.63333006.63333006 0 0 0 .3405-.7093l-.4285-1.8846a.63333006.63333006 0 0 0 .3714-.52621l.2455-2.94499a.63333006.63333006 0 0 0 -.5823-.6838l-.6664-.052.049-.5742a.63333006.63333006 0 0 0 -.5824-.6839l-3.2604-.2523a.63333006.63333006 0 0 0 -.6798.5795l-.049.5796-.031-.01a.63333006.63333006 0 0 0 -.4936.1817c-.1409-.022-.1804-.065-.4149-.027-.3382.057-.6546.2036-.9711.3431-.5572-.368-1.1973-.6577-1.9483-.6972-.496-.026-.9243.1159-1.3466.2512a.63333006.63333006 0 0 0 -.1889-.021l-3.2356.1392a.63333006.63333006 0 0 0 -.011 0l-.046.01-1.5612.064c-1.0478-1.0323-2.5156-1.6179-4.0819-1.4237-.9473.1174-1.7572.5365-2.448 1.0782-.9151-.6981-2.0012-1.0769-2.9295-1.1023l-3.7369-.1653a.63333006.63333006 0 0 0 -.6588.5728c-.6236-.1376-1.2675-.2189-1.9385-.1205-1.2565.1841-2.2527.8622-3.0226 1.7123-.9425-1.1137-2.1745-1.9957-3.6867-2.2519l-.011-.066-.098-.9643a.63333006.63333006 0 0 0 -.6939-.5677l-2.2045.2259-.478-.6468a.63333006.63333006 0 0 0 -.4871-.2561zm-.02.6327.69251.9363 2.5632-.2613.1538 1.5345h.011c1.8097.1223 3.3043 1.142 4.2631 2.5498.6806-1.0009 1.7708-1.7537 3.1123-1.9503.8323-.122 1.6597.019 2.4425.2844l.034-.7301 3.7479.1654c.9277.026 2.1515.3982 2.9705 1.2156.6611-.6288 1.5165-1.0746 2.5016-1.1967 1.507-.187 2.9515.3776 3.8522 1.4367l1.7449-.073.049-.01 3.2364-.1389v.05c.4617-.1848.9517-.3076 1.4732-.2803.7393.039 1.3793.3361 1.9138.7517.3608-.1992.7536-.3403 1.1436-.4046.2506-.041.4903.061.7412.063l.015-.211.6597.051.1009-1.2071 3.2599.25229-.1 1.2085 1.3008.10181-.2454 2.94519-.5306-.041.6011 2.64471-.7728.37689c-.5242.25521-1.1183.38601-1.7254.33911-.3488-.027-.7088-.15341-1.0405-.3315-.3713.2055-.7815.3327-1.1934.40069-.903.14921-1.8597.057-2.6954-.43919l-.1762-.1042c-.4962.1853-1.032.2847-1.5947.2551-.3151-.016-.5619-.19971-.8533-.2898l.02.4474-3.2859.1417-.011-.086c-.1704.037-.3253.14089-.4968.1482-.5186.022-1.0122-.1297-1.4604-.3659l-1.6598 1.2235-.8029-1.01771c-.1501.034-.2826.1007-.4394.1201-1.3853.17171-2.6805-.33629-3.5855-1.23399-.6086.8972-1.9796 1.2288-3.369 1.1927l-3.0624-.13501c-.5163.235-1.0597.41561-1.6141.4968-1.3245.19411-2.5647-.23359-3.4914-1.01519-.619 1.7302-2.0463 3.10929-3.8942 3.6049l-.7173.19249-.6848-.93499-2.5632.2604-.1543-1.5334h-.011c-2.9872-.2019-5.3288-2.70241-5.3288-5.6965.011-2.5785 1.7445-4.84421 4.2352-5.5122zm-.45389 1.2615-.60661.2231.076 1.0039c-.2178.1195-.4212.259-.6086.4166l-.93861-.3891-.41149.4902.5652.8138c-.1301.2141-.23771.4422-.32131.6803l-.99119.1202-.1054.6254.894.4229c0 .1255.011.2522.018.3796.012.1275.031.2527.057.3753l-.793.5857.2282.593.9963-.07c.1295.2176.2803.4207.4502.606l-.3923.9057.5008.4022.8428-.56c.215.1188.4429.2169.6804.2929l.1257.9994.6393.103.4559-.9222c.1188 0 .2386-.01.359-.023h.00053l1.7439-.1679-.2483-2.4777-1.7446.1673.076.7711h-.00027c-1.09759.1052-2.0739-.6799-2.1818-1.754-.1076-1.0737.69441-2.0292 1.7917-2.1347l1.7442-.1676-.1713-1.7072-1.744.1675c-.1208.01-.2396.026-.3565.046zm3.789 2.0723-.4564.9222c-.1187 0-.23811.01-.3586.023l-1.74451.1676.17121 1.7068 1.7442-.1675a1.9964771 1.953862 0 0 1 2.1824 1.7534 1.9964771 1.953862 0 0 1 -1.7923 2.1352l-1.7441.1683.1712 1.70679 1.7446-.16749c.12049-.01.2394-.026.35589-.046l.63131.81809.6063-.2229-.075-1.004c.21761-.1194.42141-.2592.6086-.4166l.93861.389.4112-.49-.565-.81399c.1298-.21411.2379-.44201.3217-.68021l.9907-.1201.1055-.6256-.894-.423c.011-.1252-.011-.2521-.018-.3794-.012-.1274-.031-.2527-.058-.3754l.7929-.5856-.2282-.5933-.9959.071c-.1294-.2176-.2805-.4207-.4505-.6061l.3923-.9056-.5006-.4022-.8435.56c-.2151-.1188-.4425-.217-.6799-.2928l-.126-.9995zm10.95969.1615-.20719 4.4046-.2526-1.6129-1.6778.2459.20819 1.329c-.26879.1564-.54379.272-.74609.3016-.7673.1124-1.4214-.3756-1.5452-1.1665-.1215-.7748.3454-1.4271 1.104-1.5383.48929-.071 1.0997.081 1.5533.3893l.9012-1.4579c-.71671-.4457-1.7735-.6412-2.69261-.5065-1.9304.283-3.13679 1.7194-2.8726 3.4073.2657 1.6962 1.8088 2.7377 3.66371 2.4659.77439-.1134 1.7096-.519 2.3158-.9877l-.023.5019 2.5892.1138c1.7183.075 2.9537-.6971 3.3356-2.0101.4195 1.3808 1.8258 2.257 3.436 2.0574.3552-.044.686-.1376.9882-.2699l.589.7478.8834-.6509-.554-.7034c.3756-.3581.6468-.802.7848-1.2956l.026.5872c.049 1.0381.7077 1.6619 1.7298 1.6179.7241-.031 1.257-.3261 1.5453-.9248l.037.8158 1.116-.048-.075-1.6419c.2816.8314 1.0401 1.38219 2.1 1.43789.8002.042 1.48-.20289 1.958-.6569l-.5622-.6326c-.3415.3043-.7854.45441-1.2538.4299-.6641-.034-1.1364-.43989-1.2461-1.07349l3.3629.1768c.011-.09.019-.1773.024-.26351.6511.7987 2.3192.29861 2.4404.98551.052.28449-.214.4538-.5922.5163-.4876.081-1.1442-.011-1.6161-.2852l-.2472.80219c.541.32071 1.2843.41541 1.9651.3029.6033-.1001 1.1192-.36129 1.38-.76229.195.41989.6129.6423 1.1133.6813.3995.031.8-.053 1.1656-.2318l-.1875-.8255c-.2562.096-.4744.145-.6614.13049-.2974-.024-.4641-.17649-.4293-.5959l.1647-1.98149 1.3005.10139.064-.7809-1.3004-.10139.101-1.20821-1.0965-.086-.1 1.2085-.646-.051-.012.1816c-.4716-.1691-1.0436-.2172-1.5721-.1299-.6302.1041-1.1682.3994-1.3852.8696-.2736-.7135-.897-1.15-1.9056-1.2029-1.2202-.064-2.1513.617-2.3869 1.7241l-.065-1.4466-1.1159.047.1 2.1754c.034.7085-.3683 1.2706-1.0833 1.3096-.6134.026-.9967-.3287-1.0251-.9468l-.1123-2.4471-1.1162.048.019.4121c-.4786-1.2809-1.8357-2.0669-3.3802-1.8755-1.3047.1617-2.2966.9622-2.6519 2.026-.3377-1.1987-1.432-1.9682-3.0017-2.0372zm8.66851 1.093c1.0031-.028 1.8963.6722 2.03069 1.6847.071.5291-.083 1.0295-.38409 1.4183l-.4505-.5717-.8835.6512.44619.5665c-.1432.052-.29339.091-.45129.111-1.0911.1352-2.1253-.601-2.2684-1.6808-.1433-1.0798.6596-2.0277 1.7591-2.1641.067-.01.1348-.013.2018-.015zm-6.7622.4769.64729.028c.76661.034 1.2427.6162 1.20271 1.473-.04.8486-.5254 1.3723-1.241 1.3408l-.74121-.033zm16.4211.3882h.1206c.6896.036 1.118.4715 1.1071 1.1234l-2.38421-.1251c.13021-.6048.56251-.9834 1.15651-1.0002zm5.0099.2349.6059.047-.1277 1.53899c-.6525-.85349-2.3851-.36529-2.4965-.99619-.048-.2682.18489-.4236.5379-.482.3867-.063.90819 0 1.3898.1803z" fill="#fff"/><g stroke-width="1.47453" transform="matrix(-.66725747 0 0 .66722612 -968.67378 -1145.2268)"><path d="m-567.64062 1914.2578c-.16643.01-.2561.035-.32618.057-.14015.042-.19804.076-.25195.1035-.10781.054-.17058.093-.23828.1367-.1354.087-.27071.1845-.41602.293-.29062.2168-.58986.4533-.84961.7031-.61401.59-.99493 1.0798-1.4414 1.8535-.66024 1.1436-1.01792 2.2825-1.0918 3.5312-.0128.2182-.008.3545-.008.6934.00017.3388.002.7935.006 1.3339.007 1.0809.0222 2.5034.041 4.0118.0188 1.505.0329 2.8893.043 3.9043.004.4363.008.7632.01 1.0429-1.146-1.6423-2.96165-2.6628-4.9375-2.5547-2.40781.1321-4.49251 1.7868-5.13282 4.1036-.60393 2.1848.15114 4.5247 1.91211 5.9589a1.3600943 1.3600943 0 0 0 .50196.2579c.46137.3004.90253.5868 1.45312.7441a1.3600943 1.3600943 0 0 0 .01 0c.99657.2758 2.04084.2889 3.01953.012.30495-.086.64064-.1957 1.0625-.4082s.98583-.5308 2.10742-1.1621c.0356-.02.0566-.031.0918-.051.00052.041.001.066.002.1074.0152 1.2872.0215 1.9359.0488 2.4083.0273.4723.1016.8183.17969 1.1269.49642 1.962 2.05133 3.5042 4.01758 4.0137.92524.2401 1.89705.2273 2.83789-.022 1.26035-.3335 2.33653-1.0479 3.11718-2.0781 1.4723-1.943 1.50033-4.6738.0645-6.6426-.99253-1.3614-2.53805-2.1365-4.22461-2.2891-.00008 0 .00007 0 0 0 .23267-.1335.47975-.2745.82812-.4726.88918-.5058 2.11027-1.196 3.44531-1.9473 1.33832-.7531 2.59389-1.4626 3.54102-2.002.47356-.2697.86949-.497 1.16211-.666.29148-.1683.392-.2183.58984-.3496h.002c1.01553-.6745 1.80796-1.5465 2.45117-2.6621.45703-.7945.69011-1.3681.89453-2.1993.0861-.3502.14155-.728.18359-1.0879.021-.1799.0371-.3458.0449-.5058.004-.08.006-.1518 0-.2695-.003-.059-.005-.1252-.0352-.2618-.0152-.068-.0344-.1547-.10156-.2968-.0336-.071-.0789-.158-.16016-.2618-.0406-.052-.15389-.1656-.1543-.166-.0004-.0003-.23004-.1696-.23047-.1699a1.3600943 1.3600943 0 0 0 -.0488-.027c-.00007-.0001-.80259-.1504-.80274-.1504s-.2146.043-.21484.043c-.00048.0002-.11306.038-.13867.049-.0512.021-.0676.031-.084.039-.0327.016-.0498.023-.0684.033-.0371.02-.0749.04-.12304.066-.0963.053-.22897.1261-.39844.2207-.33894.1894-.82206.4621-1.41797.7989-1.19182.6735-2.83062 1.604-4.62891 2.6289-1.78027 1.0147-3.39464 1.9328-4.58203 2.6054-.0149-1.3608-.0311-3.2111-.043-5.2597-.012-2.0779-.0261-3.9676-.0391-5.3418-.006-.6871-.0121-1.2452-.0176-1.6348-.003-.1948-.005-.3471-.008-.457-.001-.055-.002-.097-.004-.1387-.00082-.021-.001-.039-.004-.074-.001-.018-.003-.035-.01-.088-.003-.026-.0253-.1401-.0254-.1406-.00006-.0003-.0624-.1971-.0625-.1973-.00006-.0001-.49604-.6113-.49609-.6113a1.3600943 1.3600943 0 0 0 -.0293-.019c-.00041-.0003-.26707-.1346-.26758-.1348s-.16177-.05-.23047-.062c-.13739-.025-.241-.023-.32421-.018z" fill="#fff"/><path d="m-579.46324 1938.3779c-1.35182-1.101-1.92114-2.8734-1.45955-4.5433.47938-1.7345 2.07524-3.0077 3.89497-3.1075 1.59013-.087 3.03519.6939 3.92958 2.1243.22212.3552.41236.4982.71494.5372.23862.031.5301-.08 1.11103-.4199.38309-.2245.45942-.2895.47006-.4.007-.072-.018-2.5965-.0556-5.6086s-.0558-5.6868-.0407-5.9437c.0631-1.0666.32907-1.921.91288-2.9322.42127-.73.63316-1.0034 1.20574-1.5536.34118-.3281 1.17307-.9489 1.22606-.9148.0147.01.047 3.4155.0711 7.5685.024 4.153.0617 7.5512.0836 7.5513.022 0 2.98064-1.6758 6.57485-3.7245 3.59425-2.0485 6.54787-3.7178 6.56362-3.7094.0546.032-.0652 1.0616-.17821 1.5211-.19088.7761-.32033 1.0932-.75346 1.8461-.56726.9839-1.16573 1.6381-2.02559 2.2087-.19226.1277-2.53666 1.4628-5.20974 2.967-2.67306 1.5043-4.88736 2.7637-4.92051 2.7986-.095.1-.0611 1.3052.0434 1.5557.14814.3552.4163.5128.90174.5297 1.45777.051 2.66734.6787 3.49581 1.8151 1.04781 1.4367 1.02633 3.5993-.0499 5.0196-.63377.8364-1.3462 1.3105-2.38032 1.5841-.749.1981-1.43937.2047-2.15001.02-1.46605-.3799-2.67418-1.5846-3.04004-3.0306-.15375-.6077-.15575-.6434-.18613-3.2172-.015-1.2793-.0428-2.3348-.0616-2.3458-.0189-.012-.9455.4931-2.05935 1.1202-2.24271 1.2624-2.27209 1.2772-2.87329 1.4474-.7178.2033-1.51715.1978-2.28596-.015-.39516-.1129-1.16758-.5031-1.46936-.749zm1.87134-.9156c.54506.1759 1.149.1603 1.70652-.045.38239-.1407.95765-.615 1.22931-1.0135.94434-1.3851.18908-3.4153-1.43753-3.8641-1.11378-.307-2.22472.1029-2.85592 1.0541-.40333.6073-.51836 1.2959-.34021 2.031.21269.8772.84515 1.5616 1.69783 1.8374zm10.4786 6.0423c.91298.245 1.96951-.055 2.61961-.7463.42454-.4517.70878-1.2582.65989-1.8738-.13352-1.6879-1.71987-2.8012-3.29538-2.3126-1.02096.3166-1.62931 1.0238-1.79289 2.084-.0822.5329-.0346.9277.17068 1.4127.27917.6598.9538 1.2513 1.63809 1.436z" fill="#003f92" stroke-width="1.47453"/></g><g stroke-width="1.17384" transform="matrix(.83818302 0 0 .83814365 -373.628213 -1478.602133)"><path d="m-567.64062 1914.2578c-.16643.01-.2561.035-.32618.057-.14015.042-.19804.076-.25195.1035-.10781.054-.17058.093-.23828.1367-.1354.087-.27071.1845-.41602.293-.29062.2168-.58986.4533-.84961.7031-.61401.59-.99493 1.0798-1.4414 1.8535-.66024 1.1436-1.01792 2.2825-1.0918 3.5312-.0128.2182-.008.3545-.008.6934.00017.3388.002.7935.006 1.3339.007 1.0809.0222 2.5034.041 4.0118.0188 1.505.0329 2.8893.043 3.9043.004.4363.008.7632.01 1.0429-1.146-1.6423-2.96165-2.6628-4.9375-2.5547-2.40781.1321-4.49251 1.7868-5.13282 4.1036-.60393 2.1848.15114 4.5247 1.91211 5.9589a1.3600943 1.3600943 0 0 0 .50196.2579c.46137.3004.90253.5868 1.45312.7441a1.3600943 1.3600943 0 0 0 .01 0c.99657.2758 2.04084.2889 3.01953.012.30495-.086.64064-.1957 1.0625-.4082s.98583-.5308 2.10742-1.1621c.0356-.02.0566-.031.0918-.051.00052.041.001.066.002.1074.0152 1.2872.0215 1.9359.0488 2.4083.0273.4723.1016.8183.17969 1.1269.49642 1.962 2.05133 3.5042 4.01758 4.0137.92524.2401 1.89705.2273 2.83789-.022 1.26035-.3335 2.33653-1.0479 3.11718-2.0781 1.4723-1.943 1.50033-4.6738.0645-6.6426-.99253-1.3614-2.53805-2.1365-4.22461-2.2891-.00008 0 .00007 0 0 0 .23267-.1335.47975-.2745.82812-.4726.88918-.5058 2.11027-1.196 3.44531-1.9473 1.33832-.7531 2.59389-1.4626 3.54102-2.002.47356-.2697.86949-.497 1.16211-.666.29148-.1683.392-.2183.58984-.3496h.002c1.01553-.6745 1.80796-1.5465 2.45117-2.6621.45703-.7945.69011-1.3681.89453-2.1993.0861-.3502.14155-.728.18359-1.0879.021-.1799.0371-.3458.0449-.5058.004-.08.006-.1518 0-.2695-.003-.059-.005-.1252-.0352-.2618-.0152-.068-.0344-.1547-.10156-.2968-.0336-.071-.0789-.158-.16016-.2618-.0406-.052-.15389-.1656-.1543-.166-.0004-.0003-.23004-.1696-.23047-.1699a1.3600943 1.3600943 0 0 0 -.0488-.027c-.00007-.0001-.80259-.1504-.80274-.1504s-.2146.043-.21484.043c-.00048.0002-.11306.038-.13867.049-.0512.021-.0676.031-.084.039-.0327.016-.0498.023-.0684.033-.0371.02-.0749.04-.12304.066-.0963.053-.22897.1261-.39844.2207-.33894.1894-.82206.4621-1.41797.7989-1.19182.6735-2.83062 1.604-4.62891 2.6289-1.78027 1.0147-3.39464 1.9328-4.58203 2.6054-.0149-1.3608-.0311-3.2111-.043-5.2597-.012-2.0779-.0261-3.9676-.0391-5.3418-.006-.6871-.0121-1.2452-.0176-1.6348-.003-.1948-.005-.3471-.008-.457-.001-.055-.002-.097-.004-.1387-.00082-.021-.001-.039-.004-.074-.001-.018-.003-.035-.01-.088-.003-.026-.0253-.1401-.0254-.1406-.00006-.0003-.0624-.1971-.0625-.1973-.00006-.0001-.49604-.6113-.49609-.6113a1.3600943 1.3600943 0 0 0 -.0293-.019c-.00041-.0003-.26707-.1346-.26758-.1348s-.16177-.05-.23047-.062c-.13739-.025-.241-.023-.32421-.018z" fill="#fff"/><path d="m-579.46324 1938.3779c-1.35182-1.101-1.92114-2.8734-1.45955-4.5433.47938-1.7345 2.07524-3.0077 3.89497-3.1075 1.59013-.087 3.03519.6939 3.92958 2.1243.22212.3552.41236.4982.71494.5372.23862.031.5301-.08 1.11103-.4199.38309-.2245.45942-.2895.47006-.4.007-.072-.018-2.5965-.0556-5.6086s-.0558-5.6868-.0407-5.9437c.0631-1.0666.32907-1.921.91288-2.9322.42127-.73.63316-1.0034 1.20574-1.5536.34118-.3281 1.17307-.9489 1.22606-.9148.0147.01.047 3.4155.0711 7.5685.024 4.153.0617 7.5512.0836 7.5513.022 0 2.98064-1.6758 6.57485-3.7245 3.59425-2.0485 6.54787-3.7178 6.56362-3.7094.0546.032-.0652 1.0616-.17821 1.5211-.19088.7761-.32033 1.0932-.75346 1.8461-.56726.9839-1.16573 1.6381-2.02559 2.2087-.19226.1277-2.53666 1.4628-5.20974 2.967-2.67306 1.5043-4.88736 2.7637-4.92051 2.7986-.095.1-.0611 1.3052.0434 1.5557.14814.3552.4163.5128.90174.5297 1.45777.051 2.66734.6787 3.49581 1.8151 1.04781 1.4367 1.02633 3.5993-.0499 5.0196-.63377.8364-1.3462 1.3105-2.38032 1.5841-.749.1981-1.43937.2047-2.15001.02-1.46605-.3799-2.67418-1.5846-3.04004-3.0306-.15375-.6077-.15575-.6434-.18613-3.2172-.015-1.2793-.0428-2.3348-.0616-2.3458-.0189-.012-.9455.4931-2.05935 1.1202-2.24271 1.2624-2.27209 1.2772-2.87329 1.4474-.7178.2033-1.51715.1978-2.28596-.015-.39516-.1129-1.16758-.5031-1.46936-.749zm1.87134-.9156c.54506.1759 1.149.1603 1.70652-.045.38239-.1407.95765-.615 1.22931-1.0135.94434-1.3851.18908-3.4153-1.43753-3.8641-1.11378-.307-2.22472.1029-2.85592 1.0541-.40333.6073-.51836 1.2959-.34021 2.031.21269.8772.84515 1.5616 1.69783 1.8374zm10.4786 6.0423c.91298.245 1.96951-.055 2.61961-.7463.42454-.4517.70878-1.2582.65989-1.8738-.13352-1.6879-1.71987-2.8012-3.29538-2.3126-1.02096.3166-1.62931 1.0238-1.79289 2.084-.0822.5329-.0346.9277.17068 1.4127.27917.6598.9538 1.2513 1.63809 1.436z" fill="#003f92" stroke-width="1.17384"/></g></g></svg>