<svg viewBox="0 0 8.47 8.47" xmlns="http://www.w3.org/2000/svg"
style="display: none;">
<symbol id="shader" viewBox="0 0 8.47 8.47">
<path id="path2221"
d="m 5.2549001,1.2672986 c -0.0194,1.86e-4 -0.0388,9.3e-4 -0.0584,0.0021 l -2.28,0.141 c -0.624,0.0385 -1.11,0.588 -1.07,1.21 l 0.217,3.51 c 0.0384,0.624 0.588,1.11 1.21,1.07 l 2.28,-0.141 c 0.624,-0.0385 1.11,-0.588 1.07,-1.21 l -0.216,-3.51 c -0.0373,-0.605 -0.554,-1.08 -1.15,-1.07 z m 0.0392,0.48 c 0.337,0.0132 0.615,0.279 0.636,0.623 l 0.216,3.51 c 0.0226,0.367 -0.255,0.681 -0.622,0.704 l -2.28,0.141 c -0.367,0.0226 -0.681,-0.255 -0.704,-0.622 l -0.216,-3.51 c -0.0226,-0.367 0.255,-0.681 0.622,-0.704 l 2.28,-0.141 c 0.023,-0.0015 0.0458,-0.0017 0.0683,-7.44e-4 z m -0.89,0.873 c -0.058,-7.44e-4 -0.116,5.58e-4 -0.174,0.0041 -0.76,0.0468 -1.24,0.451 -1.2,1.04 0.0687,1.12 1.71,0.689 1.74,1.22 0.0102,0.166 -0.137,0.266 -0.38,0.281 -0.328,0.0202 -0.83,-0.147 -1.17,-0.406 l -0.28,0.663 c 0.397,0.287 0.957,0.446 1.48,0.414 0.701,-0.0432 1.25,-0.406 1.21,-1.05 -0.0698,-1.13 -1.71,-0.734 -1.74,-1.26 -0.0089,-0.144 0.117,-0.224 0.315,-0.236 0.261,-0.016 0.693,0.106 1.04,0.275 l 0.27,-0.671 c -0.299,-0.167 -0.701,-0.276 -1.11,-0.282 z" />
</symbol>
<symbol id="ui" viewBox="0 0 8.47 8.47">
<path id="path2342"
d="m1.75 1.51 0.0334 0.846 0.116 2.93 1.2-1.41 0.0978-0.0191-0.0856 0.326-0.588 2.23 2 0.545 0.132-0.5h9.3e-5l0.0746-0.283 0.101-0.382h-1.86e-4l0.0882-0.335 0.0432-0.164 0.246-0.935 0.0536 0.196c0.0455 0.166 0.173 0.262 0.254 0.302 0.0817 0.0392 0.141 0.047 0.194 0.0516 0.105 0.0093 0.188-0.0032 0.277-0.0265 0.0892-0.0234 0.168-0.0535 0.255-0.114 0.0437-0.0302 0.0918-0.0666 0.144-0.142 0.0519-0.0756 0.114-0.226 0.0685-0.393l-0.0684-0.25c0.271-0.288 0.393-0.705 0.282-1.11-0.138-0.509-0.592-0.852-1.1-0.875-0.116-0.0052-0.236 0.0068-0.353 0.0376h-9.3e-5c-0.313 0.0822-0.567 0.287-0.718 0.548v9.3e-4c-0.102 0.177-0.154 0.384-0.153 0.596zm0.474 0.829 1.51 0.97-0.86 0.168-0.573 0.672zm3.28 0.104c0.0184-5.58e-4 0.0368-3.72e-4 0.055 5.58e-4 0.316 0.0142 0.604 0.23 0.691 0.55 0.0913 0.334-0.0662 0.676-0.357 0.835l0.144 0.526c0.0093 0.034-0.0595 0.082-0.155 0.107-0.095 0.025-0.179 0.0174-0.188-0.0167l-0.144-0.527c-0.332 0.0039-0.642-0.215-0.733-0.549-0.0537-0.197-0.0219-0.396 0.0725-0.56v-9.3e-4c0.0944-0.163 0.251-0.291 0.448-0.342 0.0554-0.0146 0.111-0.0224 0.166-0.024zm0.0134 0.292c-0.0334 0.0011-0.0673 0.0059-0.101 0.0147-0.12 0.0316-0.215 0.107-0.272 0.205l-9.3e-5 -9.3e-5 -1.11e-4 9.3e-5 -9.3e-5 9.9e-5v0.0013c-0.0567 0.0982-0.075 0.218-0.0422 0.338 0.0656 0.24 0.309 0.381 0.55 0.318 0.241-0.0631 0.381-0.305 0.315-0.545-0.0533-0.195-0.225-0.324-0.416-0.332-0.011-3.72e-4 -0.0221-5.58e-4 -0.0333-1.86e-4zm-1.08 0.885c0.119 0.292 0.347 0.515 0.623 0.636l-1.62-0.442zm-0.895 0.678 1.15 0.313-0.0824 0.313-0.536-0.146-0.0493 0.187 0.536 0.146-0.0824 0.313-0.536-0.146-0.0492 0.187 0.536 0.146-0.0823 0.313-0.536-0.146-0.0493 0.187 0.536 0.146-0.0826 0.313-1.15-0.313z" />
</symbol>
<symbol id="vfx" viewBox="0 0 8.47 8.47">
<path id="path2264"
d="m4.06 1.12a0.485 0.485 0 0 0-0.455 0.597c0.0888 0.371-0.0037 0.68-0.197 1.09-0.17 0.357-0.423 0.757-0.602 1.24l-0.0404-0.0861a0.344 0.344 0 0 0-0.3-0.198 0.344 0.344 0 0 0-0.352 0.3l-0.0727 0.574-0.524 0.246a0.344 0.344 0 0 0 0.103 0.652l0.574 0.0727 0.246 0.524a0.344 0.344 0 0 0 0.449 0.169c0.21 0.353 0.539 0.667 0.987 0.876a0.485 0.485 0 0 0 0.467-0.0317c0.267 0.183 0.591 0.224 0.85 0.179 0.295-0.0515 0.541-0.177 0.744-0.308a0.485 0.485 0 0 0 1.12e-4 0c0.868-0.558 1.04-1.54 0.873-2.29a0.485 0.485 0 0 0-0.364-0.364c-0.0046-0.0892-0.0141-0.18-0.0351-0.275-0.0035-0.016-0.0076-0.0323-0.0115-0.0485a0.306 0.306 0 0 0 0.0306-0.0505l0.134-0.283 0.311-0.0378a0.306 0.306 0 0 0 0.0949-0.58l-0.283-0.135-0.0378-0.311a0.306 0.306 0 0 0-0.319-0.269 0.306 0.306 0 0 0-0.261 0.174l-0.135 0.283-0.236 0.0286c-0.0304-0.0252-0.0619-0.0498-0.0947-0.0736a0.485 0.485 0 0 0-0.272-0.0922c-0.0898-0.514-0.398-1.03-0.956-1.47a0.485 0.485 0 0 0-0.316-0.103zm0.0162 0.484c2.26 1.78-1.1 3.68 0.0037 5.13-0.546-0.255-0.829-0.649-0.941-1.08l0.025-0.199 0.524-0.246a0.344 0.344 0 0 0-0.103-0.652l-0.415-0.0526c0.01-0.0383 0.02-0.0767 0.0315-0.114 0.304-0.994 1.12-1.75 0.875-2.79zm2.27 1.08 0.0578 0.478 0.435 0.207-0.478 0.0578-0.207 0.435-0.0578-0.478-0.435-0.207 0.478-0.0578zm-1.03 0.498c0.358 0.26 0.539 0.664 0.617 1.02 0.185 0.831-0.604 1.46-0.263 1.68 0.264 0.171 0.599-0.504 0.662-1.04 0.139 0.611 0.0244 1.33-0.662 1.77-0.331 0.213-0.805 0.388-1.12 0.103-0.843-0.772 0.811-2.38 0.762-3.53zm-2.87 0.928 0.326 0.695 0.762 0.0965-0.695 0.326-0.0965 0.762-0.326-0.695-0.762-0.0965 0.695-0.326z" />
</symbol>
<symbol id="pcg" viewBox="0 0 8.47 8.47">
<path id="path3174"
d="m5.94 2.36-4.21 0.5-0.103 0.252-0.0241 0.0594-1.19 2.93 7.65-0.907zm-0.203 0.393 1.48 1.98-6.08 0.721 0.896-2.2 0.0242-0.0595zm-0.135 0.137-0.956 0.909 1.67 0.751 0.374-0.0444zm-0.469 0.0497-0.881 0.105-0.484 0.36 0.544 0.245zm-1.36 0.161-1.55 0.184-0.41 1.18zm-0.265 0.495-0.717 0.534 1.08 0.711 1.72-0.204zm-1.07 0.795-0.813 0.605-0.0401 0.115 1.56-0.185z" />
</symbol>
<symbol id="plugin" viewBox="0 0 8.47 8.47">
<path id="path2311"
d="m4.63 0.949c-0.27-0.0073-0.537 0.135-0.679 0.38l-0.274 0.475c-0.456-0.136-0.972 0.0516-1.22 0.479-0.162 0.281-0.177 0.61-0.0707 0.896l-0.0442 0.0766-0.126 0.218c-0.337 0.583-0.335 1.27-0.0536 1.84-0.0659 0.209-0.0697 0.427-0.0115 0.631l-0.252 0.436h9.3e-5c-0.206 0.357-0.0791 0.832 0.278 1.04 0.358 0.206 0.832 0.0789 1.04-0.278a0.5 0.5 0 0 0 0-9.9e-5l0.252-0.436c0.206-0.0519 0.393-0.164 0.541-0.326 0.629-0.0378 1.23-0.382 1.56-0.965l9.3e-5 -9.5e-5 0.17-0.295c0.301-0.0509 0.579-0.228 0.741-0.509 0.247-0.428 0.153-0.969-0.193-1.3l0.014-0.0247 0.259-0.449c0.206-0.357 0.0791-0.832-0.278-1.04a0.5 0.5 0 0 0-9.3e-5 -9.3e-5c-0.324-0.187-0.743-0.0976-0.972 0.187 0.132-0.341-1.11e-4 -0.749-0.324-0.936l-9.3e-5 -9.3e-5c-0.112-0.0644-0.237-0.0985-0.36-0.102zm-0.0136 0.499c0.042 0.0019 0.0844 0.0125 0.124 0.0351 0.125 0.0722 0.168 0.231 0.0954 0.356l-0.386 0.668-0.452-0.261 0.386-0.668c0.0496-0.086 0.14-0.133 0.233-0.131zm1.3 0.749c0.042 0.0019 0.0844 0.0125 0.124 0.0351 0.125 0.0722 0.168 0.231 0.0955 0.356l-0.386 0.668-0.452-0.261 0.386-0.668c0.0497-0.086 0.14-0.133 0.233-0.131zm-2.53 0.0584c0.0894 0.0024 0.18 0.0265 0.263 0.0746l2.2 1.27c0.266 0.154 0.357 0.492 0.203 0.758-0.154 0.266-0.492 0.357-0.758 0.203l-2.2-1.27c-0.266-0.154-0.357-0.492-0.203-0.758 0.106-0.183 0.299-0.283 0.496-0.278zm-0.552 1.15c0.0412 0.0374 0.0866 0.0712 0.136 0.1l2.2 1.27c0.0499 0.0288 0.102 0.0512 0.155 0.0682l-0.185 0.32c-0.398 0.69-1.27 0.925-1.96 0.526-0.69-0.398-0.925-1.27-0.526-1.96zm-0.222 2.13c0.122 0.143 0.269 0.268 0.441 0.367 0.172 0.0991 0.354 0.164 0.538 0.198-0.12 0.102-0.276 0.152-0.432 0.14l-0.375 0.649c-0.0722 0.125-0.231 0.168-0.356 0.0956-0.125-0.0722-0.168-0.231-0.0954-0.356l0.375-0.649c-0.0882-0.129-0.123-0.289-0.0948-0.444z" />
</symbol>
<symbol id="network" viewBox="0 0 8.47 8.47">
<path id="path1700"
d="m4.57 1.56 1.12e-4 1.02e-4c-0.0745 0.0032-0.15 0.0138-0.225 0.0324h-2.24e-4c-0.44 0.109-0.76 0.473-0.838 0.897l-0.0389 0.0239c-0.216-0.11-0.457-0.173-0.71-0.162h-0.0019l-0.0019 1.04e-4c-0.0922 0.0044-0.187 0.0175-0.283 0.0412l-1.12e-4 1.08e-4h-9.3e-5c-0.761 0.189-1.24 0.971-1.05 1.74l9.3e-5 1.08e-4v1.04e-4c0.19 0.765 0.976 1.24 1.74 1.05h1.12e-4l9.3e-5 -1.08e-4c0.0177-0.0044 0.0336-0.0123 0.051-0.0173 0.0087 0.0932 0.0239 0.187 0.047 0.28v2.15e-4c0.256 1.03 1.32 1.66 2.35 1.41h1.12e-4c1.03-0.256 1.68-1.31 1.42-2.34v-2.12e-4c-0.174-0.703-0.722-1.22-1.38-1.39 0.0906-0.215 0.119-0.457 0.0594-0.698l-1.12e-4 -5.58e-4 -1.11e-4 -3.72e-4c-0.131-0.523-0.618-0.873-1.14-0.851zm0.0244 0.568c0.26-0.0112 0.5 0.16 0.566 0.42 0.0739 0.298-0.11 0.6-0.411 0.674-0.18 0.0447-0.361-3e-3 -0.494-0.112l-0.619 0.379c0.0099 0.0272 0.0187 0.0549 0.0258 0.0835 0.0371 0.15 0.0313 0.301-0.0084 0.44l0.364 0.185c0.184-0.265 0.462-0.468 0.799-0.552 0.0917-0.0228 0.184-0.0355 0.275-0.0394 0.637-0.0267 1.23 0.394 1.39 1.03 0.181 0.73-0.272 1.47-1.01 1.66-0.733 0.182-1.48-0.263-1.66-0.993-0.0673-0.272-0.0466-0.546 0.0437-0.792l-0.363-0.185c-0.116 0.143-0.276 0.252-0.467 0.299-0.463 0.114-0.937-0.171-1.05-0.633-0.114-0.462 0.173-0.932 0.635-1.05 0.0578-0.0143 0.116-0.0224 0.173-0.0252 0.255-0.0106 0.499 0.0919 0.67 0.271l0.618-0.379c-0.0691-0.296 0.114-0.593 0.412-0.667 0.0376-0.0093 0.0752-0.0146 0.112-0.0162zm0.0097 0.281c-0.0182 7.44e-4 -0.0367 0.0035-0.0551 8e-3 -0.147 0.0365-0.238 0.186-0.202 0.333 0.0364 0.147 0.187 0.238 0.334 0.201 0.147-0.0364 0.239-0.187 0.202-0.334-0.0319-0.128-0.152-0.213-0.28-0.208zm-1.81 0.858c-0.0346 0.0015-0.0697 0.0065-0.105 0.0151-0.28 0.0694-0.451 0.351-0.383 0.628 0.0684 0.278 0.352 0.446 0.632 0.377 0.28-0.0694 0.451-0.351 0.382-0.628-0.0606-0.243-0.284-0.402-0.527-0.392zm2.31 0.839v1.08e-4c-0.0576 0.0028-0.115 0.0107-0.173 0.0251-0.462 0.115-0.749 0.585-0.635 1.05 0.115 0.462 0.589 0.748 1.05 0.633 0.463-0.115 0.752-0.59 0.637-1.05-0.101-0.404-0.478-0.67-0.881-0.653z" />
</symbol>
<symbol id="2D" viewBox="0 0 8.47 8.47">
<path id="path2549"
d="m3.86 2.21-0.0694 0.424-0.0196 0.119c-0.197-0.0757-0.409-0.125-0.631-0.125-0.532 0-1.02 0.204-1.45 0.507l-0.306 0.213 0.66 1.29-0.433 0.453 8e-3 1.17h2.98v-0.291l0.269 0.0447c0.534 0.089 1.04 0.0086 1.45-0.251 0.401-0.26 0.672-0.696 0.755-1.21 0.0829-0.508-0.0297-1-0.32-1.38-0.291-0.374-0.74-0.614-1.26-0.702zm0.353 0.493 1.19 0.199c0.881 0.147 1.37 0.77 1.23 1.59-0.134 0.821-0.804 1.25-1.71 1.1l-0.767-0.128v0.368h-2.12l-0.0041-0.57 0.946-0.988c0.112-0.117 0.205-0.254 0.205-0.347-1.8e-5 -0.0937-0.0658-0.144-0.186-0.144-0.205 0-0.475 0.137-0.738 0.352l-0.332-0.652c0.386-0.269 0.784-0.43 1.21-0.43 0.447 0 0.808 0.189 0.935 0.491zm0.771 0.84-0.214 1.31 0.332 0.0553c0.32 0.0533 0.568-0.167 0.632-0.563 0.0653-0.401-0.117-0.7-0.46-0.757zm-1.03 0.753c-0.0934 0.143-0.219 0.285-0.361 0.428l-0.417 0.418h0.64z" />
</symbol>
<symbol id="3D" viewBox="0 0 8.47 8.47">
<path id="path2458"
d="m4.08 2.24-2.25 0.396-0.177 0.774 0.218 0.56-0.972 1.45 0.392 0.498 0.0446 0.0306c0.496 0.34 1.21 0.345 1.91 0.125 0.216-0.0682 0.398-0.169 0.572-0.273l0.0061 0.243 1.95-0.0984c2-0.166 2.12-1.47 1.42-2.54-0.469-0.718-1.27-1.07-2.08-1.04l-0.987 0.0275zm-0.259 0.406 0.0734 0.275-0.508 0.495 0.125-0.0053c0.256-0.0108 0.482 0.0564 0.632 0.209l-0.0086-0.886 0.979-0.0276c0.712-0.02 1.37 0.275 1.78 0.886 0.567 0.859 0.258 1.67-1.03 1.74l-1.7 0.0858-0.0065-0.676c-0.21 0.309-0.586 0.583-1.1 0.745-0.666 0.21-1.35 0.166-1.72-0.0849l0.731-1.09c0.24 0.23 0.542 0.311 0.873 0.223 0.272-0.072 0.4-0.199 0.386-0.376-0.0132-0.165-0.142-0.216-0.386-0.158l-0.608 0.144 0.0574-0.45 0.558-0.495-0.927 0.182 0.1-0.438zm1.4 0.486-0.266 0.0085 0.273 1.2 0.4-0.0168c0.384-0.0161 0.505-0.311 0.337-0.694-0.144-0.328-0.431-0.51-0.745-0.5z" />
</symbol>
<symbol id="audio" viewBox="0 0 8.47 8.47">
<path id="path2056"
d="m5.11 2.16c-0.0198 0-0.0397 9.3e-5 -0.0598 0.0019-0.194 0.0158-0.359 0.128-0.456 0.285a1.9 1.9 0 0 0-0.541-0.0348 1.9 1.9 0 0 0-0.517 0.117c-0.119-0.146-0.305-0.219-0.507-0.203-0.321 0.0262-0.568 0.317-0.542 0.638l0.0382 0.468a1.9 1.9 0 0 0-0.146 0.375c-0.0778-0.0308-0.162-0.0457-0.251-0.0385-0.321 0.0262-0.568 0.317-0.541 0.638l0.0709 0.87c0.0262 0.321 0.317 0.568 0.638 0.542 0.165-0.0136 0.307-0.0996 0.406-0.222l0.0128 0.158c0.0262 0.321 0.317 0.568 0.638 0.542 0.141-0.0115 0.268-0.0742 0.364-0.168a1.9 1.9 0 0 0 0.645 0.0608 1.9 1.9 0 0 0 0.627-0.164c0.109 0.077 0.245 0.118 0.386 0.107 0.321-0.0262 0.568-0.317 0.542-0.638l-0.013-0.158c0.117 0.104 0.271 0.167 0.436 0.153 0.321-0.0262 0.568-0.317 0.542-0.638l-0.0709-0.87c-0.0262-0.321-0.317-0.568-0.638-0.542-0.0881 0.0073-0.169 0.0354-0.241 0.0782a1.9 1.9 0 0 0-0.205-0.349l-0.038-0.465c-0.0245-0.301-0.282-0.537-0.578-0.543zm-0.0061 0.338c0.129 0.0024 0.237 0.102 0.247 0.233l0.111 1.36c0.0114 0.14 0.133 0.243 0.273 0.232 0.14-0.0114 0.243-0.133 0.232-0.273-0.0114-0.14 0.0921-0.262 0.232-0.273 0.14-0.0114 0.262 0.0921 0.273 0.232l0.0709 0.87c0.0114 0.14-0.0921 0.262-0.232 0.273-0.14 0.0114-0.262-0.0921-0.273-0.232-0.0114-0.14-0.133-0.243-0.273-0.232-0.14 0.0114-0.243 0.133-0.232 0.273l0.0456 0.56c0.0114 0.14-0.0921 0.262-0.232 0.273-0.14 0.0114-0.262-0.0921-0.273-0.232l-0.0457-0.56c-0.0114-0.14-0.133-0.243-0.273-0.232-0.14 0.0114-0.243 0.133-0.232 0.273 0.0114 0.14-0.0921 0.262-0.232 0.273-0.14 0.0114-0.262-0.0921-0.273-0.232-0.0114-0.14-0.133-0.243-0.273-0.232-0.14 0.0114-0.243 0.133-0.232 0.273l0.0456 0.561c0.0114 0.14-0.0921 0.262-0.232 0.273-0.14 0.0114-0.262-0.092-0.273-0.232l-0.0457-0.56c-0.0114-0.14-0.133-0.243-0.273-0.232-0.14 0.0115-0.243 0.133-0.232 0.273 0.0114 0.14-0.0921 0.262-0.232 0.273-0.14 0.0115-0.262-0.092-0.273-0.232l-0.0709-0.87c-0.0114-0.14 0.0921-0.262 0.232-0.273 0.14-0.0114 0.262 0.0921 0.273 0.232 0.0114 0.14 0.133 0.243 0.273 0.232 0.14-0.0114 0.244-0.133 0.232-0.273l-0.111-1.36c-0.0114-0.14 0.0921-0.262 0.232-0.273 0.14-0.0114 0.262 0.0921 0.273 0.232l0.111 1.36c0.0115 0.14 0.133 0.243 0.273 0.232 0.14-0.0114 0.243-0.133 0.232-0.273l-0.024-0.295c-0.0114-0.14 0.0921-0.262 0.232-0.273 0.14-0.0114 0.262 0.0921 0.273 0.232l0.024 0.295c0.0115 0.14 0.133 0.243 0.273 0.232 0.14-0.0114 0.243-0.133 0.232-0.273l-0.111-1.36c-0.0114-0.14 0.0921-0.262 0.232-0.273h0.026z" />
</symbol>
<symbol id="gdscript" viewBox="0 0 8.47 8.47">
<path id="path1200"
d="m5.56 2.24-0.0382 0.464-0.0196 0.239c-0.203-0.058-0.524-7.44e-4 -0.69 0.086l-0.0483-0.608-1.66 0.132c-0.861-0.0682-1.46 0.746-1.31 1.44-0.486 0.043-0.71 0.497-0.634 0.93 0.0652 0.369 0.359 0.734 0.786 0.709l-0.0639 0.17c0.642 0.509 2.03 0.682 2.71-0.0904 0.157 0.151 0.461 0.247 0.751 0.195l1.67 0.137 0.3-3.66zm0.425 0.502 0.828 0.0679-0.224 2.73-0.828-0.0679 0.0166-0.202c-0.141 0.14-0.324 0.207-0.53 0.19-0.368-0.0302-0.637-0.232-0.763-0.547-0.0339 0.483-0.446 0.814-1.05 0.863-0.386 0.0307-0.749-0.0627-0.97-0.186l0.217-0.576c0.185 0.0964 0.434 0.143 0.629 0.128 0.243-0.0193 0.367-0.129 0.355-0.284l-0.0152-0.191c-0.111 0.146-0.277 0.237-0.487 0.253-0.475 0.0377-0.858-0.313-0.905-0.906-0.0458-0.578 0.263-0.976 0.738-1.01 0.217-0.0172 0.4 0.0461 0.536 0.176l-0.0149-0.188 0.824-0.0655 0.098 1.23c0.105-0.513 0.467-0.81 0.96-0.77 0.217 0.0178 0.394 0.118 0.514 0.279zm-2.67 0.844v1.86e-4c-0.0102-3.72e-4 -0.0206-6.8e-5 -0.0312 7.45e-4 -0.169 0.0134-0.268 0.166-0.251 0.387 0.0173 0.217 0.139 0.352 0.308 0.338 0.169-0.0134 0.268-0.166 0.251-0.383-0.0164-0.207-0.125-0.338-0.278-0.343zm2.23 0.473c-0.166 0.0044-0.282 0.145-0.3 0.366-0.0193 0.235 0.0858 0.4 0.27 0.415 0.18 0.0148 0.311-0.13 0.33-0.366 0.0193-0.235-0.0858-0.4-0.266-0.414-0.0115-9.3e-4 -0.0228-0.0011-0.0338-9.3e-4zm-3.56 0.356c0.225 0 0.38 0.155 0.38 0.377 0 0.225-0.155 0.38-0.38 0.38-0.221 0-0.377-0.155-0.377-0.38 0-0.222 0.155-0.377 0.377-0.377z" />
</symbol>
<symbol id="paths" viewBox="0 0 8.47 8.47">
<path id="path1395"
d="m4.3 1.39c-0.118-7.44e-4 -0.229 0.0028-0.325 0.0097v0.0013l-0.0914 0.296c-0.0268 0.087-0.0411 0.174-0.0625 0.262h-0.014c-0.0585-0.0672-0.111-0.136-0.174-0.2l-0.222-0.227-0.285 0.141c-0.232 0.114-0.465 0.253-0.681 0.437l-0.212 0.18 0.0724 0.269c0.0269 0.0997 0.0645 0.197 0.0963 0.296-0.0175 0.0199-0.0274 0.0243-0.0457 0.0475 0 0-0.0019 0.0021-2e-3 0.0028-1.12e-4 1.13e-4 -0.0019-1.17e-4 -0.0019 0-0.0752-0.0216-0.147-0.0489-0.224-0.0667l-0.321-0.0732-0.162 0.287c-0.129 0.23-0.248 0.482-0.332 0.761l-0.0764 0.254 0.188 0.185c0.101 0.0993 0.207 0.189 0.314 0.279 0.126 0.489 0.234 0.985 0.36 1.49 7.4e-5 0-5.6e-5 5.4e-5 0 0.0013 0.135 0.553 0.631 0.895 1.16 1.01 0.527 0.111 1.13 0.0589 1.76-0.0921l0.0048-0.0013c0.0019 0 0.0019-0.0013 2e-3 -0.0013 0.629-0.155 1.19-0.386 1.61-0.726 0.417-0.34 0.701-0.872 0.566-1.43v-0.0034c-0.117-0.472-0.239-0.983-0.36-1.49 0.0531-0.128 0.107-0.255 0.151-0.389l0.0822-0.252-0.185-0.19c-0.203-0.209-0.424-0.378-0.645-0.523l-0.275-0.182-0.251 0.213c-0.0601 0.0511-0.112 0.108-0.169 0.162-0.029-0.0135-0.0401-0.0136-0.0664-0.0239-0.0166-0.102-0.0289-0.205-0.0507-0.306l-0.0585-0.272c-0.297-0.092-0.718-0.133-1.07-0.135zm0.0041 0.437 1.86e-4 7.44e-4c0.233-0.0049 0.468 0.0106 0.698 0.0638 0.0392 0.182 0.0696 0.358 0.0888 0.54 0.0918 0.0316 0.186 0.0551 0.275 0.0966 0.0898 0.0397 0.18 0.0768 0.265 0.128 0.115-0.124 0.239-0.244 0.37-0.355 0.203 0.134 0.398 0.283 0.571 0.462-0.0562 0.172-0.118 0.335-0.19 0.493l-0.0028 7.44e-4 0.286 1.18 0.0247 0.102c-0.0028 0-0.0048 7.44e-4 -0.0071 0.0013l0.0486 0.167c0.018 0.076 0.0369 0.159 0.0415 0.176 0.181 0.745-0.678 1.33-1.85 1.62v0.00112c-0.222 0.0531-0.438 0.0916-0.645 0.114l0.114-0.425 0.766-0.765 0.178-0.664 0.429 0.115-0.429-0.971-0.858 0.627 0.428 0.115-0.147 0.549-0.342 0.343-0.042 0.0415-0.0152-0.0567-0.291-1.09 0.284-1.06 0.429 0.115-0.429-0.971-0.858 0.627 0.428 0.115-0.315 1.18 0.396 1.48-0.193 0.721c-0.663-0.0119-1.16-0.233-1.28-0.728-0.0041-0.0165-0.0251-0.0996-0.0439-0.175l-0.0325-0.171c-2e-3 5.59e-4 -0.0048 5.59e-4 -0.0071 7.45e-4l-0.0289-0.119-0.0318-0.131-0.25-1.03-0.0028 7.44e-4c-0.136-0.107-0.267-0.224-0.395-0.35 0.072-0.238 0.177-0.462 0.296-0.673 0.167 0.0387 0.332 0.0884 0.491 0.145 0.0519-0.0845 0.116-0.159 0.177-0.235 0.0599-0.0777 0.133-0.142 0.2-0.212-0.0664-0.17-0.12-0.341-0.169-0.521 0.18-0.153 0.382-0.274 0.591-0.377 0.124 0.127 0.244 0.267 0.352 0.407 0.08-0.0342 0.162-0.0596 0.246-0.0811v-5.58e-4c0-2.8e-5 0-1.86e-4 0.0019-5.58e-4 0.0841-0.0193 0.169-0.0343 0.256-0.0407 0.0322-0.174 0.0737-0.354 0.126-0.524z" />
</symbol>
<symbol id="legacy" viewBox="0 0 8.47 8.47">
<path id="path2263"
d="m4.23 1.59a2.65 2.65 0 0 0-2.65 2.65 2.65 2.65 0 0 0 2.65 2.65 2.65 2.65 0 0 0 2.65-2.65 2.65 2.65 0 0 0-2.65-2.65zm-0.0069 0.468a2.18 2.18 0 0 1 0.0069 0 2.18 2.18 0 0 1 2.18 2.18 2.18 2.18 0 0 1-2.18 2.18 2.18 2.18 0 0 1-2.18-2.18 2.18 2.18 0 0 1 2.17-2.18zm0.0069 0.182c-0.02 0-0.0361 0.0162-0.0361 0.0362v0.334c0 0.02 0.0161 0.0361 0.0361 0.0361 0.02 0 0.0362-0.0161 0.0362-0.0361v-0.334c0-0.02-0.0162-0.0362-0.0362-0.0362zm0.502 0.067v9.8e-5c-0.014 0.0019-0.0261 0.012-0.03 0.0265l-0.0468 0.175c-0.0052 0.0194 0.0062 0.039 0.0256 0.0442 0.0194 0.0052 0.039-0.0062 0.0442-0.0256l0.0469-0.175c0.0052-0.0194-0.0062-0.0391-0.0256-0.0443-0.0048-0.0013-0.0097-0.0017-0.0143-0.0011zm-1 9.8e-5c-0.0046-7.44e-4 -0.0095-3.72e-4 -0.0143 9.3e-4 -0.0194 0.0052-0.0308 0.025-0.0256 0.0443l0.0469 0.175c0.0052 0.0194 0.025 0.0308 0.0443 0.0256 0.0194-0.0052 0.0308-0.025 0.0256-0.0443l-0.0469-0.175c-0.0039-0.0145-0.016-0.0246-0.03-0.0265zm-0.482 0.196c-0.0047 5.58e-4 -0.0093 2e-3 -0.0136 0.0045-0.0174 0.01-0.0233 0.0322-0.0133 0.0495l0.0906 0.157c0.01 0.0174 0.032 0.0233 0.0494 0.0133 0.0174-0.01 0.0233-0.0321 0.0133-0.0494l-0.0906-0.157c-0.0075-0.013-0.0218-0.0196-0.0358-0.0179zm1.97 0c-0.014-0.0019-0.0282 0.0048-0.0358 0.0179l-0.0906 0.157c-0.01 0.0174-0.0041 0.0394 0.0133 0.0494 0.0174 0.01 0.0393 0.0041 0.0493-0.0133l0.0906-0.157c0.01-0.0174 0.0041-0.0394-0.0133-0.0494-0.0043-0.0025-9e-3 -4e-3 -0.0136-0.0046zm-2.37 0.311c-0.0093-9e-6 -0.0185 0.0036-0.0256 0.0107-0.0142 0.0142-0.0141 0.037 0 0.0511l0.128 0.128c0.0142 0.0142 0.037 0.0142 0.0511 0s0.0142-0.037 0-0.0511l-0.128-0.128c-0.0071-0.0071-0.0163-0.0107-0.0256-0.0107zm2.77 0c-0.0092 0-0.0185 0.0035-0.0256 0.0106l-0.128 0.128c-0.0142 0.0142-0.0142 0.037 0 0.0511s0.037 0.0142 0.0511 0l0.128-0.128c0.0142-0.0142 0.0142-0.037 0-0.0511-0.0071-0.0071-0.0163-0.0107-0.0256-0.0107zm-1.91 0.192-0.135 0.0494 0.0166 0.223c-0.0483 0.0265-0.0934 0.0576-0.135 0.0925l-0.208-0.0863-0.0913 0.109 0.125 0.181c-0.0288 0.0475-0.0527 0.0979-0.0712 0.151l-0.22 0.0267-0.0234 0.139 0.198 0.0939c0 0.0278 0.0015 0.0558 0.0039 0.0841 0.0029 0.0282 0.0071 0.056 0.0128 0.0832l-0.176 0.13 0.0506 0.132 0.221-0.0158c0.0287 0.0483 0.0621 0.0933 0.0998 0.134l-0.087 0.201 0.111 0.0892 0.187-0.124c0.0477 0.0264 0.0982 0.0482 0.151 0.065l0.028 0.222 0.142 0.0229 0.101-0.205c0.0264-3.72e-4 0.0529-0.0021 0.0796-5e-3v9.9e-5l0.387-0.0372-0.0552-0.55-0.387 0.0371 0.0172 0.171c-0.243 0.0234-0.46-0.151-0.484-0.389-0.0239-0.238 0.154-0.45 0.397-0.474l0.387-0.0372-0.038-0.379-0.387 0.0372c-0.0268 0.0022-0.0531 0.0056-0.079 0.0103zm-1.17 0.214c-0.014-0.0019-0.0282 0.0048-0.0358 0.0178-0.01 0.0174-0.0041 0.0395 0.0133 0.0495l0.157 0.0904c0.0174 0.01 0.0393 0.0042 0.0493-0.0132 0.01-0.0174 0.0041-0.0394-0.0133-0.0494l-0.157-0.0906c-0.0043-0.0025-9e-3 -4e-3 -0.0136-0.0046zm3.38 0c-0.0046 5.58e-4 -0.0093 2e-3 -0.0136 0.0045l-0.157 0.0906c-0.0174 0.01-0.0233 0.032-0.0133 0.0494 0.01 0.0174 0.0321 0.0233 0.0494 0.0133l0.157-0.0906c0.0174-0.01 0.0233-0.0321 0.0133-0.0494-0.0075-0.013-0.0218-0.0196-0.0358-0.0179zm-1.37 0.245-0.101 0.205c-0.0263 3.72e-4 -0.0529 2e-3 -0.0796 0.0049l-0.387 0.0372 0.0379 0.379 0.387-0.0371a0.443 0.433 0 0 1 0.484 0.389 0.443 0.433 0 0 1-0.397 0.473l-0.387 0.0373 0.038 0.379 0.387-0.0372c0.0268-0.0023 0.053-0.0057 0.0789-0.0103l0.14 0.181 0.134-0.0494-0.0166-0.223c0.0482-0.0265 0.0934-0.0575 0.135-0.0925l0.208 0.0863 0.0912-0.109-0.125-0.181c0.0288-0.0475 0.0528-0.0981 0.0713-0.151l0.22-0.0266 0.0236-0.139-0.198-0.0939c0.0015-0.0278-0.0015-0.0558-4e-3 -0.0841-0.0029-0.0282-0.0071-0.056-0.0127-0.0832l0.176-0.13-0.0506-0.132-0.221 0.0158c-0.0287-0.0483-0.0622-0.0933-0.0999-0.134l0.0869-0.201-0.111-0.0893-0.187 0.124c-0.0477-0.0264-0.0982-0.0482-0.151-0.065l-0.0281-0.222zm-2.22 0.227v9.9e-5c-0.014 0.0019-0.0261 0.0119-0.03 0.0264-0.0052 0.0194 0.0063 0.039 0.0257 0.0442l0.175 0.0469c0.0194 0.0052 0.039-0.0062 0.0442-0.0256 0.0052-0.0194-0.0062-0.039-0.0256-0.0442l-0.175-0.0469c-0.0048-0.0013-0.0098-0.0017-0.0144-9.3e-4zm3.79 9.9e-5c-0.0047-7.44e-4 -0.0096-3.72e-4 -0.0144 0.0011l-0.175 0.0469c-0.0194 0.0052-0.0308 0.0249-0.0256 0.0442 0.0052 0.0194 0.0249 0.0308 0.0442 0.0256l0.175-0.0468c0.0194-0.0052 0.0308-0.025 0.0256-0.0443-0.0039-0.0145-0.0159-0.0246-0.0299-0.0265zm-3.86 0.507c-0.02 0-0.0363 0.0162-0.0363 0.0362s0.0163 0.0361 0.0363 0.0361h0.334c0.02 0 0.0361-0.0161 0.0361-0.0361 0-0.02-0.0161-0.0362-0.0361-0.0362zm3.58 0c-0.02 0-0.0362 0.0162-0.0362 0.0362s0.0162 0.0361 0.0362 0.0361h0.334c0.02 0 0.0362-0.0161 0.0362-0.0361 0-0.02-0.0162-0.0362-0.0362-0.0362zm-3.34 0.461c-0.0046-7.44e-4 -0.0095-3.72e-4 -0.0143 9.3e-4l-0.175 0.0468c-0.0194 0.0052-0.0308 0.025-0.0257 0.0443 0.0052 0.0194 0.025 0.0308 0.0444 0.0256l0.175-0.0469c0.0194-0.0052 0.0308-0.0249 0.0256-0.0442-0.0039-0.0145-0.016-0.0246-0.0299-0.0265zm3.42 0c-0.014 0.0019-0.0261 0.0119-0.03 0.0264-0.0052 0.0194 0.0062 0.0391 0.0256 0.0443l0.175 0.0469c0.0194 0.0052 0.0391-0.0062 0.0443-0.0256 0.0052-0.0194-0.0062-0.0391-0.0256-0.0443l-0.175-0.0469c-0.0048-0.0013-0.0096-0.0017-0.0142-9.3e-4zm-3.26 0.429c-0.0046 5.58e-4 -0.0092 0.0021-0.0136 0.0046l-0.157 0.0906c-0.0174 0.01-0.0233 0.032-0.0133 0.0494 0.01 0.0174 0.0322 0.0232 0.0495 0.0132l0.157-0.0906c0.0174-0.01 0.0233-0.032 0.0133-0.0493-0.0075-0.013-0.0217-0.0196-0.0357-0.0179zm0.287 0.368c-0.0092 0-0.0185 0.0035-0.0256 0.0106l-0.128 0.128c-0.0142 0.0142-0.0142 0.0371 0 0.0512 0.0142 0.0142 0.037 0.0141 0.0511 0l0.128-0.128c0.0142-0.0142 0.0142-0.037 0-0.0511-0.0071-0.0071-0.0163-0.0107-0.0256-0.0107zm2.51 0c-0.0092-4e-6 -0.0185 0.0035-0.0256 0.0106-0.0142 0.0142-0.0142 0.037 0 0.0511l0.128 0.128c0.0142 0.0142 0.037 0.0142 0.0511 0s0.0142-0.0371 0-0.0512l-0.128-0.128c-0.0071-0.0071-0.0163-0.0106-0.0256-0.0106zm-2.14 0.283c-0.014-0.0019-0.0282 0.0048-0.0358 0.0178l-0.0906 0.157c-0.01 0.0174-0.0042 0.0394 0.0132 0.0494 0.0174 0.01 0.0394 0.0041 0.0494-0.0133l0.0906-0.157c0.01-0.0174 0.0041-0.0393-0.0133-0.0493-0.0043-0.0025-0.0089-4e-3 -0.0136-0.0046zm1.77 0c-0.0047 5.58e-4 -0.0093 0.0021-0.0136 0.0046-0.0174 0.01-0.0232 0.032-0.0132 0.0493l0.0906 0.157c0.01 0.0174 0.032 0.0233 0.0494 0.0133 0.0174-0.01 0.0233-0.032 0.0133-0.0494l-0.0906-0.157c-0.0075-0.013-0.0218-0.0195-0.0358-0.0178zm-0.884 0.0854c-0.02 0-0.0361 0.0161-0.0361 0.0361v0.334c0 0.02 0.0161 0.0362 0.0361 0.0362 0.02 0 0.0362-0.0162 0.0362-0.0362v-0.334c0-0.02-0.0162-0.0361-0.0362-0.0361zm-0.465 0.0923c-0.014 0.0019-0.026 0.0119-0.0299 0.0264l-0.0469 0.175c-0.0052 0.0194 0.0062 0.0391 0.0256 0.0443 0.0194 0.0052 0.0391-0.0062 0.0443-0.0256l0.0468-0.175c0.0052-0.0194-0.0061-0.039-0.0255-0.0442-0.0048-0.0013-0.0098-0.0017-0.0144-9.3e-4zm0.93 0c-0.0046-7.44e-4 -0.0095-3.72e-4 -0.0143 9.3e-4 -0.0194 0.0052-0.0308 0.0249-0.0256 0.0442l0.0468 0.175c0.0052 0.0194 0.025 0.0308 0.0443 0.0256 0.0194-0.0052 0.0308-0.025 0.0256-0.0443l-0.0469-0.175c-0.0039-0.0145-0.0159-0.0245-0.0299-0.0264z" />
</symbol>
</svg>
